<?xml version="1.0" standalone="no"?>
<!DOCTYPE svg PUBLIC "-//W3C//DTD SVG 1.1//EN" "http://www.w3.org/Graphics/SVG/1.1/DTD/svg11.dtd" >
<svg xmlns="http://www.w3.org/2000/svg" xmlns:xlink="http://www.w3.org/1999/xlink" version="1.1">
<metadata></metadata>
<defs>
<font id="merriweatherregular" horiz-adv-x="0" >
<font-face units-per-em="1000" ascent="800" descent="-200" />
<missing-glyph horiz-adv-x="237" />
<glyph unicode="&#xfb01;" horiz-adv-x="733" d="M125 489h-94v46l94 19v47q0 62 32.5 114t85 82.5t111.5 30.5q34 0 59 -9v-100q-9 8 -35.5 15.5t-58.5 7.5q-47 0 -68.5 -24.5t-21.5 -84.5v-79h138v-65h-138v-432l111 -8v-49h-300v49l85 9v431zM515 673q-16 18 -16 46q0 32 19.5 53t53.5 21t50 -18t16 -46 q0 -34 -19.5 -54t-54.5 -20h-1q-32 0 -48 18zM523 478l-76 18v53l155 19h2l23 -18v-493l80 -8v-49h-265v49l81 9v420z" />
<glyph unicode="&#xfb02;" horiz-adv-x="733" d="M125 489h-94v46l94 19v47q0 62 32.5 114t85 82.5t111.5 30.5q34 0 59 -9v-100q-9 8 -35.5 15.5t-58.5 7.5q-47 0 -68.5 -24.5t-21.5 -84.5v-79h138v-65h-138v-432l111 -8v-49h-300v49l85 9v431zM518 746l-81 11v43l161 19h2l22 -15v-747l85 -8v-49h-270v49l81 9v688z" />
<glyph />
<glyph unicode="&#xd;" horiz-adv-x="237" />
<glyph />
<glyph />
<glyph unicode=" "  horiz-adv-x="237" />
<glyph unicode="&#x09;" horiz-adv-x="237" />
<glyph unicode="&#xa0;" horiz-adv-x="237" />
<glyph unicode="!" horiz-adv-x="354" d="M205 238h-64l-30 645h122zM130 104q23 21 52 21q32 0 49 -18t17 -45q0 -32 -22.5 -52t-54.5 -20q-26 0 -45 17.5t-19 45.5q0 30 23 51z" />
<glyph unicode="&#x22;" horiz-adv-x="612" d="M209 456h-66l-19 371h106zM468 456h-65l-20 371h106z" />
<glyph unicode="#" horiz-adv-x="744" d="M81 266h119l19 207h-117v59h124l22 211h83l-23 -211h169l22 211h82l-22 -211h118v-59h-125l-18 -207h121l1 -60h-130l-20 -206h-82l20 206h-169l-22 -206h-83l22 206h-111v60zM301 473l-19 -207h167l21 207h-169z" />
<glyph unicode="$" horiz-adv-x="659" d="M518.5 55q-56.5 -55 -160.5 -64l-1 -117h-70l1 116q-59 4 -113.5 18t-80.5 26l7 171h63l21 -124q45 -38 137 -38q73 0 110.5 32t37.5 94q0 36 -21.5 63.5t-55 48.5t-91.5 51q-6 4 -18 10q-62 32 -100 61t-60 69.5t-22 96.5q0 73 55.5 122t143.5 59v110h71v-109 q80 -4 162 -37l-5 -160h-61l-23 116q-15 13 -40.5 21t-59.5 8q-62 0 -102 -27.5t-40 -83.5q0 -39 22 -68t51.5 -47.5t87.5 -49.5q82 -46 121 -72.5t64.5 -65t25.5 -93.5q0 -82 -56.5 -137z" />
<glyph unicode="%" horiz-adv-x="1037" d="M639 751h76l-320 -751h-76zM137 348.5q-41 27.5 -62.5 73.5t-21.5 102q0 66 26.5 114t71.5 73t98 25q91 0 135 -57t44 -149q0 -65 -27 -112.5t-71.5 -72t-97.5 -24.5q-54 0 -95 27.5zM311 414q25 41 25 112q0 70 -23.5 113.5t-69.5 43.5q-47 0 -72 -41t-25 -113 q0 -65 24 -110.5t69 -45.5q47 0 72 41zM690.5 47.5q-40.5 27.5 -62 74t-21.5 102.5q0 65 26.5 113t71.5 73.5t98 25.5q89 0 133.5 -57.5t44.5 -148.5q0 -65 -27 -112.5t-71.5 -72.5t-97.5 -25q-54 0 -94.5 27.5zM864 114q26 41 26 112q0 70 -23.5 113.5t-69.5 43.5 q-47 0 -72.5 -41.5t-25.5 -112.5q0 -66 24 -111t68 -45q47 0 73 41z" />
<glyph unicode="&#x26;" horiz-adv-x="756" d="M739 352l-81 -11q1 -68 -20 -129t-58 -100q34 -31 63 -46t67 -17v-44q-9 -5 -32.5 -8t-39.5 -3q-35 0 -63.5 13t-65.5 44q-38 -31 -87 -45.5t-97 -14.5q-122 0 -193.5 52t-71.5 144q0 64 41.5 110t108.5 74q-87 110 -87 206q0 47 26 87t71.5 64t101.5 24q58 0 98.5 -20 t60.5 -52t20 -66q0 -57 -21 -97t-55 -68t-96 -68q35 -42 91.5 -105t92.5 -100l25 -24q25 32 36 74.5t11 86.5q0 19 -1 28l-81 11v55h236v-55zM243.5 498.5q21.5 -40.5 55.5 -79.5q62 50 87 90t25 100q0 37 -20 67.5t-70 30.5q-42 0 -70.5 -33t-28.5 -84t21.5 -91.5z M403 57.5q35 10.5 62 30.5q-40 36 -87.5 88.5t-118.5 135.5l-17 20q-85 -66 -85 -138q0 -64 46 -105.5t130 -41.5q35 0 70 10.5z" />
<glyph unicode="'" horiz-adv-x="353" d="M209 456h-66l-19 371h106z" />
<glyph unicode="(" horiz-adv-x="430" d="M114 572.5q47 105.5 105.5 170t96.5 85.5l42 -29q-31 -20 -75.5 -79.5t-80 -159.5t-35.5 -229q0 -132 35.5 -235t80.5 -165t77 -84l-44 -31q-41 24 -97 83.5t-104 170.5t-48 264q0 133 47 238.5z" />
<glyph unicode=")" horiz-adv-x="430" d="M316 72.5q-47 -105.5 -105.5 -170t-96.5 -85.5l-42 29q31 20 75.5 79.5t80 159.5t35.5 229q0 132 -35.5 235t-80.5 165t-77 84l44 31q41 -24 97 -83.5t104 -170.5t48 -264q0 -133 -47 -238.5z" />
<glyph unicode="*" horiz-adv-x="643" d="M295 567l-93 28l-126 59l45 79l114 -80l73 -64l-22 94l-15 140h95l-12 -139l-20 -94l71 65l114 81l46 -78l-123 -60l-94 -31l94 -28l126 -57l-47 -82l-112 80l-75 65l22 -95l15 -139l-93 -1l11 140l19 95l-71 -66l-113 -82l-47 79l125 61z" />
<glyph unicode="+" horiz-adv-x="661" d="M295 352l-3 85v110h77v-110l-5 -85l76 5h116v-76h-116l-76 3l5 -83v-117h-77v117l3 83l-87 -3h-103v76h103z" />
<glyph unicode="," horiz-adv-x="335" d="M228 117.5q22 -32.5 22 -88.5q0 -57 -18 -110t-45 -90.5t-53 -52.5h-1l-34 24v11q20 16 40.5 69.5t20.5 101.5q0 15 -5.5 24.5t-17.5 22.5q-14 15 -21 28t-7 35q0 26 16.5 42t41.5 16h5q34 0 56 -32.5z" />
<glyph unicode="-" horiz-adv-x="628" d="M516 284h-404v73h404v-73z" />
<glyph unicode="." horiz-adv-x="265" d="M82 8q-19 18 -19 46q0 31 22.5 52t52.5 21q31 0 47.5 -18.5t16.5 -45.5q0 -33 -22 -53t-53 -20q-26 0 -45 18z" />
<glyph unicode="/" horiz-adv-x="431" d="M122 -177h-86l273 958h85z" />
<glyph unicode="0" horiz-adv-x="643" d="M125.5 79.5q-63.5 88.5 -63.5 228.5q0 98 36 171.5t98 112.5t136 39q130 0 190 -83.5t60 -228.5q0 -97 -34.5 -171.5t-95 -115.5t-135.5 -41q-128 0 -191.5 88.5zM470 309q0 130 -33.5 200t-112.5 70q-77 0 -114 -66.5t-37 -190.5q0 -127 35.5 -203.5t112.5 -76.5 q149 0 149 267z" />
<glyph unicode="1" horiz-adv-x="440" d="M188 516q-21 -8 -66 -19t-73 -15l-10 56q51 11 104.5 37t89.5 57h1l61 -10v-564l124 -9v-49h-360v49l129 9v458z" />
<glyph unicode="2" horiz-adv-x="598" d="M216 161.5q77 67.5 122.5 139.5t45.5 136q0 55 -33 87.5t-94 32.5q-57 0 -98 -22.5t-76 -55.5l-32 45q35 41 100 74.5t139 33.5q70 0 118 -25.5t71 -66.5t23 -90q0 -99 -95 -203.5t-238 -187.5l310 23l35 86l51 -10l-26 -158h-477l-15 42q92 52 169 119.5z" />
<glyph unicode="3" horiz-adv-x="560" d="M106 -157.5q-28 3.5 -47 8.5v57q33 -10 79 -10q79 0 136.5 25t88 68t30.5 94q0 68 -41.5 105.5t-127.5 38.5l-31 -8q-33 -10 -32 -9l-17 53q42 8 79 24q62 26 100 69.5t38 92.5q0 57 -33.5 83.5t-85.5 26.5q-45 0 -86.5 -16t-71.5 -39l-27 45q28 28 89.5 54.5t125.5 26.5 q91 0 147 -39.5t56 -120.5q0 -71 -56 -129t-133 -85q10 1 28 1q59 0 104 -22t69.5 -59.5t24.5 -84.5q0 -73 -44 -131t-124.5 -90.5t-186.5 -32.5q-23 0 -51 3.5z" />
<glyph unicode="4" horiz-adv-x="644" d="M395 0h-332l-26 45q59 112 145 296.5t154 338.5h26l80 -43l-270 -520l-40 -61l263 14l4 195l85 7v-197l141 7v-82h-141v-161h-89v161z" />
<glyph unicode="5" horiz-adv-x="594" d="M154 -109q71 0 130 29t93 80t34 116q0 161 -149 161q-33 0 -73.5 -9.5t-70.5 -22.5l-27 19l49 360h285l10 19h62l-18 -103h-265l-46 -233q27 14 69 25t84 11q96 0 151 -54t55 -157q0 -79 -45.5 -146t-128.5 -107t-189 -40q-43 0 -70 7v48q28 -3 60 -3z" />
<glyph unicode="6" horiz-adv-x="664" d="M195.5 29.5q-58.5 40.5 -89 110t-30.5 154.5q0 126 61 232.5t156.5 175t195.5 84.5l23 -43q-117 -37 -197 -123.5t-109 -196.5q25 29 69 49.5t102 20.5q104 0 159.5 -61t55.5 -169q0 -73 -30.5 -135.5t-89 -100.5t-137.5 -38q-81 0 -139.5 40.5zM251 406.5 q-42 -24.5 -58 -52.5q-2 -24 -2 -39q-3 -121 32 -198t118 -77q46 0 78 28.5t47.5 74.5t15.5 97q0 99 -36.5 145t-98.5 46q-54 0 -96 -24.5z" />
<glyph unicode="7" horiz-adv-x="588" d="M161 -143q54 118 103.5 237.5t138.5 338.5l47 118l-296 -4l-42 -133l-64 12l21 198h456l21 -27q-49 -137 -137 -384.5t-136 -385.5z" />
<glyph unicode="8" horiz-adv-x="633" d="M103.5 292.5q38.5 50.5 115.5 84.5q-59 38 -91 80.5t-32 106.5q0 59 31.5 101.5t83.5 64.5t112 22q97 0 156 -45t59 -120q0 -57 -34.5 -105.5t-99.5 -84.5q80 -45 124 -91t44 -114q0 -61 -35.5 -106.5t-94.5 -70.5t-128 -25q-64 0 -120.5 20t-92.5 63.5t-36 109.5 q0 59 38.5 109.5zM210 523q22 -28 54 -48t92 -52q45 24 71 61t26 80q0 66 -36 103.5t-97 37.5q-55 0 -93.5 -32t-38.5 -86q0 -36 22 -64zM445 234.5q-21 27.5 -52.5 47.5t-86.5 48q-28 14 -42 22q-47 -24 -76 -64t-29 -86q0 -74 43.5 -117.5t118.5 -43.5q36 0 69.5 16 t54.5 46t21 68q0 36 -21 63.5z" />
<glyph unicode="9" horiz-adv-x="660" d="M473 593.5q58 -38.5 86.5 -105.5t28.5 -151q0 -132 -56 -241t-146.5 -177.5t-191.5 -85.5l-23 44q116 38 189 123t99 198q-25 -29 -68 -49.5t-93 -20.5q-69 0 -120.5 29.5t-79.5 84t-28 126.5q0 71 31.5 131t90.5 96.5t139 36.5q84 0 142 -38.5zM415 214.5 q42 25.5 56 54.5l3 46q0 122 -32.5 194t-117.5 72q-46 0 -78.5 -27.5t-48.5 -71.5t-16 -93q0 -103 37.5 -151.5t100.5 -48.5q54 0 96 25.5z" />
<glyph unicode=":" horiz-adv-x="344" d="M120.5 420.5q-18.5 17.5 -18.5 45.5q0 32 22 52.5t53 20.5t47 -18t16 -45q0 -33 -21.5 -53t-53.5 -20q-26 0 -44.5 17.5zM120.5 8q-18.5 18 -18.5 46q0 31 22 52t53 21q30 0 46.5 -18.5t16.5 -45.5q0 -33 -21.5 -53t-53.5 -20q-26 0 -44.5 18z" />
<glyph unicode=";" horiz-adv-x="344" d="M122 420.5q-19 17.5 -19 45.5q0 31 22.5 52t52.5 21q31 0 47.5 -18t16.5 -45q0 -33 -22 -53t-53 -20q-26 0 -45 17.5zM228 117.5q22 -32.5 22 -88.5q0 -57 -18 -110t-45 -90.5t-53 -52.5h-1l-34 24v11q20 16 40.5 69.5t20.5 101.5q0 15 -5.5 24.5t-17.5 22.5 q-14 15 -21 28t-7 35q0 26 16.5 42t41.5 16h5q34 0 56 -32.5z" />
<glyph unicode="&#x3c;" horiz-adv-x="669" d="M555 488l-379 -187l379 -187v-87l-473 246v55l473 247v-87z" />
<glyph unicode="=" horiz-adv-x="653" d="M552 402h-450v72h450v-72zM552 127h-450v72h450v-72z" />
<glyph unicode="&#x3e;" horiz-adv-x="669" d="M114 27v87l379 187l-379 187v87l473 -247v-55z" />
<glyph unicode="?" horiz-adv-x="487" d="M149.5 312q-8.5 36 -10.5 67q0 39 29 68t87 67q40 27 61.5 43.5t36.5 36.5q0 6 2.5 30t2.5 34q0 45 -26.5 86t-78 66t-120.5 25q-43 0 -76 -15l-15 62q17 10 51 17t71 7q146 0 217 -68t71 -176q0 -47 -19.5 -83t-47 -60.5t-69.5 -54.5q-32 -23 -49.5 -38t-26.5 -32 q-1 -8 -1 -27q0 -79 5 -125h-71q-15 34 -23.5 70zM139 7.5q-19 17.5 -19 45.5q0 30 23 51t53 21q31 0 48.5 -18.5t17.5 -44.5q0 -32 -22.5 -52t-55.5 -20q-26 0 -45 17.5z" />
<glyph unicode="@" horiz-adv-x="1078" d="M163.5 477.5q70.5 133.5 191.5 208t266 74.5q104 0 184.5 -42.5t126 -125.5t45.5 -202q0 -123 -48.5 -214t-115.5 -139t-117 -48q-27 0 -49 23.5t-23 63.5q-3 51 13 142q-35 -96 -87 -163.5t-107 -67.5q-34 0 -66 24t-51.5 69.5t-19.5 105.5q0 73 31.5 149.5t89.5 127 t134 50.5q27 0 59.5 -7.5t57.5 -21.5q9 27 23 24q18 -5 36 -12l21 -7q-47 -220 -53 -324q-1 -12 -1 -32q0 -36 6.5 -54t16.5 -18q40 0 83 38.5t72.5 108t29.5 158.5q0 116 -44.5 189.5t-117.5 107t-162 33.5q-115 0 -211 -63t-153 -178t-57 -263q0 -123 41.5 -209t113 -130 t162.5 -44q56 0 116 14t89 33l17 -37q-39 -32 -103.5 -52t-135.5 -20q-114 0 -198.5 52.5t-130 149t-45.5 226.5q0 169 70.5 302.5zM412 114.5q17 -42.5 52 -42.5q23 0 52.5 31.5t58 83.5t48.5 112q23 66 30 112q-13 14 -50.5 25.5t-62.5 11.5q-45 0 -78 -34t-50 -89 t-17 -115q0 -53 17 -95.5z" />
<glyph unicode="A" horiz-adv-x="692" d="M290 749h110l243 -690l62 -10v-49h-264v49l83 10l-47 148h-292l-47 -148l86 -10v-49h-237v49l62 10zM353 589l-25 88l-24 -90l-101 -321h255z" />
<glyph unicode="B" horiz-adv-x="685" d="M129 681l-82 12v50h135q34 0 86 4q48 4 71 4q138 0 197.5 -43t59.5 -126q0 -71 -41 -122t-112 -64q96 2 151 -45t55 -128q0 -101 -71.5 -165t-236.5 -64q-36 0 -69 3q-78 3 -93 3h-133v49l83 10v622zM292 414h55q70 0 106 39t36 111q0 70 -36 102.5t-123 32.5 q-36 0 -74 -4l-21 -2v-278q14 -1 57 -1zM339 48q101 0 146.5 41.5t45.5 119.5q0 77 -39.5 112t-127.5 35q-102 0 -129 -2v-298q23 -8 104 -8z" />
<glyph unicode="C" horiz-adv-x="653" d="M190.5 36.5q-77.5 47.5 -117.5 133.5t-40 202q0 112 47 198t129 133.5t184 47.5q77 0 185 -24l33 -6l-10 -180h-67l-25 127q-14 12 -48.5 20.5t-84.5 8.5q-64 0 -114 -36.5t-78.5 -107.5t-28.5 -170q0 -94 25 -171t76 -122.5t126 -45.5q53 0 81.5 9t48.5 26l42 98l63 -8 l-24 -142q-21 -1 -62 -14q-36 -11 -69.5 -17.5t-83.5 -6.5q-110 0 -187.5 47.5z" />
<glyph unicode="D" horiz-adv-x="758" d="M129 681l-78 12v50h131q31 0 89 4t87 4q186 0 276.5 -93.5t90.5 -262.5q0 -118 -46.5 -209.5t-130.5 -142.5t-193 -51q-24 0 -82 4q-60 4 -90 4h-137v49l83 10v622zM325 48h30q75 1 132.5 38t89.5 110.5t32 178.5q0 158 -68.5 240t-206.5 82q-29 0 -69 -4q-17 -3 -30 -3 v-634q35 -8 90 -8z" />
<glyph unicode="E" horiz-adv-x="651" d="M129 681l-82 12v50h509l14 -155h-57l-29 97l-248 6v-282l167 3l14 83h55v-230h-55l-14 86l-167 3v-298l282 10l53 126l59 -18l-29 -174h-555v49l83 10v622z" />
<glyph unicode="F" horiz-adv-x="619" d="M129 681l-86 12v50h535l10 -170h-65l-30 111l-257 7v-290l181 3l17 83h53v-234h-52l-18 87l-181 4v-285l156 -10v-49h-343v49l80 10v622z" />
<glyph unicode="G" horiz-adv-x="740" d="M203.5 37q-78.5 48 -119.5 132.5t-41 191.5q0 123 48.5 211t134.5 133.5t196 45.5q101 0 233 -31l-9 -173h-71l-24 120q-14 11 -47.5 21t-89.5 10q-73 0 -129 -36t-87.5 -107t-31.5 -172q0 -93 25.5 -170t78 -123.5t128.5 -46.5q48 0 91 11.5t66 30.5v223l-126 10v59h292 v-59l-58 -9v-269q-22 -1 -73 -17q-52 -16 -98 -25t-102 -9q-108 0 -186.5 48z" />
<glyph unicode="H" horiz-adv-x="828" d="M131 681l-79 12v50h272v-50l-86 -12v-269h352v269l-81 12v50h268v-50l-79 -12v-622l79 -10v-49h-269v49l82 10v291h-352v-291l87 -10v-49h-275v49l81 10v622z" />
<glyph unicode="I" horiz-adv-x="403" d="M147 681l-93 12v50h294v-50l-93 -12v-622l93 -11v-48h-293v49l92 10v622z" />
<glyph unicode="J" horiz-adv-x="381" d="M73 -90.5q35 33.5 51 82.5q13 38 17 88.5t4 155.5v444l-96 13v50h294v-50l-91 -13v-405v-47q0 -79 -2 -127t-9 -82q-18 -80 -79 -132t-141 -66l-27 42q44 13 79 46.5z" />
<glyph unicode="K" horiz-adv-x="726" d="M540.5 40.5q-26.5 40.5 -75.5 127.5q-6 11 -33.5 59.5t-51 83.5t-41.5 55l-101 -114v-193l91 -10v-49h-281v49l83 10v622l-82 12v50h272v-50l-83 -12v-350l294 350l-84 12v50h247v-50l-77 -12l-216 -242q35 -30 74.5 -87t96.5 -147q49 -77 71.5 -109.5t35.5 -35.5l47 -11 v-49h-143q-17 0 -43.5 40.5z" />
<glyph unicode="L" horiz-adv-x="634" d="M131 681l-81 12v50h287v-50l-99 -12v-622l258 9l59 168l61 -9l-35 -227h-533v49l83 10v622z" />
<glyph unicode="M" horiz-adv-x="990" d="M164 681l-109 12v50h265l141 -450l33 -127l30 127l140 450h263v-50l-110 -12l80 -621l87 -11v-49h-288v49l91 10l-45 449l-21 193l-42 -144l-167 -523h-65l-162 479l-59 189l-18 -194l-40 -449l99 -10v-49h-261v49l85 10z" />
<glyph unicode="N" horiz-adv-x="799" d="M130 681l-80 12v50h186l333 -488l56 -106v532l-87 12v50h236v-50l-80 -12v-681h-79l-340 499l-77 132v-572l95 -10v-49h-243v49l80 11v621z" />
<glyph unicode="O" horiz-adv-x="722" d="M176.5 36q-70.5 47 -106.5 132.5t-36 198.5q0 115 43.5 202t119.5 134.5t171 47.5q156 0 238.5 -98.5t82.5 -272.5q0 -117 -44.5 -205.5t-122 -137t-173.5 -48.5q-102 0 -172.5 47zM209 614.5q-56 -84.5 -56 -247.5q0 -150 54.5 -237.5t152.5 -87.5q96 0 152.5 87 t56.5 250q0 151 -54 235.5t-153 84.5q-97 0 -153 -84.5z" />
<glyph unicode="P" horiz-adv-x="649" d="M131 681l-78 12v50h133q36 0 71 3q54 4 102 4q145 -1 205 -54t60 -160q0 -80 -37 -139t-102.5 -90t-150.5 -31q-29 0 -59 1.5t-37 2.5v-220l137 -11v-49h-327v49l83 10v622zM334 330q79 0 128.5 48t49.5 157q0 86 -43 123.5t-134 37.5q-32 0 -68 -4q-22 -2 -29 -2v-355 q28 -5 96 -5z" />
<glyph unicode="Q" horiz-adv-x="727" d="M724 -183q-40 15 -72.5 36.5t-77.5 56.5q-49 38 -82.5 59t-68.5 28q-37 -8 -72 -8q-101 0 -172 47t-107 132.5t-36 198.5q0 115 43.5 202t119.5 134.5t172 47.5q156 0 238 -98.5t82 -272.5q0 -129 -53.5 -223t-144.5 -137q45 -4 87 -22t99 -51q63 -34 102 -50t80 -16 q17 0 31 2l12 -43q-18 -19 -43 -28.5t-52 -9.5q-45 0 -85 15zM515 128.5q56 86.5 56 250.5q0 151 -54 235.5t-152 84.5q-97 0 -153.5 -84t-56.5 -248q0 -150 54.5 -237.5t152.5 -87.5q97 0 153 86.5z" />
<glyph unicode="R" horiz-adv-x="704" d="M46 49l83 10v622l-78 13v49h131q28 0 76 4q50 4 78 4q147 0 209.5 -47.5t62.5 -149.5q0 -71 -39.5 -130t-108.5 -80q32 -17 59.5 -58.5t67.5 -115.5q31 -56 47.5 -82t31.5 -29l39 -10v-49h-138q-16 0 -36 34.5t-53 106.5q-36 79 -62.5 125.5t-52.5 59.5q-107 0 -127 1 v-268l99 -10v-49h-289v49zM456 422q37 42 37 125q0 73 -37.5 111.5t-129.5 38.5q-32 0 -64 -4q-20 -2 -26 -2v-310q15 -1 62 -1h57q64 0 101 42z" />
<glyph unicode="S" horiz-adv-x="594" d="M197 -2q-41 9 -90 24q-30 11 -45 12l8 181h64l17 -130q17 -16 55.5 -28.5t84.5 -12.5q76 0 115.5 34t39.5 94q0 39 -21.5 67t-57 48t-97.5 47q-56 25 -97.5 51t-72 69.5t-30.5 104.5q0 55 29.5 98.5t85 68.5t129.5 25q46 0 81.5 -7t80.5 -19q20 -7 34 -9l-6 -168h-61 l-20 123q-10 10 -41.5 19t-68.5 9q-69 0 -104.5 -29t-35.5 -84q0 -40 21.5 -67t53.5 -46t102 -52q65 -31 106 -56t70.5 -65.5t29.5 -96.5q0 -53 -29.5 -102t-90 -80.5t-146.5 -31.5q-52 0 -93 9z" />
<glyph unicode="T" horiz-adv-x="692" d="M290 690l-172 -6l-35 -209h-66l17 268h623l12 -268h-63l-33 209l-173 6v-631l142 -10v-49h-382v49l130 10v631z" />
<glyph unicode="U" horiz-adv-x="740" d="M164.5 70.5q-69.5 78.5 -69.5 243.5v367l-71 12v50h267v-50l-85 -13v-377q0 -136 48.5 -196t139.5 -60t136.5 64t45.5 186v383l-84 13v50h233v-50l-73 -12v-379q0 -156 -74 -233t-197 -77q-147 0 -216.5 78.5z" />
<glyph unicode="V" horiz-adv-x="670" d="M-16 743h266v-50l-89 -12l165 -469l37 -122l33 124l149 467l-79 12v50h223v-50l-64 -12l-237 -689h-87l-256 689l-61 12v50z" />
<glyph unicode="W" horiz-adv-x="1000" d="M-19 743h271v-50l-94 -12l137 -466l29 -139l33 139l115 381l-27 85l-71 12v50h281v-50l-98 -12l135 -466l34 -150l28 150l126 466l-99 12v50h238v-50l-66 -12l-199 -686h-98l-153 501l-148 -501h-95l-213 685l-66 13v50z" />
<glyph unicode="X" horiz-adv-x="712" d="M303 371l-208 309l-74 13v50h298v-50l-95 -13l156 -253l156 254l-88 12v50h246v-50l-80 -13l-203 -290l223 -331l76 -10v-49h-297v49l93 10l-170 273l-163 -273l100 -10v-49h-266v49l85 10z" />
<glyph unicode="Y" horiz-adv-x="644" d="M273 289l-225 391l-60 13v50h261v-50l-79 -12l141 -268l32 -76l36 76l133 268l-82 12v50h228v-50l-65 -12l-209 -391v-230l112 -11v-49h-332v49l109 10v230z" />
<glyph unicode="Z" horiz-adv-x="654" d="M480 695l-296 -11l-51 -133l-57 8l22 187h485l23 -43l-380 -576l-67 -74l346 18l52 157l59 -13l-23 -215h-532l-27 44l388 580z" />
<glyph unicode="[" horiz-adv-x="428" d="M105.5 768.5q9.5 20.5 29 28t55.5 7.5q70 0 148 -18v-42h-151v-820h151v-42q-73 -19 -148 -19q-36 0 -55.5 7.5t-29 28t-9.5 61.5v747q0 41 9.5 61.5z" />
<glyph unicode="\" horiz-adv-x="431" d="M302 -177l-272 958h85l273 -958h-86z" />
<glyph unicode="]" horiz-adv-x="428" d="M322.5 -101.5q-9.5 -20.5 -29 -28t-55.5 -7.5q-77 0 -148 19v42h150v820h-150v42q78 18 148 18q36 0 55.5 -7.5t29 -28t9.5 -61.5v-747q0 -41 -9.5 -61.5z" />
<glyph unicode="^" horiz-adv-x="666" d="M579 133h-83l-164 508l-163 -508h-83l201 615h90z" />
<glyph unicode="_" horiz-adv-x="835" d="M-10 -183v61h855v-61h-855z" />
<glyph unicode="`" horiz-adv-x="333" d="M85 726q-71 61 -92 95l72 63l162 -198l-38 -33h-1q-32 12 -103 73z" />
<glyph unicode="a" horiz-adv-x="561" d="M139 288.5q94 44.5 238 47.5v28q0 47 -10 74t-34.5 39.5t-69.5 12.5q-51 0 -91.5 -14.5t-80.5 -35.5l-25 52q13 11 48 29t81 32t92 14q71 0 112.5 -19.5t59.5 -62.5t18 -115v-321h59v-44q-20 -5 -50.5 -10t-53.5 -5q-28 0 -38 8.5t-10 37.5v33q-30 -30 -73.5 -55 t-98.5 -25q-72 0 -119.5 41.5t-47.5 119.5q0 94 94 138.5zM315 73q34 16 62 38v172q-109 0 -164.5 -33.5t-55.5 -87.5t26.5 -79.5t71.5 -25.5q26 0 60 16z" />
<glyph unicode="b" horiz-adv-x="607" d="M-2 800l160 19h2l23 -15v-301q30 29 71.5 48t92.5 19q60 0 109.5 -29t79 -90t29.5 -154q0 -86 -35.5 -156t-101.5 -111t-153 -41q-69 0 -126 13.5t-69 24.5v720l-82 11v42zM235.5 481.5q-32.5 -17.5 -52.5 -39.5v-368q6 -14 34.5 -22.5t64.5 -8.5q77 0 124 62t47 181 q0 107 -41 160t-106 53q-38 0 -70.5 -17.5z" />
<glyph unicode="c" horiz-adv-x="513" d="M65.5 424q32.5 67 96 106.5t152.5 39.5q43 0 74 -8t74 -22l-4 -154h-65l-22 102q-6 28 -76 28t-110.5 -56.5t-40.5 -160.5q0 -118 45.5 -179.5t118.5 -61.5q42 0 79.5 13t64.5 31l19 -40q-27 -28 -79.5 -50.5t-106.5 -22.5q-82 0 -138.5 37t-85 101.5t-28.5 146.5 q0 83 32.5 150z" />
<glyph unicode="d" horiz-adv-x="621" d="M151 19q-50 30 -79.5 92t-29.5 153q0 85 35 155t100.5 110.5t154.5 40.5q51 0 93 -11v187l-102 12v43l180 18h3l22 -16v-752h58v-46q-32 -7 -55.5 -11t-49.5 -4t-37 9t-11 38v32q-28 -34 -73.5 -57t-98.5 -23q-60 0 -110 30zM374 77.5q34 17.5 51 40.5v366 q-8 12 -37.5 21.5t-62.5 9.5q-78 0 -124.5 -59.5t-46.5 -183.5q0 -108 41 -160t106 -52q39 0 73 17.5z" />
<glyph unicode="e" horiz-adv-x="544" d="M106.5 68q-63.5 79 -63.5 211q0 87 33 153t92.5 102t135.5 36q93 0 144.5 -51.5t54.5 -147.5q0 -61 -7 -93h-344q2 -99 46 -159.5t125 -60.5q40 0 83.5 14.5t67.5 34.5l19 -44q-29 -30 -86 -52t-116 -22q-121 0 -184.5 79zM393 331q3 21 3 43q-1 65 -27.5 102.5 t-83.5 37.5q-58 0 -92.5 -42t-39.5 -141h240z" />
<glyph unicode="f" horiz-adv-x="400" d="M125 489h-94v46l94 19v47q0 62 32.5 114t85 82.5t111.5 30.5q34 0 59 -9v-100q-9 8 -35.5 15.5t-58.5 7.5q-47 0 -68.5 -24.5t-21.5 -84.5v-79h138v-65h-138v-432l111 -8v-49h-300v49l85 9v431z" />
<glyph unicode="g" horiz-adv-x="607" d="M98.5 -229.5q-57.5 40.5 -57.5 111.5q0 44 27.5 81t65.5 56q-46 26 -46 84q0 36 21 68t55 49q-50 22 -76.5 63t-26.5 97q0 58 32.5 101t86 66t113.5 23q101 0 158 -42q15 15 46 29t66 14h34v-88h-110q24 -37 24 -86q0 -59 -29.5 -104.5t-82 -70.5t-118.5 -25q-43 0 -77 9 q-14 -14 -23 -31t-9 -33q0 -36 24 -49.5t86 -13.5h113q97 0 144 -37t47 -105q0 -57 -41 -104.5t-110.5 -75t-150.5 -27.5q-128 0 -185.5 40.5zM405 387q0 67 -29.5 98.5t-88.5 31.5q-55 0 -87 -30.5t-32 -97.5q0 -63 30.5 -100t92.5 -37q114 0 114 135zM385.5 -197.5 q43.5 14.5 70.5 43t27 66.5q0 45 -24 65.5t-93 20.5h-118q-40 0 -63 5q-41 -45 -41 -101t34 -85t115 -29q49 0 92.5 14.5z" />
<glyph unicode="h" horiz-adv-x="659" d="M99 746l-84 11v43l163 19h2l22 -15v-232l-4 -85q32 29 88 55t113 26q63 0 98 -24t49 -73.5t14 -133.5v-279l70 -9v-49h-239v49l65 9v280q0 59 -8 92.5t-30 50t-66 16.5q-36 0 -77 -18t-72 -42v-379l69 -9v-49h-233v49l60 8v689z" />
<glyph unicode="i" horiz-adv-x="333" d="M115 673q-16 18 -16 46q0 32 19.5 53t53.5 21t50 -18t16 -46q0 -34 -19.5 -54t-54.5 -20h-1q-32 0 -48 18zM123 478l-76 18v53l155 19h2l23 -18v-493l80 -8v-49h-265v49l81 9v420z" />
<glyph unicode="j" horiz-adv-x="317" d="M115 673q-16 18 -16 46q0 32 19.5 53t53.5 21t50 -18t16 -46q0 -34 -19.5 -54t-55.5 -20h-1q-31 0 -47 18zM42 549l155 19h2l22 -18v-543q0 -83 -24 -139.5t-65 -83.5t-92 -27q-39 0 -46 4l-5 47q8 -1 23.5 2t31.5 9q41 14 57.5 67.5t16.5 143.5v445l-76 18v56z" />
<glyph unicode="k" horiz-adv-x="600" d="M98 746l-78 11v43l159 19h1l22 -15v-489l-2 -59l231 239l-75 14v46h242v-46l-79 -14l-147 -143l190 -295l62 -8v-49h-243v49l63 9l-141 232l-103 -102l2 -51v-79l71 -9v-49h-238v49l63 9v688z" />
<glyph unicode="l" horiz-adv-x="333" d="M118 746l-81 11v43l161 19h2l22 -15v-747l85 -8v-49h-270v49l81 9v688z" />
<glyph unicode="m" horiz-adv-x="995" d="M44 49l61 9v420l-72 18v54l143 18l18 -13l6 -40l-1 -32q35 32 95.5 58.5t108.5 26.5q54 0 87 -18t50 -56q32 27 89.5 50.5t107.5 23.5q62 0 97 -23.5t49.5 -73t14.5 -132.5v-281l72 -9v-49h-238v49l62 9v278q0 58 -8.5 92.5t-32 51.5t-67.5 17q-33 0 -70 -14.5t-63 -34.5 q9 -39 9 -111v-279l71 -9v-49h-242v49l66 9v280q0 60 -7.5 93t-28.5 49.5t-64 16.5q-36 0 -76.5 -18t-70.5 -42v-379l67 -9v-49h-233v49z" />
<glyph unicode="n" horiz-adv-x="664" d="M105 478l-72 18v54l143 18h3l21 -18v-42l-1 -24q36 32 95 58t113 26q63 0 97.5 -24t48.5 -73.5t14 -133.5v-280l70 -7v-50h-237v49l62 8v281q0 59 -8 92.5t-30 50t-64 16.5q-36 0 -77 -18t-73 -42v-379l68 -9v-49h-236v49l63 9v420z" />
<glyph unicode="o" horiz-adv-x="608" d="M82 435q37 66 97.5 100.5t129.5 34.5q126 0 189.5 -80t63.5 -210q0 -91 -37 -157t-97.5 -100t-129.5 -34q-126 0 -189.5 80t-63.5 210q0 90 37 156zM410 103q37 57 37 169q0 111 -34 176t-109 65q-69 0 -106.5 -57t-37.5 -169q0 -111 35 -176t109 -65q69 0 106 57z" />
<glyph unicode="p" horiz-adv-x="628" d="M551 141.5q-35 -70.5 -100 -111.5t-152 -41q-24 0 -52 4t-45 10l3 -84v-101l104 -11v-49h-279v49l72 11v660l-73 18v54l142 18h2l21 -18v-59q30 33 74.5 56t99.5 23q59 0 108.5 -29t79.5 -90t30 -154q0 -85 -35 -155.5zM256 484q-33 -16 -51 -35v-377q7 -12 35.5 -21.5 t62.5 -9.5q77 0 124.5 61t47.5 184q0 108 -41.5 161t-106.5 53q-38 0 -71 -16z" />
<glyph unicode="q" horiz-adv-x="609" d="M313 -195l111 11v161l3 82q-30 -30 -72.5 -50t-93.5 -20q-59 0 -109 30.5t-80 93t-30 154.5q0 85 35 154t100.5 109t154.5 40q58 0 122 -18l55 15l19 -17v-735l69 -10v-47h-284v47zM373 72.5q32 16.5 51 36.5v379q-6 12 -36 21.5t-64 9.5q-76 0 -122.5 -60.5 t-46.5 -184.5q0 -107 41.5 -162.5t106.5 -55.5q38 0 70 16.5z" />
<glyph unicode="r" horiz-adv-x="458" d="M47 49l75 6v423l-72 18v54l138 18h2l22 -18v-18l-3 -78h3q10 17 36 44t67 49.5t89 22.5q20 0 33 -5v-112q-7 5 -22.5 9.5t-34.5 4.5q-83 0 -154 -51v-360l127 -8v-48h-306v49z" />
<glyph unicode="s" horiz-adv-x="505" d="M138 80q10 -15 42.5 -27t68.5 -12q57 0 84 22t27 61q0 27 -17 47t-47.5 35.5t-87.5 37.5q-77 29 -112.5 69.5t-35.5 106.5q0 44 26.5 77t73 51.5t103.5 18.5q46 0 80.5 -7t55.5 -14t28 -9v-124h-61l-20 74q-6 12 -32 20.5t-58 8.5q-45 0 -72.5 -20t-27.5 -54 q0 -30 14.5 -49.5t36.5 -31.5t60 -28l20 -8q56 -22 91 -42t58.5 -52.5t23.5 -79.5q0 -74 -57.5 -118t-157.5 -44q-49 0 -102.5 13.5t-87.5 27.5v128h65z" />
<glyph unicode="t" horiz-adv-x="407" d="M131 16q-28 26 -28 89v384h-72v45q5 1 28 7t31 11q16 9 25 36q8 19 19 61t13 50h59l2 -144h167v-66h-167v-307q0 -57 3.5 -80t15 -30t39.5 -7q27 0 59.5 7t50.5 15l15 -45q-24 -18 -77.5 -35t-97.5 -17q-57 0 -85 26z" />
<glyph unicode="u" horiz-adv-x="632" d="M458.5 2q-13.5 11 -13.5 36v34q-33 -33 -82.5 -58t-99.5 -25q-93 0 -132 50t-39 165v290l-56 16v44l140 13h1l19 -12v-343q0 -58 8.5 -90.5t30 -48t62.5 -15.5q40 0 75 17t61 40v379l-72 16v44l152 13h1l23 -12v-504h60l-1 -45q-28 -7 -48.5 -11t-47.5 -4q-28 0 -41.5 11 z" />
<glyph unicode="v" horiz-adv-x="568" d="M-1 555h232v-47l-71 -13l101 -288l42 -127l36 123l101 292l-68 13v47h203v-47l-52 -13l-193 -503h-85l-201 503l-45 13v47z" />
<glyph unicode="w" horiz-adv-x="839" d="M-7 555h233v-47l-76 -12l83 -294l29 -127l29 128l96 352h98l99 -352l29 -129l32 128l81 293l-76 13v47h203v-47l-53 -13l-155 -503h-94l-106 353l-26 124l-21 -124l-101 -353h-93l-160 504l-51 12v47z" />
<glyph unicode="x" horiz-adv-x="595" d="M244 277l-169 219l-56 12v47h254v-47l-70 -12l91 -129l28 -43l27 43l95 129l-73 12v47h211v-47l-60 -12l-166 -207l177 -232l58 -9v-48h-257v48l66 10l-91 135l-30 45l-27 -44l-96 -136l83 -10v-48h-233v48l67 10z" />
<glyph unicode="y" horiz-adv-x="572" d="M92.5 -247q-16.5 2 -23.5 6v87q6 -4 23.5 -6t33.5 -2q48 0 84.5 33.5t70.5 128.5h-48l-190 495l-46 13v47h241v-47l-77 -12l98 -295l46 -146l43 147l89 294l-67 12v47h201v-47l-50 -12q-147 -450 -173 -511q-34 -86 -62 -134.5t-66 -74t-94 -25.5q-17 0 -33.5 2z" />
<glyph unicode="z" horiz-adv-x="554" d="M146 491l-18 -95h-61v159h425l20 -43l-294 -394l-69 -62l269 9l42 112l58 -7l-18 -170h-449l-21 44l299 390l66 64z" />
<glyph unicode="{" horiz-adv-x="508" d="M187.5 -105q-41.5 32 -41.5 94q0 33 6.5 62t19.5 67q11 33 17 57t6 49q0 26 -10.5 43t-40.5 26t-87 9v74q58 0 87.5 7t40 21.5t10.5 39.5t-5.5 48.5t-17.5 58.5q-13 38 -19.5 66.5t-6.5 61.5q0 63 41.5 95t130.5 32q27 0 52.5 -4.5t60.5 -13.5v-46q-7 1 -31.5 2t-38.5 1 q-114 0 -114 -83q0 -33 17 -103q18 -78 18 -117q0 -46 -39 -71.5t-99 -34.5q59 -8 98.5 -36t39.5 -74q0 -24 -4.5 -50.5t-13.5 -64.5q-17 -70 -17 -104q0 -83 114 -83q15 0 35.5 1t34.5 2v-46q-35 -9 -60.5 -13.5t-52.5 -4.5q-89 0 -130.5 32z" />
<glyph unicode="|" horiz-adv-x="422" d="M252 -91h-82v960h82v-960z" />
<glyph unicode="}" horiz-adv-x="508" d="M137.5 -132.5q-25.5 4.5 -60.5 13.5v46q14 -1 34.5 -2t35.5 -1q114 0 114 83q0 34 -17 104q-9 38 -13.5 64.5t-4.5 50.5q0 46 39.5 74t98.5 36q-60 9 -99 34.5t-39 71.5q0 39 18 117q17 70 17 103q0 83 -114 83q-14 0 -38.5 -1t-31.5 -2v46q35 9 60.5 13.5t52.5 4.5 q88 0 130 -32t42 -95q0 -33 -6.5 -61.5t-19.5 -66.5q-11 -33 -17 -57t-6 -49q0 -26 10 -40.5t39.5 -21.5t87.5 -7v-74q-56 0 -86 -9.5t-40.5 -26t-10.5 -42.5t6 -50t17 -57q13 -38 19.5 -66.5t6.5 -61.5q0 -126 -172 -126q-27 0 -52.5 4.5z" />
<glyph unicode="~" horiz-adv-x="692" d="M167 351q42 28 92 28q32 0 56 -12t54 -35q23 -18 39 -27t35 -9q59 0 102 57l39 -42q-21 -38 -62 -65.5t-90 -27.5q-31 0 -54 12t-51 34q-23 19 -40 28.5t-38 9.5q-58 0 -104 -57l-38 43q18 35 60 63z" />
<glyph unicode="&#xa1;" horiz-adv-x="354" d="M224 587q-23 -21 -52 -21q-32 0 -49 18t-17 45q0 32 22.5 52t54.5 20q26 0 45 -17.5t19 -45.5q0 -30 -23 -51zM148 453h66l29 -634h-122z" />
<glyph unicode="&#xa2;" horiz-adv-x="582" d="M98.5 416q28.5 64 84.5 104.5t135 47.5l8 115h65l-9 -114q43 -4 77 -15.5t41 -13.5l-6 -154h-64l-22 102q-6 28 -76 28q-69 0 -109.5 -56.5t-40.5 -160.5q0 -118 45 -179.5t118 -61.5q42 0 80 13t64 31l19 -40q-24 -26 -71 -47.5t-98 -25.5l-6 -108h-64l6 112 q-99 15 -152 92t-53 190q0 77 28.5 141z" />
<glyph unicode="&#xa3;" horiz-adv-x="743" d="M193 499q0 74 33 131.5t89.5 89t124.5 31.5q57 0 104 -16.5t76 -41.5l-52 -76q-6 11 -28.5 28.5t-55 31t-69.5 13.5q-113 0 -113 -167v-93h153v-55h-153v-107q0 -58 -16 -98t-44 -70q36 -3 101 -17q41 -9 71.5 -14t60.5 -5q61 0 84.5 23t23.5 75q0 28 -7 54.5t-18 36.5 h110q8 -10 14 -31t6 -49q0 -47 -26 -88.5t-72 -66.5t-104 -25q-44 0 -80.5 9t-86.5 26q-41 14 -68 20.5t-55 7.5q-49 -56 -96 -56q-20 0 -35.5 10t-15.5 31q0 19 16.5 36t43.5 26.5t57 8.5q11 17 19 59.5t8 82.5v121h-99v55h99v69z" />
<glyph unicode="&#xa5;" horiz-adv-x="769" d="M121 685l-64 13v45h265v-45l-73 -11l128 -214l30 -62l35 63l116 213l-76 11v45h230v-45l-71 -13l-174 -275h198v-53h-225v-128h225v-54h-225v-119l114 -11v-45h-324v45l111 11v119h-224v54h224v128h-224v53h189z" />
<glyph unicode="&#xa7;" horiz-adv-x="672" d="M186 -2q16 -16 56.5 -29t85.5 -13q75 0 112.5 25t37.5 65q0 34 -24 58t-59 40.5t-101 41.5q-94 37 -148.5 87t-54.5 134q0 83 73 135q-54 52 -54 118q0 48 29.5 85t83.5 57t125 20q44 0 81.5 -7.5t79.5 -19.5q30 -9 33 -9l-6 -157h-60l-25 110q-7 8 -37.5 17t-69.5 9 q-68 0 -104 -22t-36 -63q0 -37 21 -61.5t49.5 -38.5t94.5 -41q68 -30 108 -51.5t74.5 -62t34.5 -96.5q0 -86 -73 -147q60 -50 60 -111q0 -44 -26.5 -82.5t-83 -63t-140.5 -24.5q-51 0 -92 9t-94 25q-35 11 -44 12l11 170h65zM370 261q5 -2 36 -15.5t59 -30.5q33 35 33 79 q0 54 -43 88t-133 71q-38 15 -64.5 27.5t-51.5 28.5q-17 -16 -25.5 -33.5t-8.5 -40.5q0 -56 43.5 -91.5t133.5 -73.5z" />
<glyph unicode="&#xa8;" horiz-adv-x="500" d="M88.5 683q-15.5 18 -15.5 45q0 31 17 52.5t50 21.5q28 0 44 -18.5t16 -45.5q0 -32 -18 -52.5t-52 -20.5q-26 0 -41.5 18zM315.5 683.5q-15.5 18.5 -15.5 44.5q0 31 17.5 52.5t48.5 21.5q29 0 45 -19t16 -45q0 -32 -18 -52.5t-53 -20.5q-25 0 -40.5 18.5z" />
<glyph unicode="&#xa9;" horiz-adv-x="1040" d="M151.5 705q56.5 98 154 155t214.5 57t214.5 -57t154 -155t56.5 -215t-56.5 -215.5t-154 -156t-214.5 -57.5t-214.5 57.5t-154 156t-56.5 215.5t56.5 215zM202.5 301.5q48.5 -86.5 132.5 -137.5t185 -51t185 51t132 137.5t48 188.5q0 101 -48 187.5t-132 137.5t-185 51 q-102 0 -186 -51t-132 -137.5t-48 -187.5q0 -102 48.5 -188.5zM361 316q-56 64 -56 170q0 68 32 124t88.5 88.5t126.5 32.5q35 0 73.5 -8.5t51.5 -21.5v-110h-53l-20 64q-23 18 -82 18q-61 0 -96 -46t-35 -125q0 -81 44.5 -130.5t116.5 -49.5q32 0 60 12t48 32l23 -40 q-24 -29 -67.5 -51.5t-92.5 -22.5q-106 0 -162 64z" />
<glyph unicode="&#xaa;" horiz-adv-x="518" d="M99 379.5q-40 34.5 -40 90.5q0 72 71 107.5t216 40.5v17q0 61 -22 84t-80 23q-38 0 -78.5 -12t-71.5 -27l-26 49q32 20 89 37.5t105 17.5q89 0 132.5 -37t43.5 -125v-244h56v-43q-48 -12 -88 -12q-29 0 -42.5 8.5t-13.5 29.5v33q-25 -30 -64.5 -51t-88.5 -21 q-58 0 -98 34.5zM299 419.5q32 17.5 47 34.5v122q-100 -2 -144.5 -26t-44.5 -74q0 -33 21.5 -53.5t57.5 -20.5q31 0 63 17.5z" />
<glyph unicode="&#xab;" horiz-adv-x="670" d="M324 520l-157 -221l157 -213l-50 -34l-218 212v69l218 218zM604 520l-171 -221l171 -213l-51 -34l-231 212v69l231 218z" />
<glyph unicode="&#xac;" horiz-adv-x="688" d="M586 89h-79v198h-404v65h483v-263z" />
<glyph unicode="&#xad;" horiz-adv-x="628" d="M516 284h-404v73h404v-73z" />
<glyph unicode="&#xae;" horiz-adv-x="1040" d="M151.5 705q56.5 98 154 155t214.5 57t214.5 -57t154 -155t56.5 -215t-56.5 -215.5t-154 -156t-214.5 -57.5t-214.5 57.5t-154 156t-56.5 215.5t56.5 215zM202.5 301.5q48.5 -86.5 132.5 -137.5t185 -51t185 51t132 137.5t48 188.5q0 101 -48 187.5t-132 137.5t-185 51 q-102 0 -186 -51t-132 -137.5t-48 -187.5q0 -102 48.5 -188.5zM371 669l-45 10v44h79l71 1q32 2 53 2q88 0 134 -32.5t46 -90.5q0 -55 -28.5 -93t-79.5 -49q31 -14 46 -36t30 -58q14 -34 26.5 -50t40.5 -18v-46h-75q-30 0 -43.5 21t-26.5 64q-12 43 -26.5 69t-44.5 37l-78 1 v-142l51 -10v-40h-175v40l45 12v364zM531 497q37 0 63 27.5t26 65.5q0 47 -25.5 67t-78.5 20q-33 0 -66 -5v-172q16 -3 81 -3z" />
<glyph unicode="&#xaf;" horiz-adv-x="333" d="M303 697h-275v71h275v-71z" />
<glyph unicode="&#xb0;" horiz-adv-x="463" d="M145.5 483.5q-39.5 23.5 -63 62.5t-23.5 85q0 48 23.5 87t63 61.5t85.5 22.5q49 0 89 -23t62.5 -62.5t22.5 -85.5q0 -48 -23.5 -87t-63 -61.5t-87.5 -22.5q-46 0 -85.5 23.5zM306.5 554q28.5 30 28.5 77q0 44 -30 76t-74 32q-45 0 -74 -31t-29 -77q0 -44 30.5 -75.5 t73.5 -31.5q46 0 74.5 30z" />
<glyph unicode="&#xb1;" horiz-adv-x="661" d="M295 362l-3 85v111h77v-111l-5 -85l76 5h116v-75h-116l-76 3l5 -82v-111h-77v111l3 82l-87 -3h-103v75h103zM549 0h-438v71h438v-71z" />
<glyph unicode="&#xb4;" horiz-adv-x="333" d="M102 686l162 198l72 -63q-22 -34 -92 -93.5t-105 -74.5z" />
<glyph unicode="&#xb5;" horiz-adv-x="683" d="M120 494l-59 21v38l144 12l19 -11v-392q0 -20 13.5 -44t40.5 -41t65 -17q47 0 78 22.5t43 47.5v364l-68 21l-1 38l158 12l15 -11v-504h59v-46q-18 -7 -45.5 -12t-53.5 -5q-48 0 -48 43v46q-18 -37 -56 -61.5t-84 -24.5q-37 0 -70.5 13.5t-52.5 37.5v-223h-96z" />
<glyph unicode="&#xb6;" horiz-adv-x="731" d="M266 397q-107 0 -160.5 57.5t-53.5 164.5q0 63 31 112t91.5 76.5t146.5 27.5q65 0 122 -5q66 -4 115 -4h105v-51l-85 -10v-707l73 -10v-48h-163v764q-69 6 -109 6l-23 -1v-769h-188v48l98 10v339z" />
<glyph unicode="&#xb7;" horiz-adv-x="175" d="M37 332q-19 18 -19 46q0 31 22.5 52t52.5 21q31 0 47.5 -18.5t16.5 -45.5q0 -32 -22 -52.5t-53 -20.5q-26 0 -45 18z" />
<glyph unicode="&#xb8;" horiz-adv-x="300" d="M40 -237q-20 4 -34 9l1 69q10 -4 23 -6t22 -2q40 0 57 13.5t17 57.5q0 26 -11.5 54.5t-22.5 42.5l31 5l19 -5q21 -19 43 -58t22 -80q0 -56 -32.5 -80t-97.5 -24q-17 0 -37 4z" />
<glyph unicode="&#xba;" horiz-adv-x="515" d="M106.5 403q-57.5 58 -57.5 169q0 75 31.5 126.5t80.5 76.5t102 25q96 0 149.5 -57.5t53.5 -164.5q0 -79 -31 -131.5t-79 -77t-100 -24.5q-92 0 -149.5 58zM316 407q24 14 37 52t13 107q0 88 -27.5 137t-78.5 49t-80.5 -41.5t-29.5 -129.5t30 -138t75 -50q37 0 61 14z" />
<glyph unicode="&#xbb;" horiz-adv-x="670" d="M348 333v-69l-232 -212l-50 34l171 213l-171 221l50 31zM614 333v-69l-217 -212l-51 34l157 213l-157 221l51 31z" />
<glyph unicode="&#xbf;" horiz-adv-x="487" d="M347 685.5q19 -17.5 19 -44.5q0 -31 -23 -52t-52 -21q-32 0 -49 18.5t-17 44.5q0 33 22 52.5t55 19.5q26 0 45 -17.5zM348 314q0 -39 -29.5 -68t-87.5 -67q-37 -24 -59.5 -41.5t-37.5 -37.5q-2 -10 -4 -29t-2 -35q0 -46 26.5 -86.5t78 -65.5t121.5 -25q44 0 75 14l16 -62 q-17 -10 -51 -17t-71 -7q-146 0 -217 68t-71 176q0 47 19.5 83t46 60.5t69.5 55.5q31 22 49 37.5t27 32.5q2 8 2 14l-1 12q0 89 -4 126h70q29 -64 35 -138z" />
<glyph unicode="&#xc0;" horiz-adv-x="692" d="M290 749h110l243 -690l62 -10v-49h-264v49l83 10l-47 148h-292l-47 -148l86 -10v-49h-237v49l62 10zM353 589l-25 88l-24 -90l-101 -321h255zM278.5 856.5q-51.5 39.5 -77.5 73.5l80 51l135 -152l-48 -30q-38 18 -89.5 57.5z" />
<glyph unicode="&#xc1;" horiz-adv-x="692" d="M290 749h110l243 -690l62 -10v-49h-264v49l83 10l-47 148h-292l-47 -148l86 -10v-49h-237v49l62 10zM353 589l-25 88l-24 -90l-101 -321h255zM268 829l134 152l81 -51q-28 -35 -77.5 -74t-87.5 -57z" />
<glyph unicode="&#xc2;" horiz-adv-x="692" d="M290 749h110l243 -690l62 -10v-49h-264v49l83 10l-47 148h-292l-47 -148l86 -10v-49h-237v49l62 10zM353 589l-25 88l-24 -90l-101 -321h255zM384 982l135 -144l-41 -29l-134 103l-136 -103l-39 28l135 145h80z" />
<glyph unicode="&#xc3;" horiz-adv-x="692" d="M290 749h110l243 -690l62 -10v-49h-264v49l83 10l-47 148h-292l-47 -148l86 -10v-49h-237v49l62 10zM353 589l-25 88l-24 -90l-101 -321h255zM371 825.5q-19 10.5 -44 30.5q-17 15 -29.5 22.5t-27.5 7.5q-25 0 -37.5 -15.5t-22.5 -43.5l-47 27q14 45 42 73t71 28 q31 0 50.5 -11t43.5 -33q17 -15 28 -22t24 -7q22 0 35.5 17t23.5 44l47 -27q-15 -47 -40 -74t-69 -27q-29 0 -48 10.5z" />
<glyph unicode="&#xc4;" horiz-adv-x="692" d="M290 749h110l243 -690l62 -10v-49h-264v49l83 10l-47 148h-292l-47 -148l86 -10v-49h-237v49l62 10zM353 589l-25 88l-24 -90l-101 -321h255zM173 837.5q-15 18.5 -15 44.5q0 32 16.5 53t48.5 21h1q28 0 44 -19t16 -45q0 -32 -18 -52.5t-52 -20.5h-1q-25 0 -40 18.5z M417.5 837.5q-15.5 18.5 -15.5 44.5q0 31 17 52.5t48 21.5h1q28 0 43.5 -19t15.5 -45q0 -32 -17.5 -52.5t-51.5 -20.5q-25 0 -40.5 18.5z" />
<glyph unicode="&#xc5;" horiz-adv-x="692" d="M-13 49l62 10l238 682q-53 11 -79.5 41.5t-26.5 73.5q0 61 48.5 94t117.5 33q77 0 118 -33t41 -89q0 -46 -28.5 -76t-75.5 -42l241 -684l62 -10v-49h-264v49l83 10l-47 148h-292l-47 -148l86 -10v-49h-237v49zM275 802.5q23 -23.5 69 -23.5q90 0 90 76q0 37 -21.5 60 t-67.5 23t-69.5 -19.5t-23.5 -57.5q0 -35 23 -58.5zM458 266l-105 323l-25 88l-24 -90l-101 -321h255z" />
<glyph unicode="&#xc6;" horiz-adv-x="921" d="M401 216h-259l-63 -157l77 -11v-48h-244v48l73 11l275 623l-133 12v49h699l16 -158h-57l-31 102l-246 5v-283l164 3l13 83h56v-230h-56l-13 87l-164 2v-299l281 11l60 126l61 -17l-37 -175h-558v48l86 11v157zM401 688h-66l-55 -131l-114 -282h235v413z" />
<glyph unicode="&#xc7;" horiz-adv-x="653" d="M190.5 36.5q-77.5 47.5 -117.5 133.5t-40 202q0 112 47 198t129 133.5t184 47.5q77 0 185 -24l33 -6l-10 -180h-67l-25 127q-14 12 -48.5 20.5t-84.5 8.5q-64 0 -114 -36.5t-78.5 -107.5t-28.5 -170q0 -94 25 -171t76 -122.5t126 -45.5q53 0 81.5 9t48.5 26l42 98l63 -8 l-24 -142q-21 -1 -62 -14q-36 -11 -69.5 -17.5t-83.5 -6.5q-110 0 -187.5 47.5zM288 -237q-20 4 -34 9l1 69q10 -4 23 -6t22 -2q40 0 57 13.5t17 57.5q0 26 -11.5 54.5t-22.5 42.5l31 5l19 -5q21 -19 43 -58t22 -80q0 -56 -32.5 -80t-97.5 -24q-17 0 -37 4z" />
<glyph unicode="&#xc8;" horiz-adv-x="651" d="M129 681l-82 12v50h509l14 -155h-57l-29 97l-248 6v-282l167 3l14 83h55v-230h-55l-14 86l-167 3v-298l282 10l53 126l59 -18l-29 -174h-555v49l83 10v622zM276.5 856.5q-51.5 39.5 -77.5 73.5l80 51l135 -152l-48 -30q-38 18 -89.5 57.5z" />
<glyph unicode="&#xc9;" horiz-adv-x="651" d="M129 681l-82 12v50h509l14 -155h-57l-29 97l-248 6v-282l167 3l14 83h55v-230h-55l-14 86l-167 3v-298l282 10l53 126l59 -18l-29 -174h-555v49l83 10v622zM266 829l134 152l81 -51q-28 -35 -77.5 -74t-87.5 -57z" />
<glyph unicode="&#xca;" horiz-adv-x="651" d="M129 681l-82 12v50h509l14 -155h-57l-29 97l-248 6v-282l167 3l14 83h55v-230h-55l-14 86l-167 3v-298l282 10l53 126l59 -18l-29 -174h-555v49l83 10v622zM382 982l135 -144l-41 -29l-134 103l-136 -103l-39 28l135 145h80z" />
<glyph unicode="&#xcb;" horiz-adv-x="651" d="M129 681l-82 12v50h509l14 -155h-57l-29 97l-248 6v-282l167 3l14 83h55v-230h-55l-14 86l-167 3v-298l282 10l53 126l59 -18l-29 -174h-555v49l83 10v622zM171 837.5q-15 18.5 -15 44.5q0 32 16.5 53t48.5 21h1q28 0 44 -19t16 -45q0 -32 -18 -52.5t-52 -20.5h-1 q-25 0 -40 18.5zM415.5 837.5q-15.5 18.5 -15.5 44.5q0 31 17 52.5t48 21.5h1q28 0 43.5 -19t15.5 -45q0 -32 -17.5 -52.5t-51.5 -20.5q-25 0 -40.5 18.5z" />
<glyph unicode="&#xcc;" horiz-adv-x="403" d="M147 681l-93 12v50h294v-50l-93 -12v-622l93 -11v-48h-293v49l92 10v622zM137.5 856.5q-51.5 39.5 -77.5 73.5l80 51l135 -152l-48 -30q-38 18 -89.5 57.5z" />
<glyph unicode="&#xcd;" horiz-adv-x="403" d="M147 681l-93 12v50h294v-50l-93 -12v-622l93 -11v-48h-293v49l92 10v622zM127 829l134 152l81 -51q-28 -35 -77.5 -74t-87.5 -57z" />
<glyph unicode="&#xce;" horiz-adv-x="403" d="M147 681l-93 12v50h294v-50l-93 -12v-622l93 -11v-48h-293v49l92 10v622zM243 982l135 -144l-41 -29l-134 103l-136 -103l-39 28l135 145h80z" />
<glyph unicode="&#xcf;" horiz-adv-x="403" d="M147 681l-93 12v50h294v-50l-93 -12v-622l93 -11v-48h-293v49l92 10v622zM32 837.5q-15 18.5 -15 44.5q0 32 16.5 53t48.5 21h1q28 0 44 -19t16 -45q0 -32 -18 -52.5t-52 -20.5h-1q-25 0 -40 18.5zM276.5 837.5q-15.5 18.5 -15.5 44.5q0 31 17 52.5t48 21.5h1 q28 0 43.5 -19t15.5 -45q0 -32 -17.5 -52.5t-51.5 -20.5q-25 0 -40.5 18.5z" />
<glyph unicode="&#xd0;" horiz-adv-x="758" d="M129 681l-78 12v50h131q31 0 89 4t87 4q186 0 276.5 -93.5t90.5 -262.5q0 -118 -46.5 -209.5t-130.5 -142.5t-193 -51q-24 0 -82 4q-60 4 -90 4h-137v49l83 10v302h-75v52h75v268zM410 361h-175v-305q35 -8 90 -8h30q75 1 132.5 38t89.5 110.5t32 178.5q0 158 -68.5 240 t-206.5 82q-29 0 -69 -4q-17 -3 -30 -3v-277h175v-52z" />
<glyph unicode="&#xd1;" horiz-adv-x="799" d="M130 681l-80 12v50h186l333 -488l56 -106v532l-87 12v50h236v-50l-80 -12v-681h-79l-340 499l-77 132v-572l95 -10v-49h-243v49l80 11v621zM440 825.5q-19 10.5 -44 30.5q-17 15 -29.5 22.5t-27.5 7.5q-25 0 -37.5 -15.5t-22.5 -43.5l-47 27q14 45 42 73t71 28 q31 0 50.5 -11t43.5 -33q17 -15 28 -22t24 -7q22 0 35.5 17t23.5 44l47 -27q-15 -47 -40 -74t-69 -27q-29 0 -48 10.5z" />
<glyph unicode="&#xd2;" horiz-adv-x="722" d="M176.5 36q-70.5 47 -106.5 132.5t-36 198.5q0 115 43.5 202t119.5 134.5t171 47.5q156 0 238.5 -98.5t82.5 -272.5q0 -117 -44.5 -205.5t-122 -137t-173.5 -48.5q-102 0 -172.5 47zM209 614.5q-56 -84.5 -56 -247.5q0 -150 54.5 -237.5t152.5 -87.5q96 0 152.5 87 t56.5 250q0 151 -54 235.5t-153 84.5q-97 0 -153 -84.5zM298.5 856.5q-51.5 39.5 -77.5 73.5l80 51l135 -152l-48 -30q-38 18 -89.5 57.5z" />
<glyph unicode="&#xd3;" horiz-adv-x="722" d="M176.5 36q-70.5 47 -106.5 132.5t-36 198.5q0 115 43.5 202t119.5 134.5t171 47.5q156 0 238.5 -98.5t82.5 -272.5q0 -117 -44.5 -205.5t-122 -137t-173.5 -48.5q-102 0 -172.5 47zM209 614.5q-56 -84.5 -56 -247.5q0 -150 54.5 -237.5t152.5 -87.5q96 0 152.5 87 t56.5 250q0 151 -54 235.5t-153 84.5q-97 0 -153 -84.5zM288 829l134 152l81 -51q-28 -35 -77.5 -74t-87.5 -57z" />
<glyph unicode="&#xd4;" horiz-adv-x="722" d="M176.5 36q-70.5 47 -106.5 132.5t-36 198.5q0 115 43.5 202t119.5 134.5t171 47.5q156 0 238.5 -98.5t82.5 -272.5q0 -117 -44.5 -205.5t-122 -137t-173.5 -48.5q-102 0 -172.5 47zM209 614.5q-56 -84.5 -56 -247.5q0 -150 54.5 -237.5t152.5 -87.5q96 0 152.5 87 t56.5 250q0 151 -54 235.5t-153 84.5q-97 0 -153 -84.5zM404 982l135 -144l-41 -29l-134 103l-136 -103l-39 28l135 145h80z" />
<glyph unicode="&#xd5;" horiz-adv-x="722" d="M176.5 36q-70.5 47 -106.5 132.5t-36 198.5q0 115 43.5 202t119.5 134.5t171 47.5q156 0 238.5 -98.5t82.5 -272.5q0 -117 -44.5 -205.5t-122 -137t-173.5 -48.5q-102 0 -172.5 47zM209 614.5q-56 -84.5 -56 -247.5q0 -150 54.5 -237.5t152.5 -87.5q96 0 152.5 87 t56.5 250q0 151 -54 235.5t-153 84.5q-97 0 -153 -84.5zM391 825.5q-19 10.5 -44 30.5q-17 15 -29.5 22.5t-27.5 7.5q-25 0 -37.5 -15.5t-22.5 -43.5l-47 27q14 45 42 73t71 28q31 0 50.5 -11t43.5 -33q17 -15 28 -22t24 -7q22 0 35.5 17t23.5 44l47 -27q-15 -47 -40 -74 t-69 -27q-29 0 -48 10.5z" />
<glyph unicode="&#xd6;" horiz-adv-x="722" d="M176.5 36q-70.5 47 -106.5 132.5t-36 198.5q0 115 43.5 202t119.5 134.5t171 47.5q156 0 238.5 -98.5t82.5 -272.5q0 -117 -44.5 -205.5t-122 -137t-173.5 -48.5q-102 0 -172.5 47zM209 614.5q-56 -84.5 -56 -247.5q0 -150 54.5 -237.5t152.5 -87.5q96 0 152.5 87 t56.5 250q0 151 -54 235.5t-153 84.5q-97 0 -153 -84.5zM193 837.5q-15 18.5 -15 44.5q0 32 16.5 53t48.5 21h1q28 0 44 -19t16 -45q0 -32 -18 -52.5t-52 -20.5h-1q-25 0 -40 18.5zM437.5 837.5q-15.5 18.5 -15.5 44.5q0 31 17 52.5t48 21.5h1q28 0 43.5 -19t15.5 -45 q0 -32 -17.5 -52.5t-51.5 -20.5q-25 0 -40.5 18.5z" />
<glyph unicode="&#xd8;" horiz-adv-x="723" d="M76.5 154.5q-42.5 89.5 -42.5 212.5q0 115 43.5 202t119.5 134.5t171 47.5q59 0 110 -15l40 103l47 -16l-42 -105q82 -41 124 -128t42 -210q0 -117 -44.5 -205.5t-122.5 -137t-176 -48.5q-48 0 -100 15l-45 -108l-49 16l48 111q-81 42 -123.5 131.5zM209.5 615 q-56.5 -84 -56.5 -248q0 -88 21.5 -156.5t62.5 -107.5l216 571q-39 25 -90 25q-97 0 -153.5 -84zM548.5 533q-21.5 67 -62.5 107l-216 -571q39 -27 91 -27q63 0 110 38t73 114t26 185q0 87 -21.5 154z" />
<glyph unicode="&#xd9;" horiz-adv-x="740" d="M164.5 70.5q-69.5 78.5 -69.5 243.5v367l-71 12v50h267v-50l-85 -13v-377q0 -136 48.5 -196t139.5 -60t136.5 64t45.5 186v383l-84 13v50h233v-50l-73 -12v-379q0 -156 -74 -233t-197 -77q-147 0 -216.5 78.5zM326.5 856.5q-51.5 39.5 -77.5 73.5l80 51l135 -152l-48 -30 q-38 18 -89.5 57.5z" />
<glyph unicode="&#xda;" horiz-adv-x="740" d="M164.5 70.5q-69.5 78.5 -69.5 243.5v367l-71 12v50h267v-50l-85 -13v-377q0 -136 48.5 -196t139.5 -60t136.5 64t45.5 186v383l-84 13v50h233v-50l-73 -12v-379q0 -156 -74 -233t-197 -77q-147 0 -216.5 78.5zM316 829l134 152l81 -51q-28 -35 -77.5 -74t-87.5 -57z" />
<glyph unicode="&#xdb;" horiz-adv-x="740" d="M164.5 70.5q-69.5 78.5 -69.5 243.5v367l-71 12v50h267v-50l-85 -13v-377q0 -136 48.5 -196t139.5 -60t136.5 64t45.5 186v383l-84 13v50h233v-50l-73 -12v-379q0 -156 -74 -233t-197 -77q-147 0 -216.5 78.5zM432 982l135 -144l-41 -29l-134 103l-136 -103l-39 28 l135 145h80z" />
<glyph unicode="&#xdc;" horiz-adv-x="740" d="M164.5 70.5q-69.5 78.5 -69.5 243.5v367l-71 12v50h267v-50l-85 -13v-377q0 -136 48.5 -196t139.5 -60t136.5 64t45.5 186v383l-84 13v50h233v-50l-73 -12v-379q0 -156 -74 -233t-197 -77q-147 0 -216.5 78.5zM221 837.5q-15 18.5 -15 44.5q0 32 16.5 53t48.5 21h1 q28 0 44 -19t16 -45q0 -32 -18 -52.5t-52 -20.5h-1q-25 0 -40 18.5zM465.5 837.5q-15.5 18.5 -15.5 44.5q0 31 17 52.5t48 21.5h1q28 0 43.5 -19t15.5 -45q0 -32 -17.5 -52.5t-51.5 -20.5q-25 0 -40.5 18.5z" />
<glyph unicode="&#xdd;" horiz-adv-x="644" d="M273 289l-225 391l-60 13v50h261v-50l-79 -12l141 -268l32 -76l36 76l133 268l-82 12v50h228v-50l-65 -12l-209 -391v-230l112 -11v-49h-332v49l109 10v230zM254 829l134 152l81 -51q-28 -35 -77.5 -74t-87.5 -57z" />
<glyph unicode="&#xde;" horiz-adv-x="645" d="M128 681l-82 13v50h276l1 -50l-88 -13v-110l33 3q10 1 48.5 4t73.5 3q109 0 168 -49.5t59 -147.5q0 -111 -68 -166.5t-191 -55.5q-75 0 -123 5v-108l107 -11v-48h-297v48l83 11v622zM458.5 253.5q42.5 40.5 42.5 124.5q0 70 -37.5 109t-116.5 39q-49 0 -112 -9v-300 q34 -4 69 -4h42q70 0 112.5 40.5z" />
<glyph unicode="&#xdf;" horiz-adv-x="635" d="M91 466q0 98 38 170t102.5 110t143.5 38t126.5 -33.5t47.5 -99.5q0 -42 -16.5 -69t-48.5 -60q-24 -24 -35.5 -41t-11.5 -39q0 -25 17 -46t53 -51q34 -30 55 -52.5t36.5 -55t15.5 -72.5q0 -85 -62 -130.5t-166 -45.5q-18 0 -43.5 3.5t-40.5 7.5v71q43 -17 91 -17 q54 0 81.5 25t27.5 66t-20 69.5t-60 65.5q-39 36 -59 65t-20 68q0 24 11 43t35 48q28 33 43 60t15 64q0 98 -95 98q-73 0 -114 -62t-41 -182v-482h-172v49l66 9v408z" />
<glyph unicode="&#xe0;" horiz-adv-x="561" d="M139 288.5q94 44.5 238 47.5v28q0 47 -10 74t-34.5 39.5t-69.5 12.5q-51 0 -91.5 -14.5t-80.5 -35.5l-25 52q13 11 48 29t81 32t92 14q71 0 112.5 -19.5t59.5 -62.5t18 -115v-321h59v-44q-20 -5 -50.5 -10t-53.5 -5q-28 0 -38 8.5t-10 37.5v33q-30 -30 -73.5 -55 t-98.5 -25q-72 0 -119.5 41.5t-47.5 119.5q0 94 94 138.5zM315 73q34 16 62 38v172q-109 0 -164.5 -33.5t-55.5 -87.5t26.5 -79.5t71.5 -25.5q26 0 60 16zM240 693q-42 32 -81 69t-52 59l72 63l161 -198l-37 -33h-1q-20 8 -62 40z" />
<glyph unicode="&#xe1;" horiz-adv-x="561" d="M139 288.5q94 44.5 238 47.5v28q0 47 -10 74t-34.5 39.5t-69.5 12.5q-51 0 -91.5 -14.5t-80.5 -35.5l-25 52q13 11 48 29t81 32t92 14q71 0 112.5 -19.5t59.5 -62.5t18 -115v-321h59v-44q-20 -5 -50.5 -10t-53.5 -5q-28 0 -38 8.5t-10 37.5v33q-30 -30 -73.5 -55 t-98.5 -25q-72 0 -119.5 41.5t-47.5 119.5q0 94 94 138.5zM315 73q34 16 62 38v172q-109 0 -164.5 -33.5t-55.5 -87.5t26.5 -79.5t71.5 -25.5q26 0 60 16zM195 686l160 199l76 -64q-21 -34 -90 -93t-107 -75z" />
<glyph unicode="&#xe2;" horiz-adv-x="561" d="M139 288.5q94 44.5 238 47.5v28q0 47 -10 74t-34.5 39.5t-69.5 12.5q-51 0 -91.5 -14.5t-80.5 -35.5l-25 52q13 11 48 29t81 32t92 14q71 0 112.5 -19.5t59.5 -62.5t18 -115v-321h59v-44q-20 -5 -50.5 -10t-53.5 -5q-28 0 -38 8.5t-10 37.5v33q-30 -30 -73.5 -55 t-98.5 -25q-72 0 -119.5 41.5t-47.5 119.5q0 94 94 138.5zM315 73q34 16 62 38v172q-109 0 -164.5 -33.5t-55.5 -87.5t26.5 -79.5t71.5 -25.5q26 0 60 16zM313 860l140 -195l-40 -28l-140 144l-145 -144l-38 27l143 196h80z" />
<glyph unicode="&#xe3;" horiz-adv-x="561" d="M139 288.5q94 44.5 238 47.5v28q0 47 -10 74t-34.5 39.5t-69.5 12.5q-51 0 -91.5 -14.5t-80.5 -35.5l-25 52q13 11 48 29t81 32t92 14q71 0 112.5 -19.5t59.5 -62.5t18 -115v-321h59v-44q-20 -5 -50.5 -10t-53.5 -5q-28 0 -38 8.5t-10 37.5v33q-30 -30 -73.5 -55 t-98.5 -25q-72 0 -119.5 41.5t-47.5 119.5q0 94 94 138.5zM315 73q34 16 62 38v172q-109 0 -164.5 -33.5t-55.5 -87.5t26.5 -79.5t71.5 -25.5q26 0 60 16zM122.5 774.5q31.5 30.5 79.5 30.5q30 0 50.5 -12t45.5 -35q19 -17 30.5 -24.5t25.5 -7.5q27 0 41.5 19t19.5 40 l51 -25q-11 -46 -40 -76t-76 -30q-29 0 -48.5 11.5t-44.5 34.5q-19 17 -31.5 25t-27.5 8q-25 0 -38.5 -13t-21 -27.5t-10.5 -19.5l-47 27q10 44 41.5 74.5z" />
<glyph unicode="&#xe4;" horiz-adv-x="561" d="M139 288.5q94 44.5 238 47.5v28q0 47 -10 74t-34.5 39.5t-69.5 12.5q-51 0 -91.5 -14.5t-80.5 -35.5l-25 52q13 11 48 29t81 32t92 14q71 0 112.5 -19.5t59.5 -62.5t18 -115v-321h59v-44q-20 -5 -50.5 -10t-53.5 -5q-28 0 -38 8.5t-10 37.5v33q-30 -30 -73.5 -55 t-98.5 -25q-72 0 -119.5 41.5t-47.5 119.5q0 94 94 138.5zM315 73q34 16 62 38v172q-109 0 -164.5 -33.5t-55.5 -87.5t26.5 -79.5t71.5 -25.5q26 0 60 16zM112.5 675q-15.5 18 -15.5 45q0 31 17 52.5t49 21.5q28 0 44 -19t16 -45q0 -32 -17 -52.5t-51 -20.5q-27 0 -42.5 18z M339.5 675.5q-15.5 18.5 -15.5 44.5q0 31 17 52.5t49 21.5q28 0 43.5 -19t15.5 -45q0 -32 -17 -52.5t-52 -20.5q-25 0 -40.5 18.5z" />
<glyph unicode="&#xe5;" horiz-adv-x="561" d="M139 288.5q94 44.5 238 47.5v28q0 47 -10 74t-34.5 39.5t-69.5 12.5q-51 0 -91.5 -14.5t-80.5 -35.5l-25 52q13 11 48 29t81 32t92 14q71 0 112.5 -19.5t59.5 -62.5t18 -115v-321h59v-44q-20 -5 -50.5 -10t-53.5 -5q-28 0 -38 8.5t-10 37.5v33q-30 -30 -73.5 -55 t-98.5 -25q-72 0 -119.5 41.5t-47.5 119.5q0 94 94 138.5zM315 73q34 16 62 38v172q-109 0 -164.5 -33.5t-55.5 -87.5t26.5 -79.5t71.5 -25.5q26 0 60 16zM151 678.5q-41 38.5 -41 99.5q0 42 24 72.5t63 46.5t82 16q74 0 115 -37t41 -97q0 -64 -47 -101.5t-116 -37.5 q-80 0 -121 38.5zM365 773q0 41 -22 66.5t-68 25.5q-45 0 -70 -22.5t-25 -62.5t24 -66.5t70 -26.5q91 0 91 86z" />
<glyph unicode="&#xe6;" horiz-adv-x="869" d="M89.5 29.5q-48.5 40.5 -48.5 118.5q0 94 93 139.5t236 48.5q0 67 -8 99t-31 44.5t-72 12.5q-50 0 -91.5 -14.5t-87.5 -38.5l-25 51q14 13 51.5 31.5t85 32t93.5 13.5q66 0 105 -17.5t57 -56.5q35 37 81.5 57t100.5 20q94 0 145.5 -51.5t54.5 -147.5q0 -61 -7 -93h-345 q2 -99 46 -159.5t125 -60.5q40 0 83.5 14.5t67.5 33.5l19 -43q-29 -30 -85.5 -52t-114.5 -22q-71 0 -122.5 28t-82.5 79q-29 -42 -82 -74.5t-121 -32.5q-72 0 -120.5 40.5zM719 331q1 13 1 43q0 65 -26.5 102.5t-82.5 37.5q-58 0 -93 -42t-40 -141h241zM335 82q39 25 57 57 q-23 65 -23 148q-105 -1 -159.5 -36t-54.5 -90q0 -54 26.5 -79t71.5 -25q43 0 82 25z" />
<glyph unicode="&#xe7;" horiz-adv-x="513" d="M65.5 424q32.5 67 96 106.5t152.5 39.5q43 0 74 -8t74 -22l-4 -154h-65l-22 102q-6 28 -76 28t-110.5 -56.5t-40.5 -160.5q0 -118 45.5 -179.5t118.5 -61.5q42 0 79.5 13t64.5 31l19 -40q-26 -27 -74 -48t-98 -24q21 -24 37.5 -57.5t16.5 -68.5q0 -56 -32.5 -80.5 t-97.5 -24.5q-17 0 -37 4t-34 9l1 69q10 -4 23 -6t22 -2q40 0 57 13.5t17 57.5q0 40 -28 88q-103 13 -157 90.5t-54 191.5q0 83 32.5 150z" />
<glyph unicode="&#xe8;" horiz-adv-x="544" d="M106.5 68q-63.5 79 -63.5 211q0 87 33 153t92.5 102t135.5 36q93 0 144.5 -51.5t54.5 -147.5q0 -61 -7 -93h-344q2 -99 46 -159.5t125 -60.5q40 0 83.5 14.5t67.5 34.5l19 -44q-29 -30 -86 -52t-116 -22q-121 0 -184.5 79zM393 331q3 21 3 43q-1 65 -27.5 102.5 t-83.5 37.5q-58 0 -92.5 -42t-39.5 -141h240zM259 693q-42 32 -81 69t-52 59l72 63l161 -198l-37 -33h-1q-20 8 -62 40z" />
<glyph unicode="&#xe9;" horiz-adv-x="544" d="M106.5 68q-63.5 79 -63.5 211q0 87 33 153t92.5 102t135.5 36q93 0 144.5 -51.5t54.5 -147.5q0 -61 -7 -93h-344q2 -99 46 -159.5t125 -60.5q40 0 83.5 14.5t67.5 34.5l19 -44q-29 -30 -86 -52t-116 -22q-121 0 -184.5 79zM393 331q3 21 3 43q-1 65 -27.5 102.5 t-83.5 37.5q-58 0 -92.5 -42t-39.5 -141h240zM214 686l160 199l76 -64q-21 -34 -90 -93t-107 -75z" />
<glyph unicode="&#xea;" horiz-adv-x="544" d="M106.5 68q-63.5 79 -63.5 211q0 87 33 153t92.5 102t135.5 36q93 0 144.5 -51.5t54.5 -147.5q0 -61 -7 -93h-344q2 -99 46 -159.5t125 -60.5q40 0 83.5 14.5t67.5 34.5l19 -44q-29 -30 -86 -52t-116 -22q-121 0 -184.5 79zM393 331q3 21 3 43q-1 65 -27.5 102.5 t-83.5 37.5q-58 0 -92.5 -42t-39.5 -141h240zM332 860l140 -195l-40 -28l-140 144l-145 -144l-38 27l143 196h80z" />
<glyph unicode="&#xeb;" horiz-adv-x="544" d="M106.5 68q-63.5 79 -63.5 211q0 87 33 153t92.5 102t135.5 36q93 0 144.5 -51.5t54.5 -147.5q0 -61 -7 -93h-344q2 -99 46 -159.5t125 -60.5q40 0 83.5 14.5t67.5 34.5l19 -44q-29 -30 -86 -52t-116 -22q-121 0 -184.5 79zM393 331q3 21 3 43q-1 65 -27.5 102.5 t-83.5 37.5q-58 0 -92.5 -42t-39.5 -141h240zM131.5 675q-15.5 18 -15.5 45q0 31 17 52.5t49 21.5q28 0 44 -19t16 -45q0 -32 -17 -52.5t-51 -20.5q-27 0 -42.5 18zM358.5 675.5q-15.5 18.5 -15.5 44.5q0 31 17 52.5t49 21.5q28 0 43.5 -19t15.5 -45q0 -32 -17 -52.5 t-52 -20.5q-25 0 -40.5 18.5z" />
<glyph unicode="&#xec;" horiz-adv-x="333" d="M123 478l-76 18v53l155 19h2l23 -18v-493l80 -8v-49h-265v49l81 9v420zM134 693q-42 32 -81 69t-52 59l72 63l161 -198l-37 -33h-1q-20 8 -62 40z" />
<glyph unicode="&#xed;" horiz-adv-x="333" d="M123 478l-76 18v53l155 19h2l23 -18v-493l80 -8v-49h-265v49l81 9v420zM89 686l160 199l76 -64q-21 -34 -90 -93t-107 -75z" />
<glyph unicode="&#xee;" horiz-adv-x="333" d="M123 478l-76 18v53l155 19h2l23 -18v-493l80 -8v-49h-265v49l81 9v420zM207 860l140 -195l-40 -28l-140 144l-145 -144l-38 27l143 196h80z" />
<glyph unicode="&#xef;" horiz-adv-x="333" d="M123 478l-76 18v53l155 19h2l23 -18v-493l80 -8v-49h-265v49l81 9v420zM6.5 675q-15.5 18 -15.5 45q0 31 17 52.5t49 21.5q28 0 44 -19t16 -45q0 -32 -17 -52.5t-51 -20.5q-27 0 -42.5 18zM233.5 675.5q-15.5 18.5 -15.5 44.5q0 31 17 52.5t49 21.5q28 0 43.5 -19 t15.5 -45q0 -32 -17 -52.5t-52 -20.5q-25 0 -40.5 18.5z" />
<glyph unicode="&#xf0;" horiz-adv-x="581" d="M103 63q-64 74 -64 198q0 99 35.5 169t94.5 105t127 35q56 0 98 -20q-22 56 -63 108t-97 88l-69 -86l-48 33l73 84q-27 17 -57 32t-51 20l20 49q66 -20 129 -52l64 78l45 -36l-60 -71q122 -83 192.5 -201.5t70.5 -270.5q0 -88 -25.5 -164t-81.5 -124t-144 -48 q-125 0 -189 74zM431 315q0 51 -6.5 92t-14.5 66q-13 17 -41.5 32t-69.5 15q-67 0 -106.5 -65.5t-39.5 -183.5q0 -99 34 -163.5t108 -64.5q136 0 136 272z" />
<glyph unicode="&#xf1;" horiz-adv-x="664" d="M105 478l-72 18v54l143 18h3l21 -18v-42l-1 -24q36 32 95 58t113 26q63 0 97.5 -24t48.5 -73.5t14 -133.5v-280l70 -7v-50h-237v49l62 8v281q0 59 -8 92.5t-30 50t-64 16.5q-36 0 -77 -18t-73 -42v-379l68 -9v-49h-236v49l63 9v420zM168.5 774.5q31.5 30.5 79.5 30.5 q30 0 50.5 -12t45.5 -35q19 -17 30.5 -24.5t25.5 -7.5q27 0 41.5 19t19.5 40l51 -25q-11 -46 -40 -76t-76 -30q-29 0 -48.5 11.5t-44.5 34.5q-19 17 -31.5 25t-27.5 8q-25 0 -38.5 -13t-21 -27.5t-10.5 -19.5l-47 27q10 44 41.5 74.5z" />
<glyph unicode="&#xf2;" horiz-adv-x="608" d="M82 435q37 66 97.5 100.5t129.5 34.5q126 0 189.5 -80t63.5 -210q0 -91 -37 -157t-97.5 -100t-129.5 -34q-126 0 -189.5 80t-63.5 210q0 90 37 156zM410 103q37 57 37 169q0 111 -34 176t-109 65q-69 0 -106.5 -57t-37.5 -169q0 -111 35 -176t109 -65q69 0 106 57z M272 693q-42 32 -81 69t-52 59l72 63l161 -198l-37 -33h-1q-20 8 -62 40z" />
<glyph unicode="&#xf3;" horiz-adv-x="608" d="M82 435q37 66 97.5 100.5t129.5 34.5q126 0 189.5 -80t63.5 -210q0 -91 -37 -157t-97.5 -100t-129.5 -34q-126 0 -189.5 80t-63.5 210q0 90 37 156zM410 103q37 57 37 169q0 111 -34 176t-109 65q-69 0 -106.5 -57t-37.5 -169q0 -111 35 -176t109 -65q69 0 106 57z M227 686l160 199l76 -64q-21 -34 -90 -93t-107 -75z" />
<glyph unicode="&#xf4;" horiz-adv-x="608" d="M82 435q37 66 97.5 100.5t129.5 34.5q126 0 189.5 -80t63.5 -210q0 -91 -37 -157t-97.5 -100t-129.5 -34q-126 0 -189.5 80t-63.5 210q0 90 37 156zM410 103q37 57 37 169q0 111 -34 176t-109 65q-69 0 -106.5 -57t-37.5 -169q0 -111 35 -176t109 -65q69 0 106 57z M345 860l140 -195l-40 -28l-140 144l-145 -144l-38 27l143 196h80z" />
<glyph unicode="&#xf5;" horiz-adv-x="608" d="M82 435q37 66 97.5 100.5t129.5 34.5q126 0 189.5 -80t63.5 -210q0 -91 -37 -157t-97.5 -100t-129.5 -34q-126 0 -189.5 80t-63.5 210q0 90 37 156zM410 103q37 57 37 169q0 111 -34 176t-109 65q-69 0 -106.5 -57t-37.5 -169q0 -111 35 -176t109 -65q69 0 106 57z M154.5 774.5q31.5 30.5 79.5 30.5q30 0 50.5 -12t45.5 -35q19 -17 30.5 -24.5t25.5 -7.5q27 0 41.5 19t19.5 40l51 -25q-11 -46 -40 -76t-76 -30q-29 0 -48.5 11.5t-44.5 34.5q-19 17 -31.5 25t-27.5 8q-25 0 -38.5 -13t-21 -27.5t-10.5 -19.5l-47 27q10 44 41.5 74.5z" />
<glyph unicode="&#xf6;" horiz-adv-x="608" d="M82 435q37 66 97.5 100.5t129.5 34.5q126 0 189.5 -80t63.5 -210q0 -91 -37 -157t-97.5 -100t-129.5 -34q-126 0 -189.5 80t-63.5 210q0 90 37 156zM410 103q37 57 37 169q0 111 -34 176t-109 65q-69 0 -106.5 -57t-37.5 -169q0 -111 35 -176t109 -65q69 0 106 57z M144.5 675q-15.5 18 -15.5 45q0 31 17 52.5t49 21.5q28 0 44 -19t16 -45q0 -32 -17 -52.5t-51 -20.5q-27 0 -42.5 18zM371.5 675.5q-15.5 18.5 -15.5 44.5q0 31 17 52.5t49 21.5q28 0 43.5 -19t15.5 -45q0 -32 -17 -52.5t-52 -20.5q-25 0 -40.5 18.5z" />
<glyph unicode="&#xf7;" horiz-adv-x="665" d="M291.5 479q-18.5 17 -18.5 44q0 29 22.5 49.5t50.5 20.5q31 0 47 -17.5t16 -44.5q0 -31 -21.5 -50t-52.5 -19q-25 0 -43.5 17zM560 285h-455v72h455v-72zM286.5 162.5q22.5 20.5 51.5 20.5q31 0 47 -17.5t16 -43.5q0 -31 -22 -50.5t-52 -19.5q-25 0 -44 17t-19 44 q0 29 22.5 49.5z" />
<glyph unicode="&#xf8;" horiz-adv-x="600" d="M78 435q37 66 97.5 100.5t129.5 34.5q41 0 74 -9l35 96l43 -11l-33 -100q67 -33 100.5 -102.5t33.5 -163.5q0 -91 -37 -157t-97.5 -100t-129.5 -34q-37 0 -71 8l-39 -103l-46 13l39 105q-68 33 -102 103t-34 164q0 90 37 156zM170 171q14 -51 42 -81l147 408 q-24 15 -59 15q-69 0 -106.5 -57t-37.5 -169q0 -65 14 -116zM406 103q37 57 37 169q0 135 -54 195l-148 -406q26 -15 59 -15q69 0 106 57z" />
<glyph unicode="&#xf9;" horiz-adv-x="632" d="M458.5 2q-13.5 11 -13.5 36v34q-33 -33 -82.5 -58t-99.5 -25q-93 0 -132 50t-39 165v290l-56 16v44l140 13h1l19 -12v-343q0 -58 8.5 -90.5t30 -48t62.5 -15.5q40 0 75 17t61 40v379l-72 16v44l152 13h1l23 -12v-504h60l-1 -45q-28 -7 -48.5 -11t-47.5 -4q-28 0 -41.5 11 zM270 693q-42 32 -81 69t-52 59l72 63l161 -198l-37 -33h-1q-20 8 -62 40z" />
<glyph unicode="&#xfa;" horiz-adv-x="632" d="M458.5 2q-13.5 11 -13.5 36v34q-33 -33 -82.5 -58t-99.5 -25q-93 0 -132 50t-39 165v290l-56 16v44l140 13h1l19 -12v-343q0 -58 8.5 -90.5t30 -48t62.5 -15.5q40 0 75 17t61 40v379l-72 16v44l152 13h1l23 -12v-504h60l-1 -45q-28 -7 -48.5 -11t-47.5 -4q-28 0 -41.5 11 zM225 686l160 199l76 -64q-21 -34 -90 -93t-107 -75z" />
<glyph unicode="&#xfb;" horiz-adv-x="632" d="M458.5 2q-13.5 11 -13.5 36v34q-33 -33 -82.5 -58t-99.5 -25q-93 0 -132 50t-39 165v290l-56 16v44l140 13h1l19 -12v-343q0 -58 8.5 -90.5t30 -48t62.5 -15.5q40 0 75 17t61 40v379l-72 16v44l152 13h1l23 -12v-504h60l-1 -45q-28 -7 -48.5 -11t-47.5 -4q-28 0 -41.5 11 zM343 860l140 -195l-40 -28l-140 144l-145 -144l-38 27l143 196h80z" />
<glyph unicode="&#xfc;" horiz-adv-x="632" d="M458.5 2q-13.5 11 -13.5 36v34q-33 -33 -82.5 -58t-99.5 -25q-93 0 -132 50t-39 165v290l-56 16v44l140 13h1l19 -12v-343q0 -58 8.5 -90.5t30 -48t62.5 -15.5q40 0 75 17t61 40v379l-72 16v44l152 13h1l23 -12v-504h60l-1 -45q-28 -7 -48.5 -11t-47.5 -4q-28 0 -41.5 11 zM142.5 675q-15.5 18 -15.5 45q0 31 17 52.5t49 21.5q28 0 44 -19t16 -45q0 -32 -17 -52.5t-51 -20.5q-27 0 -42.5 18zM369.5 675.5q-15.5 18.5 -15.5 44.5q0 31 17 52.5t49 21.5q28 0 43.5 -19t15.5 -45q0 -32 -17 -52.5t-52 -20.5q-25 0 -40.5 18.5z" />
<glyph unicode="&#xfd;" horiz-adv-x="572" d="M92.5 -247q-16.5 2 -23.5 6v87q6 -4 23.5 -6t33.5 -2q48 0 84.5 33.5t70.5 128.5h-48l-190 495l-46 13v47h241v-47l-77 -12l98 -295l46 -146l43 147l89 294l-67 12v47h201v-47l-50 -12q-147 -450 -173 -511q-34 -86 -62 -134.5t-66 -74t-94 -25.5q-17 0 -33.5 2zM222 686 l160 199l76 -64q-21 -34 -90 -93t-107 -75z" />
<glyph unicode="&#xfe;" horiz-adv-x="608" d="M160 819h2l23 -15v-301q28 28 70.5 47.5t92.5 19.5q60 0 109.5 -29t79 -90t29.5 -154q0 -86 -35.5 -156t-101 -111t-152.5 -41q-46 0 -95 9l2 -64l1 -119l109 -12v-45h-286v45l73 12v932l-82 11v42zM237 481q-33 -18 -52 -39v-368q6 -14 34.5 -22.5t63.5 -8.5 q78 0 124.5 62.5t46.5 184.5q0 105 -41 157t-106 52q-37 0 -70 -18z" />
<glyph unicode="&#xff;" horiz-adv-x="572" d="M92.5 -247q-16.5 2 -23.5 6v87q6 -4 23.5 -6t33.5 -2q48 0 84.5 33.5t70.5 128.5h-48l-190 495l-46 13v47h241v-47l-77 -12l98 -295l46 -146l43 147l89 294l-67 12v47h201v-47l-50 -12q-147 -450 -173 -511q-34 -86 -62 -134.5t-66 -74t-94 -25.5q-17 0 -33.5 2z M139.5 675q-15.5 18 -15.5 45q0 31 17 52.5t49 21.5q28 0 44 -19t16 -45q0 -32 -17 -52.5t-51 -20.5q-27 0 -42.5 18zM366.5 675.5q-15.5 18.5 -15.5 44.5q0 31 17 52.5t49 21.5q28 0 43.5 -19t15.5 -45q0 -32 -17 -52.5t-52 -20.5q-25 0 -40.5 18.5z" />
<glyph unicode="&#x131;" horiz-adv-x="333" d="M123 478l-76 18v53l155 19h2l23 -18v-493l80 -8v-49h-265v49l81 9v420z" />
<glyph unicode="&#x152;" horiz-adv-x="1031" d="M352 -8q-101 0 -172.5 47t-108.5 132t-37 197q0 117 45 204.5t123.5 135t176.5 47.5q64 0 119 -25v13h428l14 -158h-57l-28 98l-250 7v-280l168 3l14 82h57v-230h-57l-14 87l-168 3v-300l286 11l62 125l56 -16l-36 -175h-475v29q-69 -37 -146 -37zM498 117v524 q-22 32 -54.5 47t-79.5 15q-99 0 -156 -87t-57 -248q0 -95 25 -168.5t73 -114.5t114 -41q84 0 135 73z" />
<glyph unicode="&#x153;" horiz-adv-x="951" d="M106.5 67q-64.5 78 -64.5 212q0 89 37 155.5t98 101t131 34.5q69 0 119.5 -27t79.5 -77q34 49 86.5 76.5t116.5 27.5q93 0 144.5 -51.5t54.5 -147.5q1 -59 -6 -93h-344q2 -99 45.5 -159.5t124.5 -60.5q40 0 83 14.5t69 33.5l19 -43q-30 -30 -87 -52t-114 -22 q-70 0 -121 28t-82 80q-34 -50 -86 -79t-114 -29q-125 0 -189.5 78zM800 331q2 28 2 43q0 65 -26.5 102.5t-83.5 37.5q-58 0 -93 -42t-40 -141h241zM407 102.5q37 55.5 37 170.5q0 113 -35 176.5t-108 63.5q-70 0 -107 -57t-37 -169q0 -117 36 -178.5t108 -61.5 q69 0 106 55.5z" />
<glyph unicode="&#x178;" horiz-adv-x="644" d="M273 289l-225 391l-60 13v50h261v-50l-79 -12l141 -268l32 -76l36 76l133 268l-82 12v50h228v-50l-65 -12l-209 -391v-230l112 -11v-49h-332v49l109 10v230zM159 837.5q-15 18.5 -15 44.5q0 32 16.5 53t48.5 21h1q28 0 44 -19t16 -45q0 -32 -18 -52.5t-52 -20.5h-1 q-25 0 -40 18.5zM403.5 837.5q-15.5 18.5 -15.5 44.5q0 31 17 52.5t48 21.5h1q28 0 43.5 -19t15.5 -45q0 -32 -17.5 -52.5t-51.5 -20.5q-25 0 -40.5 18.5z" />
<glyph unicode="&#x18f;" horiz-adv-x="665" d="M171 23q-58 34 -91.5 100t-35.5 160q0 77 7 105h472q-4 95 -31 164.5t-73.5 107t-106.5 37.5q-62 0 -97 -16t-61 -42l-18 -77l-71 1l5 149q23 1 67 13q49 12 91 19t100 7q91 0 160 -46t107 -131t38 -197q0 -115 -42.5 -203.5t-117.5 -136.5t-168 -48q-76 0 -134 34z M467 119.5q53 68.5 56 210.5h-366q-3 -18 -3 -54q0 -56 18 -107.5t57 -84.5t97 -33q88 0 141 68.5z" />
<glyph unicode="&#x192;" horiz-adv-x="521" d="M81 530l103 24l5 40q6 71 38 123t80 79t99 27q52 0 76 -9l-10 -85q-8 6 -28.5 11t-51.5 5q-44 0 -70 -27t-32 -96l-8 -68h151l-5 -69h-152l-57 -659h-99l56 659h-99z" />
<glyph unicode="&#x259;" horiz-adv-x="544" d="M437.5 487q63.5 -79 63.5 -211q0 -87 -33 -153t-92.5 -102t-135.5 -36q-93 0 -144.5 51.5t-54.5 147.5q0 61 7 93h344q-2 99 -46 159.5t-125 60.5q-40 0 -83.5 -14.5t-67.5 -34.5l-19 44q29 30 86 52t116 22q121 0 184.5 -79zM151 224q-3 -21 -3 -43q1 -65 27.5 -102.5 t83.5 -37.5q58 0 92.5 42t39.5 141h-240z" />
<glyph unicode="&#x2c6;" horiz-adv-x="514" d="M296 869l141 -195l-41 -27l-140 143l-144 -144l-38 27l143 196h79z" />
<glyph unicode="&#x2c7;" horiz-adv-x="499" d="M250 733l143 145l37 -27l-140 -195h-80l-141 194l40 28z" />
<glyph unicode="&#x2d8;" horiz-adv-x="499" d="M160.5 683.5q-38.5 22.5 -58.5 60.5t-20 83q0 21 2 29h53q0 -11 1 -18q5 -38 31.5 -67.5t80.5 -29.5t79.5 29.5t29.5 67.5q2 14 1 18h52q2 -16 2 -28q0 -45 -20.5 -83t-58 -61t-85.5 -23q-51 0 -89.5 22.5z" />
<glyph unicode="&#x2d9;" horiz-adv-x="280" d="M91.5 681.5q-16.5 18.5 -16.5 45.5q0 30 18.5 52t51.5 22q29 0 45.5 -19t16.5 -45q0 -32 -18 -53t-53 -21h-1q-27 0 -43.5 18.5z" />
<glyph unicode="&#x2da;" horiz-adv-x="498" d="M127 678.5q-41 38.5 -41 99.5q0 42 24 72.5t63 46.5t82 16q75 0 115.5 -37.5t40.5 -98.5q-1 -64 -48 -100.5t-115 -36.5q-80 0 -121 38.5zM341 773q0 41 -22 66.5t-68 25.5q-45 0 -70 -22.5t-25 -62.5t24 -66.5t70 -26.5q91 0 91 86z" />
<glyph unicode="&#x2db;" horiz-adv-x="346" d="M40.5 -226q-33.5 23 -33.5 71q0 41 43 86t102 69l32 4l43 -4q-48 -17 -88.5 -56.5t-40.5 -69.5q0 -32 17.5 -46.5t52.5 -14.5q23 0 43.5 8t34.5 15.5t18 9.5l7 -46q-64 -49 -146 -49q-51 0 -84.5 23z" />
<glyph unicode="&#x2dc;" horiz-adv-x="518" d="M102.5 779.5q36.5 32.5 87.5 32.5q29 0 48.5 -12t43.5 -35q20 -19 33.5 -28t31.5 -9q29 0 45.5 17.5t27.5 41.5l44 -27q-16 -44 -48 -74t-80 -30q-29 0 -48.5 11.5t-44.5 34.5q-20 19 -35 28.5t-34 9.5q-20 0 -35 -10t-22 -19t-20 -30l-43 27q12 39 48.5 71.5z" />
<glyph unicode="&#x2dd;" horiz-adv-x="499" d="M298 830q-21 -34 -83 -90.5t-100 -81.5l-36 28l153 199zM539 828q-19 -32 -83.5 -88.5t-103.5 -81.5l-35 30l160 194z" />
<glyph unicode="&#x300;" d="M-33 693q-42 32 -81 69t-52 59l72 63l161 -198l-37 -33h-1q-20 8 -62 40z" />
<glyph unicode="&#x301;" d="M-78 686l160 199l76 -64q-21 -34 -90 -93t-107 -75z" />
<glyph unicode="&#x302;" d="M40 860l140 -195l-40 -28l-140 144l-145 -144l-38 27l143 196h80z" />
<glyph unicode="&#x303;" d="M-150.5 774.5q31.5 30.5 79.5 30.5q30 0 50.5 -12t45.5 -35q19 -17 30.5 -24.5t25.5 -7.5q27 0 41.5 19t19.5 40l51 -25q-11 -46 -40 -76t-76 -30q-29 0 -48.5 11.5t-44.5 34.5q-19 17 -31.5 25t-27.5 8q-25 0 -38.5 -13t-21 -27.5t-10.5 -19.5l-47 27q10 44 41.5 74.5z " />
<glyph unicode="&#x304;" d="M138 672h-275v71h275v-71z" />
<glyph unicode="&#x308;" d="M-160.5 675q-15.5 18 -15.5 45q0 31 17 52.5t49 21.5q28 0 44 -19t16 -45q0 -32 -17 -52.5t-51 -20.5q-27 0 -42.5 18zM66.5 675.5q-15.5 18.5 -15.5 44.5q0 31 17 52.5t49 21.5q28 0 43.5 -19t15.5 -45q0 -32 -17 -52.5t-52 -20.5q-25 0 -40.5 18.5z" />
<glyph unicode="&#x30a;" d="M-122 678.5q-41 38.5 -41 99.5q0 42 24 72.5t63 46.5t82 16q74 0 115 -37t41 -97q0 -64 -47 -101.5t-116 -37.5q-80 0 -121 38.5zM92 773q0 41 -22 66.5t-68 25.5q-45 0 -70 -22.5t-25 -62.5t24 -66.5t70 -26.5q91 0 91 86z" />
<glyph unicode="&#x30b;" d="M-159 689l157 196l66 -55q-22 -35 -84 -91t-100 -81zM72 690l164 192l62 -54q-19 -32 -83.5 -88.5t-103.5 -81.5z" />
<glyph unicode="&#x3a9;" horiz-adv-x="944" d="M618 153q39 56 61.5 127.5t22.5 146.5q0 122 -59 186t-168 64q-242 0 -242 -263q0 -72 28 -144t71 -126t84 -77v-67h-336l-20 197h59l31 -120l190 -5q-44 26 -92.5 84t-81 132t-32.5 145q0 110 47.5 181.5t124.5 104.5t169 33q151 0 238.5 -78.5t87.5 -225.5 q0 -66 -28.5 -141t-73 -138t-91.5 -96l182 5l35 119h60l-26 -197h-328v67q48 30 87 86z" />
<glyph unicode="&#x3c0;" horiz-adv-x="787" d="M113.5 59q18.5 7 35.5 18q38 25 52.5 59.5t26.5 99.5l36 224h-57q-38 0 -59 -21.5t-28 -54.5l-48 5q-1 6 -1 17q0 44 20.5 77.5t55 52t75.5 18.5h352q31 0 46 2t24.5 9.5t13.5 25.5h52q-3 -52 -12 -78t-38.5 -40t-93.5 -14h-18l-11 -314q-1 -40 9 -59.5t29 -19.5 q25 0 45 13.5t38 44.5l38 -31q-51 -101 -149 -101q-47 0 -71 28t-24 81q0 18 1 28l30 330h-155l-23 -241q-8 -81 -25.5 -122t-52.5 -72q-15 -13 -34 -20t-47 -13l-60 60q9 1 27.5 8z" />
<glyph unicode="&#x400;" horiz-adv-x="651" d="M129 681l-82 12v50h509l14 -155h-57l-29 97l-248 6v-282l167 3l14 83h55v-230h-55l-14 86l-167 3v-298l282 10l53 126l59 -18l-29 -174h-555v49l83 10v622zM261.5 856.5q-51.5 39.5 -77.5 73.5l80 51l135 -152l-48 -30q-38 18 -89.5 57.5z" />
<glyph unicode="&#x401;" horiz-adv-x="651" d="M129 681l-82 12v50h509l14 -155h-57l-29 97l-248 6v-282l167 3l14 83h55v-230h-55l-14 86l-167 3v-298l282 10l53 126l59 -18l-29 -174h-555v49l83 10v622zM156 837.5q-15 18.5 -15 44.5q0 32 16.5 53t48.5 21h1q28 0 44 -19t16 -45q0 -32 -18 -52.5t-52 -20.5h-1 q-25 0 -40 18.5zM400.5 837.5q-15.5 18.5 -15.5 44.5q0 31 17 52.5t48 21.5h1q28 0 43.5 -19t15.5 -45q0 -32 -17.5 -52.5t-51.5 -20.5q-25 0 -40.5 18.5z" />
<glyph unicode="&#x402;" horiz-adv-x="846" d="M487.5 415.5q52.5 11.5 88.5 11.5q127 0 177 -64t50 -189q0 -109 -27.5 -193.5t-81.5 -132.5t-129 -48q-17 0 -36.5 3t-27.5 7l-3 55q4 0 18 -2t33 -2q76 0 111 75.5t35 224.5q0 106 -32.5 154.5t-112.5 48.5q-75 0 -141 -31v-273l111 -10v-50h-355v50l135 11v630 l-175 -9l-28 -175h-66l13 236h648l1 -236h-65l-21 175l-198 9v-304q26 17 78.5 28.5z" />
<glyph unicode="&#x403;" horiz-adv-x="576" d="M555 743l7 -263h-67l-29 203l-220 8v-631l174 -11v-49h-392v49l110 11v620l-107 14v49h524zM278 829l134 152l81 -51q-28 -35 -77.5 -74t-87.5 -57z" />
<glyph unicode="&#x404;" horiz-adv-x="657" d="M559 20.5q-20 -5.5 -24 -6.5q-38 -12 -72.5 -18.5t-84.5 -6.5q-107 0 -184.5 47.5t-118.5 134t-41 200.5q0 111 46.5 197.5t129 134.5t185.5 48q45 0 86 -6.5t89 -17.5l40 -9l-8 -173h-69l-25 121q-18 14 -46 22t-80 8q-62 0 -111.5 -33.5t-79 -97.5t-33.5 -154l327 9 v-81l-327 9q5 -85 32 -154t76 -109.5t117 -40.5q52 0 80 8.5t48 25.5l42 103l63 -4l-20 -150q-17 -1 -37 -6.5z" />
<glyph unicode="&#x405;" horiz-adv-x="594" d="M197 -2q-41 9 -90 24q-30 11 -45 12l8 181h64l17 -130q17 -16 55.5 -28.5t84.5 -12.5q76 0 115.5 34t39.5 94q0 39 -21.5 67t-57 48t-97.5 47q-56 25 -97.5 51t-72 69.5t-30.5 104.5q0 55 29.5 98.5t85 68.5t129.5 25q46 0 81.5 -7t80.5 -19q20 -7 34 -9l-6 -168h-61 l-20 123q-10 10 -41.5 19t-68.5 9q-69 0 -104.5 -29t-35.5 -84q0 -40 21.5 -67t53.5 -46t102 -52q65 -31 106 -56t70.5 -65.5t29.5 -96.5q0 -53 -29.5 -102t-90 -80.5t-146.5 -31.5q-52 0 -93 9z" />
<glyph unicode="&#x406;" horiz-adv-x="403" d="M147 681l-93 12v50h294v-50l-93 -12v-622l93 -11v-48h-293v49l92 10v622z" />
<glyph unicode="&#x407;" horiz-adv-x="403" d="M147 681l-93 12v50h294v-50l-93 -12v-622l93 -11v-48h-293v49l92 10v622zM32 837.5q-15 18.5 -15 44.5q0 32 16.5 53t48.5 21h1q28 0 44 -19t16 -45q0 -32 -18 -52.5t-52 -20.5h-1q-25 0 -40 18.5zM276.5 837.5q-15.5 18.5 -15.5 44.5q0 31 17 52.5t48 21.5h1 q28 0 43.5 -19t15.5 -45q0 -32 -17.5 -52.5t-51.5 -20.5q-25 0 -40.5 18.5z" />
<glyph unicode="&#x408;" horiz-adv-x="381" d="M73 -90.5q35 33.5 51 82.5q13 38 17 88.5t4 155.5v444l-96 13v50h294v-50l-91 -13v-405v-47q0 -79 -2 -127t-9 -82q-18 -80 -79 -132t-141 -66l-27 42q44 13 79 46.5z" />
<glyph unicode="&#x409;" horiz-adv-x="1014" d="M660.5 419.5q41.5 3.5 73.5 3.5q123 0 188 -53t65 -150q0 -110 -71.5 -169t-192.5 -59q-20 0 -64 3q-92 5 -105 5h-159v49l103 11l1 621h-203v-90q0 -179 -21 -316.5t-62 -208.5q-21 -37 -47.5 -54t-63.5 -17q-48 0 -71 5l-7 81q30 -4 75 -4q19 0 33 9t26 30 q76 118 76 480v86l-99 11v50h562v-50l-93 -12v-269q15 4 56.5 7.5zM703 44q84 0 128 43.5t44 123.5q0 151 -170 151q-28 0 -57.5 -2t-43.5 -4v-303q45 -9 99 -9z" />
<glyph unicode="&#x40a;" horiz-adv-x="1082" d="M988 370.5q66 -53.5 66 -150.5q0 -115 -70 -172.5t-190 -57.5q-28 0 -88 5q-19 1 -53 3t-48 2h-121v50l80 10v290h-327v-290l93 -10v-50h-284v49l85 10v622l-80 12v50h273v-50l-87 -12v-270h327v271l-84 13v48h276v-48l-85 -13v-258h130q121 0 187 -53.5zM694 54 q49 -7 75 -7q84 0 128.5 43t44.5 123q0 76 -44 113.5t-127 37.5h-100v-306q16 -2 23 -4z" />
<glyph unicode="&#x40b;" horiz-adv-x="872" d="M496.5 413q51.5 14 92.5 14q76 0 120.5 -20.5t65.5 -68.5t21 -132v-147l78 -10v-49h-256v49l72 10v115q0 68 -11 108t-37.5 59t-75.5 19q-96 0 -152 -36v-265l97 -10v-49h-337v49l131 11v630l-177 -8l-29 -175h-65l12 236h650l3 -236h-64l-24 174l-197 9v-310 q31 19 82.5 33z" />
<glyph unicode="&#x40c;" horiz-adv-x="704" d="M469 322.5q40 -51.5 96 -139.5q38 -62 59 -90.5t36 -32.5l38 -11v-49h-124q-23 0 -51.5 39.5t-73.5 120.5q-51 91 -85 138t-65 47h-64v-285l89 -12v-48h-274v50l81 10v621l-81 12v50h268v-50l-83 -12v-288h86l202 288l-84 12v50h246v-50l-79 -12l-217 -292 q40 -15 80 -66.5zM277 829l134 152l81 -51q-28 -35 -77.5 -74t-87.5 -57z" />
<glyph unicode="&#x40d;" horiz-adv-x="844" d="M335 743v-50l-98 -12v-502l82 123l288 352v27l-89 12v50h275v-50l-80 -12v-622l85 -10v-49h-279v49l88 10v509l-74 -116l-296 -357v-36l94 -10v-49h-282v49l83 10v622l-80 12v50h283zM366.5 856.5q-51.5 39.5 -77.5 73.5l80 51l135 -152l-48 -30q-38 18 -89.5 57.5z" />
<glyph unicode="&#x40e;" horiz-adv-x="630" d="M359 97.5q-20 -48.5 -57 -78.5t-86 -30q-26 0 -51.5 4.5t-41.5 11.5v71l71 -1q46 0 68 18.5t38 66.5l-252 521l-54 12v50h270v-50l-98 -12l161 -348l30 -91l33 92l127 347l-85 12v50h214v-50l-52 -12l-211 -527q-4 -8 -24 -56.5zM220 944q0 -42 22.5 -65t78.5 -23 t78.5 23t22.5 65q0 39 15 39h75l1 -22q0 -75 -49.5 -113.5t-142.5 -38.5q-92 0 -142 39t-50 113l1 22h74q16 0 16 -39z" />
<glyph unicode="&#x40f;" horiz-adv-x="800" d="M441 -187h-70q0 14 -9.5 99.5t-11.5 87.5h-304v49l86 11v621l-82 12v50h281v-50l-94 -12v-625h325v625l-84 12v50h269v-50l-79 -12v-622l87 -10v-49h-295q-15 -125 -19 -187z" />
<glyph unicode="&#x410;" horiz-adv-x="692" d="M290 749h110l243 -690l62 -10v-49h-264v49l83 10l-47 148h-292l-47 -148l86 -10v-49h-237v49l62 10zM353 589l-25 88l-24 -90l-101 -321h255z" />
<glyph unicode="&#x411;" horiz-adv-x="656" d="M295.5 444.5q42.5 3.5 72.5 3.5q126 0 190.5 -56t64.5 -160q0 -116 -72.5 -178t-192.5 -62l-65 3q-92 5 -104 5h-158v49l100 10v622l-99 12v50h539l10 -188h-68l-31 128l-245 8v-253q16 3 58.5 6.5zM266.5 51q24.5 -4 69.5 -4q86 0 130.5 46t44.5 132q0 164 -173 164 q-29 0 -58.5 -2t-42.5 -4v-327q5 -1 29.5 -5z" />
<glyph unicode="&#x412;" horiz-adv-x="685" d="M129 681l-82 12v50h135q34 0 86 4q48 4 71 4q138 0 197.5 -43t59.5 -126q0 -71 -41 -122t-112 -64q96 2 151 -45t55 -128q0 -101 -71.5 -165t-236.5 -64q-36 0 -69 3q-78 3 -93 3h-133v49l83 10v622zM292 414h55q70 0 106 39t36 111q0 70 -36 102.5t-123 32.5 q-36 0 -74 -4l-21 -2v-278q14 -1 57 -1zM339 48q101 0 146.5 41.5t45.5 119.5q0 77 -39.5 112t-127.5 35q-102 0 -129 -2v-298q23 -8 104 -8z" />
<glyph unicode="&#x413;" horiz-adv-x="576" d="M555 743l7 -263h-67l-29 203l-220 8v-631l174 -11v-49h-392v49l110 11v620l-107 14v49h524z" />
<glyph unicode="&#x414;" horiz-adv-x="734" d="M677 -68q-11 -115 -12 -118h-64q-2 37 -8.5 108t-9.5 78h-457q-4 -4 -19.5 -76t-23.5 -111h-65q1 40 4.5 119.5t6.5 127.5h73q24 30 52.5 98.5t51.5 186t23 275.5v61l-103 12v50h566v-50l-94 -12v-621h90q0 -13 -11 -128zM274 356.5q-18 -115.5 -42.5 -190.5t-44.5 -106 h305l1 625h-202v-71q1 -142 -17 -257.5z" />
<glyph unicode="&#x415;" horiz-adv-x="651" d="M129 681l-82 12v50h509l14 -155h-57l-29 97l-248 6v-282l167 3l14 83h55v-230h-55l-14 86l-167 3v-298l282 10l53 126l59 -18l-29 -174h-555v49l83 10v622z" />
<glyph unicode="&#x416;" horiz-adv-x="1042" d="M807 321q40 -52 94 -139q38 -60 59.5 -89t36.5 -33l39 -11v-49h-125q-23 0 -50.5 39t-74.5 121q-52 91 -86 138t-65 47h-63v-285l88 -12v-48h-274v49l84 10v286h-63q-31 0 -66 -47.5t-85 -137.5q-47 -82 -75 -121t-51 -39h-123v49l37 11q15 4 36.5 33t59.5 89 q54 88 94.5 140t80.5 67l-215 292l-79 12v50h242v-50l-78 -12l198 -288h87v288l-83 12v50h271v-50l-86 -12v-288h87l197 287l-78 13v50h244v-50l-80 -12l-215 -293q40 -15 80 -67z" />
<glyph unicode="&#x417;" horiz-adv-x="608" d="M138 731q45 10 77 15t62 5q125 0 192 -42t67 -127q0 -80 -50.5 -128t-121.5 -62q93 -2 143.5 -50.5t50.5 -123.5q0 -108 -66.5 -166t-211.5 -58q-60 0 -106 10t-72.5 18.5t-32.5 10.5l18 173h50l28 -130q48 -26 134 -26q67 0 101.5 40t34.5 120q0 62 -37 104t-127 42h-70 v56h58q42 0 79.5 17t60.5 52.5t23 86.5q0 67 -37.5 98t-103.5 31q-44 0 -74.5 -11t-40.5 -28l-19 -93h-63l-10 154q16 1 64 12z" />
<glyph unicode="&#x418;" horiz-adv-x="844" d="M335 743v-50l-98 -12v-502l82 123l288 352v27l-89 12v50h275v-50l-80 -12v-622l85 -10v-49h-279v49l88 10v509l-74 -116l-296 -357v-36l94 -10v-49h-282v49l83 10v622l-80 12v50h283z" />
<glyph unicode="&#x419;" horiz-adv-x="844" d="M335 743v-50l-98 -12v-502l82 123l288 352v27l-89 12v50h275v-50l-80 -12v-622l85 -10v-49h-279v49l88 10v509l-74 -116l-296 -357v-36l94 -10v-49h-282v49l83 10v622l-80 12v50h283zM330 944q0 -42 22.5 -65t78.5 -23t78.5 23t22.5 65q0 39 15 39h75l1 -22 q0 -75 -49.5 -113.5t-142.5 -38.5q-92 0 -142 39t-50 113l1 22h74q16 0 16 -39z" />
<glyph unicode="&#x41a;" horiz-adv-x="704" d="M469 322.5q40 -51.5 96 -139.5q38 -62 59 -90.5t36 -32.5l38 -11v-49h-124q-23 0 -51.5 39.5t-73.5 120.5q-51 91 -85 138t-65 47h-64v-285l89 -12v-48h-274v50l81 10v621l-81 12v50h268v-50l-83 -12v-288h86l202 288l-84 12v50h246v-50l-79 -12l-217 -292 q40 -15 80 -66.5z" />
<glyph unicode="&#x41b;" horiz-adv-x="736" d="M275.5 273.5q-20.5 -137.5 -61.5 -208.5q-21 -36 -48 -53t-64 -17q-48 0 -71 5l-7 81q23 -3 75 -3q19 0 33 8.5t26 29.5q76 118 76 486v79l-115 12v50h578v-50l-93 -12v-622l99 -10v-49h-308v49l103 11l1 621h-203v-90q0 -180 -20.5 -317.5z" />
<glyph unicode="&#x41c;" horiz-adv-x="990" d="M164 681l-109 12v50h265l141 -450l33 -127l30 127l140 450h263v-50l-110 -12l80 -621l87 -11v-49h-288v49l91 10l-45 449l-21 193l-42 -144l-167 -523h-65l-162 479l-59 189l-18 -194l-40 -449l99 -10v-49h-261v49l85 10z" />
<glyph unicode="&#x41d;" horiz-adv-x="828" d="M131 681l-79 12v50h272v-50l-86 -12v-269h352v269l-81 12v50h268v-50l-79 -12v-622l79 -10v-49h-269v49l82 10v291h-352v-291l87 -10v-49h-275v49l81 10v622z" />
<glyph unicode="&#x41e;" horiz-adv-x="722" d="M176.5 36q-70.5 47 -106.5 132.5t-36 198.5q0 115 43.5 202t119.5 134.5t171 47.5q156 0 238.5 -98.5t82.5 -272.5q0 -117 -44.5 -205.5t-122 -137t-173.5 -48.5q-102 0 -172.5 47zM209 614.5q-56 -84.5 -56 -247.5q0 -150 54.5 -237.5t152.5 -87.5q96 0 152.5 87 t56.5 250q0 151 -54 235.5t-153 84.5q-97 0 -153 -84.5z" />
<glyph unicode="&#x41f;" horiz-adv-x="796" d="M749 743v-50l-85 -13v-620l93 -11v-49h-282v49l83 11v624h-320v-625l93 -10v-49h-280v49l81 10v622l-85 12v50h702z" />
<glyph unicode="&#x420;" horiz-adv-x="649" d="M131 681l-78 12v50h133q36 0 71 3q54 4 102 4q145 -1 205 -54t60 -160q0 -80 -37 -139t-102.5 -90t-150.5 -31q-29 0 -59 1.5t-37 2.5v-220l137 -11v-49h-327v49l83 10v622zM334 330q79 0 128.5 48t49.5 157q0 86 -43 123.5t-134 37.5q-32 0 -68 -4q-22 -2 -29 -2v-355 q28 -5 96 -5z" />
<glyph unicode="&#x421;" horiz-adv-x="653" d="M190.5 36.5q-77.5 47.5 -117.5 133.5t-40 202q0 112 47 198t129 133.5t184 47.5q77 0 185 -24l33 -6l-10 -180h-67l-25 127q-14 12 -48.5 20.5t-84.5 8.5q-64 0 -114 -36.5t-78.5 -107.5t-28.5 -170q0 -94 25 -171t76 -122.5t126 -45.5q53 0 81.5 9t48.5 26l42 98l63 -8 l-24 -142q-21 -1 -62 -14q-36 -11 -69.5 -17.5t-83.5 -6.5q-110 0 -187.5 47.5z" />
<glyph unicode="&#x422;" horiz-adv-x="692" d="M290 690l-172 -6l-35 -209h-66l17 268h623l12 -268h-63l-33 209l-173 6v-631l142 -10v-49h-382v49l130 10v631z" />
<glyph unicode="&#x423;" horiz-adv-x="630" d="M359 97.5q-20 -48.5 -57 -78.5t-86 -30q-26 0 -51.5 4.5t-41.5 11.5v71l71 -1q46 0 68 18.5t38 66.5l-252 521l-54 12v50h270v-50l-98 -12l161 -348l30 -91l33 92l127 347l-85 12v50h214v-50l-52 -12l-211 -527q-4 -8 -24 -56.5z" />
<glyph unicode="&#x424;" horiz-adv-x="763" d="M681 558q67 -69 67 -181q0 -70 -37.5 -127t-109 -92t-169.5 -40v-78l96 -12v-49h-293v51l96 12v76q-180 5 -248 77t-68 185q0 70 36.5 125t107.5 88t172 38v70l-96 13v49h291v-49l-94 -13v-69q182 -5 249 -74zM175 529q-43 -54 -43 -143q0 -90 42 -152.5t157 -71.5v428 q-113 -7 -156 -61zM587 226.5q43 56.5 43 149.5q0 89 -41 146.5t-157 66.5v-428q112 9 155 65.5z" />
<glyph unicode="&#x425;" horiz-adv-x="712" d="M303 371l-208 309l-74 13v50h298v-50l-95 -13l156 -253l156 254l-88 12v50h246v-50l-80 -13l-203 -290l223 -331l76 -10v-49h-297v49l93 10l-170 273l-163 -273l100 -10v-49h-266v49l85 10z" />
<glyph unicode="&#x426;" horiz-adv-x="799" d="M762 -67.5q-12 -115.5 -14 -118.5h-64q0 19 -6 98.5t-9 87.5h-630v49l93 12v620l-84 12v50h287v-50l-98 -12v-624h315v624l-77 12v50h265v-50l-82 -12v-621h116q0 -12 -12 -127.5z" />
<glyph unicode="&#x427;" horiz-adv-x="693" d="M365 296q-55 -11 -104 -11q-70 0 -112.5 21t-62.5 70.5t-20 135.5v168l-61 12v51h252v-51l-85 -12v-138q0 -89 11.5 -128t38.5 -50.5t87 -11.5q38 0 81.5 10t64.5 22v297l-89 12v50h283v-50l-88 -12v-622l88 -11v-48h-299v49l105 10v268q-35 -20 -90 -31z" />
<glyph unicode="&#x428;" horiz-adv-x="1098" d="M326 743v-50l-89 -13v-621h263v622l-77 12v50h258v-50l-78 -12v-622h258v622l-75 12v50h263v-50l-82 -12v-621l93 -11v-49h-1022v49l94 10v622l-83 12v50h277z" />
<glyph unicode="&#x429;" horiz-adv-x="1112" d="M1060 -186h-64q-2 37 -7 107.5t-8 78.5h-943v49l94 10v622l-83 12v50h277v-50l-89 -12v-622h263v622l-77 12v50h258v-50l-78 -12v-622h258v622l-75 12v50h263v-50l-82 -12v-621h120q-13 -145 -27 -246z" />
<glyph unicode="&#x42a;" horiz-adv-x="823" d="M728.5 392.5q64.5 -56.5 64.5 -159.5q0 -116 -71 -178.5t-192 -62.5l-65 3q-92 5 -104 5h-193v49l134 11v631l-169 -9l-30 -193h-68l13 254h459v-50l-96 -12v-232h129q124 0 188.5 -56.5zM510 44q83 0 127.5 47.5t44.5 133.5q0 83 -44 124.5t-126 41.5h-101v-338 q45 -9 99 -9z" />
<glyph unicode="&#x42b;" horiz-adv-x="1051" d="M369 451q122 0 187 -57.5t65 -160.5q0 -115 -73 -178t-193 -63q-16 0 -33.5 1t-35.5 2q-58 5 -103 5h-136v49l84 10v623l-81 13v48h285v-48l-98 -13v-232zM997 743v-50l-93 -12v-622l93 -11v-48h-294v49l93 10v622l-93 12v50h294zM282.5 48q19.5 -2 53.5 -2 q84 0 128.5 47t44.5 134q0 83 -44 124.5t-126 41.5l-102 -1v-337q26 -5 45.5 -7z" />
<glyph unicode="&#x42c;" horiz-adv-x="648" d="M369 451q122 0 187 -57.5t65 -160.5q0 -115 -73 -178t-193 -63q-16 0 -33.5 1t-35.5 2q-58 5 -103 5h-136v49l84 10v623l-81 13v48h285v-48l-98 -13v-232zM282.5 48q19.5 -2 53.5 -2q84 0 128.5 47t44.5 134q0 83 -44 124.5t-126 41.5l-102 -1v-337q26 -5 45.5 -7z" />
<glyph unicode="&#x42d;" horiz-adv-x="662" d="M122 726q44 12 80.5 18.5t89.5 6.5q106 0 182 -48.5t115.5 -135.5t39.5 -201q0 -112 -44 -197.5t-124 -132.5t-185 -47q-42 0 -73 6t-71 17q-45 14 -69 14l-18 148l69 11l40 -99q22 -17 52.5 -29t83.5 -12q63 0 111.5 35.5t76.5 104t29 164.5l-327 -9v81l324 -9 q-10 126 -65.5 205t-153.5 79q-51 0 -79 -12.5t-52 -33.5l-27 -96h-71l2 159q25 1 64 13z" />
<glyph unicode="&#x42e;" horiz-adv-x="1075" d="M457 594q47 77 118.5 117.5t154.5 39.5q98 0 167.5 -45.5t105.5 -127t36 -189.5q0 -121 -42.5 -211.5t-116 -138.5t-164.5 -48q-101 0 -172 44.5t-108 126t-38 190.5h-160v-292l86 -11v-49h-275v49l82 11v621l-80 12v50h269v-50l-83 -12v-269h163q10 105 57 182zM571 614 q-57 -83 -57 -249q0 -145 54.5 -232t153.5 -87q95 0 147.5 84.5t52.5 249.5q0 145 -52 231t-147 86t-152 -83z" />
<glyph unicode="&#x42f;" horiz-adv-x="704" d="M371 325h-49q-24 -17 -48.5 -63t-55.5 -120q-31 -71 -50.5 -106.5t-35.5 -35.5h-136v49l39 11q15 3 31.5 28.5t48.5 83.5q33 66 61 108t57 58q-68 19 -106.5 72.5t-38.5 128.5q0 120 71.5 166t204.5 46q29 0 75 -4q48 -4 73 -4h145v-50l-84 -12v-622l92 -10v-49h-295v49 l96 10v266h-95zM440 692q-45 5 -80 5q-78 0 -119.5 -33t-41.5 -118q0 -81 41.5 -124t119.5 -43q80 0 106 3v307z" />
<glyph unicode="&#x430;" horiz-adv-x="561" d="M139 288.5q94 44.5 238 47.5v28q0 47 -10 74t-34.5 39.5t-69.5 12.5q-51 0 -91.5 -14.5t-80.5 -35.5l-25 52q13 11 48 29t81 32t92 14q71 0 112.5 -19.5t59.5 -62.5t18 -115v-321h59v-44q-20 -5 -50.5 -10t-53.5 -5q-28 0 -38 8.5t-10 37.5v33q-30 -30 -73.5 -55 t-98.5 -25q-72 0 -119.5 41.5t-47.5 119.5q0 94 94 138.5zM315 73q34 16 62 38v172q-109 0 -164.5 -33.5t-55.5 -87.5t26.5 -79.5t71.5 -25.5q26 0 60 16z" />
<glyph unicode="&#x431;" horiz-adv-x="574" d="M483 734.5q-11 -13.5 -36 -14.5q-193 -14 -248 -57q-28 -21 -49 -65.5t-25 -119.5q31 37 87 63t110 26q218 0 218 -259q0 -153 -65 -234.5t-186 -81.5q-118 0 -186.5 96.5t-68.5 294.5q0 124 36 202t93 129q36 32 93 52t111 26q43 5 58.5 10t20.5 21l14 43h56l-16 -89 q-6 -29 -17 -42.5zM229 490.5q-31 -12.5 -52.5 -29.5t-29.5 -31q0 -139 15 -224t46 -124.5t81 -39.5q76 0 107.5 67t31.5 199q0 107 -30.5 151t-101.5 44q-36 0 -67 -12.5z" />
<glyph unicode="&#x432;" horiz-adv-x="639" d="M226 557q96 3 100 3q126 0 176 -32.5t50 -96.5q0 -48 -28.5 -80.5t-80.5 -47.5q74 -6 114 -43t40 -89q0 -85 -65 -130.5t-212 -45.5q-29 0 -54.5 1t-43.5 2l-68 2h-102v49l70 12v431l-69 14v49h110zM416.5 349q30.5 29 30.5 75q0 40 -29 60.5t-101 20.5h-93v-185h97 q65 0 95.5 29zM263 53.5q29 -2.5 51 -2.5q92 0 130 25t38 83q0 55 -35 82t-110 27h-113v-209q10 -3 39 -5.5z" />
<glyph unicode="&#x433;" horiz-adv-x="505" d="M477 555l5 -208h-63l-25 148l-169 5v-442l136 -9v-49h-319v49l79 9v434l-77 14v49h433z" />
<glyph unicode="&#x434;" horiz-adv-x="625" d="M582 -49q-7 -84 -14 -137h-63q-2 37 -8.5 109t-9.5 77h-378q-4 -9 -22 -109l-16 -77h-67q4 142 9 242h57q48 19 76 130.5t28 305.5l-93 14v49h513v-49l-89 -14v-437h88zM211 200q-22 -106 -50 -145h240v441h-168v-63q0 -127 -22 -233z" />
<glyph unicode="&#x435;" horiz-adv-x="544" d="M106.5 68q-63.5 79 -63.5 211q0 87 33 153t92.5 102t135.5 36q93 0 144.5 -51.5t54.5 -147.5q0 -61 -7 -93h-344q2 -99 46 -159.5t125 -60.5q40 0 83.5 14.5t67.5 34.5l19 -44q-29 -30 -86 -52t-116 -22q-121 0 -184.5 79zM393 331q3 21 3 43q-1 65 -27.5 102.5 t-83.5 37.5q-58 0 -92.5 -42t-39.5 -141h240z" />
<glyph unicode="&#x436;" horiz-adv-x="937" d="M753 246.5q32 -39.5 72 -100.5q28 -43 44 -63t29 -24l38 -9v-50h-106q-27 0 -52 32.5t-62 97.5q-40 69 -66 102t-56 33h-75v-206l88 -10v-49h-267v49l78 10v206h-75q-29 0 -55 -33t-66 -101q-37 -65 -62.5 -98t-53.5 -33h-106v50l39 10q15 5 30.5 24.5t44.5 64.5 q39 61 70.5 99t68.5 55l-154 189l-73 14v49h232v-49l-76 -14l134 -179h102v179l-74 14v49h258v-49l-83 -14v-179h102l134 179l-77 14v49h233v-49l-73 -14l-155 -189q38 -17 70 -56.5z" />
<glyph unicode="&#x437;" horiz-adv-x="543" d="M140 551q68 16 131 16q103 0 156 -35t53 -99q0 -43 -32 -79t-85 -54q70 -6 109.5 -42t39.5 -91q0 -82 -62.5 -128.5t-183.5 -46.5q-70 0 -125 11.5t-91 25.5l10 119h62l16 -72q14 -14 46.5 -22t68.5 -8q71 0 105.5 29t34.5 80q0 109 -129 105q-10 -1 -33 -4t-26 -4l1 63 l42 5q58 7 90 35.5t32 72.5q0 42 -26.5 63.5t-87.5 21.5q-43 0 -74.5 -11t-43.5 -23l-15 -87h-65v148q31 0 82 11z" />
<glyph unicode="&#x438;" horiz-adv-x="734" d="M306 555v-49l-82 -14v-335l60 79l226 239v17l-74 14v49h250v-49l-72 -14v-434l75 -9v-49h-259v49l80 9v340l-66 -92l-220 -229v-20l66 -8v-49h-244v49l75 9v434l-74 14v49h259z" />
<glyph unicode="&#x439;" horiz-adv-x="734" d="M306 555v-49l-82 -14v-335l60 79l226 239v17l-74 14v49h250v-49l-72 -14v-434l75 -9v-49h-259v49l80 9v340l-66 -92l-220 -229v-20l66 -8v-49h-244v49l75 9v434l-74 14v49h259zM266 809q0 -45 24.5 -77t77.5 -32q52 0 75.5 32t23.5 77q0 37 16 37h73q1 -6 1 -19 q0 -81 -49.5 -130t-140.5 -49q-89 0 -140 49.5t-51 129.5l1 19h73q16 0 16 -37z" />
<glyph unicode="&#x43a;" horiz-adv-x="641" d="M455 248q31 -38 71 -100q26 -41 43 -62.5t31 -25.5l39 -10v-50h-105q-27 0 -53 33t-62 97q-38 67 -65 101t-57 34h-73v-207l87 -9v-49h-265v49l76 9v434l-75 14v49h256v-49l-79 -14v-179h101l133 179l-76 14v49h233v-49l-74 -14l-154 -189q37 -17 68 -55z" />
<glyph unicode="&#x43b;" horiz-adv-x="623" d="M210 206.5q-16 -98.5 -39 -144.5q-15 -34 -39 -51t-70 -17q-18 0 -48 6l-6 84q23 -5 68 -5q42 0 67 111t26 302l-91 14v49h510v-50l-87 -15v-432l84 -9v-49h-265v49l78 9v437h-172v-52q0 -138 -16 -236.5z" />
<glyph unicode="&#x43c;" horiz-adv-x="879" d="M290 555l110 -293l41 -120l37 120l108 293h236v-49l-99 -14l70 -434l78 -9v-49h-261v49l78 9l-36 288l-21 159l-51 -157l-120 -314h-67l-123 315l-55 153l-17 -154l-39 -291l86 -8v-49h-235v49l78 9l67 434l-96 14v49h231z" />
<glyph unicode="&#x43d;" horiz-adv-x="726" d="M308 555v-49l-83 -14v-175h276v175l-84 14v49h260v-49l-73 -14v-434l77 -9v-49h-266v49l86 9v201h-276v-201l86 -9v-49h-265v49l76 9v434l-75 14v49h261z" />
<glyph unicode="&#x43e;" horiz-adv-x="608" d="M82 435q37 66 97.5 100.5t129.5 34.5q126 0 189.5 -80t63.5 -210q0 -91 -37 -157t-97.5 -100t-129.5 -34q-126 0 -189.5 80t-63.5 210q0 90 37 156zM410 103q37 57 37 169q0 111 -34 176t-109 65q-69 0 -106.5 -57t-37.5 -169q0 -111 35 -176t109 -65q69 0 106 57z" />
<glyph unicode="&#x43f;" horiz-adv-x="698" d="M646 555v-49l-69 -14v-433l72 -10v-49h-250v49l75 10v439h-249v-439l74 -10v-49h-249v49l72 10v433l-72 14v49h596z" />
<glyph unicode="&#x440;" horiz-adv-x="628" d="M551 141.5q-35 -70.5 -100 -111.5t-152 -41q-24 0 -52 4t-45 10l3 -84v-101l104 -11v-49h-279v49l72 11v660l-73 18v54l142 18h2l21 -18v-59q30 33 74.5 56t99.5 23q59 0 108.5 -29t79.5 -90t30 -154q0 -85 -35 -155.5zM256 484q-33 -16 -51 -35v-377q7 -12 35.5 -21.5 t62.5 -9.5q77 0 124.5 61t47.5 184q0 108 -41.5 161t-106.5 53q-38 0 -71 -16z" />
<glyph unicode="&#x441;" horiz-adv-x="513" d="M65.5 424q32.5 67 96 106.5t152.5 39.5q43 0 74 -8t74 -22l-4 -154h-65l-22 102q-6 28 -76 28t-110.5 -56.5t-40.5 -160.5q0 -118 45.5 -179.5t118.5 -61.5q42 0 79.5 13t64.5 31l19 -40q-27 -28 -79.5 -50.5t-106.5 -22.5q-82 0 -138.5 37t-85 101.5t-28.5 146.5 q0 83 32.5 150z" />
<glyph unicode="&#x442;" horiz-adv-x="627" d="M586 555l6 -211h-66l-27 151l-133 5v-441l136 -10v-49h-375v49l135 10v441l-135 -5l-27 -151h-66l6 211h546z" />
<glyph unicode="&#x443;" horiz-adv-x="572" d="M92.5 -247q-16.5 2 -23.5 6v87q6 -4 23.5 -6t33.5 -2q48 0 84.5 33.5t70.5 128.5h-48l-190 495l-46 13v47h241v-47l-77 -12l98 -295l46 -146l43 147l89 294l-67 12v47h201v-47l-50 -12q-147 -450 -173 -511q-34 -86 -62 -134.5t-66 -74t-94 -25.5q-17 0 -33.5 2z" />
<glyph unicode="&#x444;" horiz-adv-x="887" d="M257 -11q-57 0 -105.5 28.5t-78.5 90.5t-30 157q0 87 32 156t91.5 109t138.5 40q25 0 49 -6.5t41 -15.5l-3 83v116l-81 10v43l160 19l23 -15v-173l-3 -109q52 48 139 48q57 0 105.5 -28.5t78.5 -90.5t30 -157q0 -87 -32 -156t-92 -109t-139 -40q-25 0 -49 6t-39 15l3 -77 v-115l87 -12v-50h-274v50l83 12v115l3 103q-49 -47 -138 -47zM360 507q-23 11 -52 11q-68 0 -110.5 -61t-42.5 -184q0 -111 40.5 -165t103.5 -54q29 0 54 8t39 19v404q-9 11 -32 22zM526.5 52q22.5 -11 52.5 -11q68 0 110.5 60t42.5 180q0 113 -40.5 168.5t-102.5 55.5 q-30 0 -55.5 -8t-39.5 -19v-404q10 -11 32.5 -22z" />
<glyph unicode="&#x445;" horiz-adv-x="595" d="M244 277l-169 219l-56 12v47h254v-47l-70 -12l91 -129l28 -43l27 43l95 129l-73 12v47h211v-47l-60 -12l-166 -207l177 -232l58 -9v-48h-257v48l66 10l-91 135l-30 45l-27 -44l-96 -136l83 -10v-48h-233v48l67 10z" />
<glyph unicode="&#x446;" horiz-adv-x="699" d="M662 -186h-63q-2 37 -7 109t-8 77h-534v49l72 10v434l-71 13v49h255v-49l-81 -13v-436h248v435l-80 14v49h254v-49l-70 -14v-435h113q-17 -166 -28 -243z" />
<glyph unicode="&#x447;" horiz-adv-x="653" d="M347 199q-34 -11 -89 -11q-68 0 -109.5 20.5t-61 67t-19.5 125.5v91l-60 14v49h234v-49l-68 -14v-60q0 -76 9.5 -113.5t35.5 -52.5t80 -15q67 0 131 36v205l-81 14v49h252v-49l-67 -14v-433l71 -10v-49h-265v49l90 10v175q-49 -24 -83 -35z" />
<glyph unicode="&#x448;" horiz-adv-x="987" d="M307 555v-49l-83 -14v-437h218v437l-84 14v49h265v-49l-79 -14v-437h219v437l-84 14v49h266v-49l-80 -14v-434l87 -11v-47h-916v47l85 11v434l-83 14v49h269z" />
<glyph unicode="&#x449;" horiz-adv-x="986" d="M960 -9q-12 -127 -19 -178h-62q0 10 -3 34q-11 147 -14 153h-826v47l85 11v434l-83 14v49h269v-49l-83 -14v-437h218v437l-84 14v49h265v-49l-79 -14v-437h219v437l-84 14v49h266v-49l-80 -14v-435h102z" />
<glyph unicode="&#x44a;" horiz-adv-x="708" d="M479 336q108 0 161 -43.5t53 -125.5q0 -177 -226 -177q-29 0 -84 5q-17 1 -46 3t-42 2h-157v49l123 9v442l-144 -2l-19 -167h-62l-2 224h429v-52l-100 -11v-157zM399.5 49q28.5 -4 51.5 -4q65 0 98.5 27t33.5 86q0 62 -33 90.5t-100 28.5h-87v-223q8 -1 36.5 -5z" />
<glyph unicode="&#x44b;" horiz-adv-x="872" d="M332 336q213 0 213 -167q0 -88 -58 -133.5t-164 -45.5q-13 0 -42 2t-47 3q-55 5 -82 5h-118v47l88 11v434l-83 13v50h282v-52l-97 -11v-157q35 1 108 1zM821 555v-50l-70 -13v-433l76 -10v-49h-249v49l71 10v433l-75 13v50h247zM308 45q64 0 96 28.5t32 87.5 q0 61 -32.5 89t-100.5 28h-79v-227q48 -6 84 -6z" />
<glyph unicode="&#x44c;" horiz-adv-x="570" d="M336 336q214 0 214 -167q0 -88 -58 -133.5t-165 -45.5q-13 0 -42 2t-46 3q-55 5 -82 5h-123v47l88 11v434l-82 13v50h283v-50l-99 -13v-157zM312 45q129 0 129 116q0 61 -33 89t-101 28h-83v-226q40 -7 88 -7z" />
<glyph unicode="&#x44d;" horiz-adv-x="528" d="M121 564q53 8 101 8q79 0 141 -34t97.5 -100.5t35.5 -160.5q0 -87 -34.5 -153t-94.5 -101t-134 -35q-62 0 -111 16t-80 41l-1 100h55l20 -78q50 -23 102 -23q69 0 113.5 49.5t50.5 157.5l-224 -4v72l223 -7q-6 100 -49.5 153t-111.5 53q-64 0 -96 -27l-19 -74h-59v129 q22 10 75 18z" />
<glyph unicode="&#x44e;" horiz-adv-x="915" d="M409 452q38 58 95 88t121 30q126 0 189.5 -79.5t63.5 -210.5q0 -91 -37 -157t-97 -100t-129 -34q-121 0 -183.5 73t-68.5 195h-138v-198l87 -10v-49h-270v49l80 10v433l-77 14v49h262v-49l-82 -14v-177h139q7 79 45 137zM514 457.5q-37 -56.5 -37 -169.5 q0 -112 35 -177.5t109 -65.5q69 0 105.5 57t36.5 170q0 112 -34 177t-109 65q-69 0 -106 -56.5z" />
<glyph unicode="&#x44f;" horiz-adv-x="652" d="M264 184.5q-13 -27.5 -32 -77.5q-21 -55 -35.5 -81t-34.5 -26h-134v50l39 10q27 6 45.5 30.5t41.5 70.5q16 30 25.5 46t21.5 27q-63 17 -94 60.5t-31 105.5q0 80 65 121t185 41q42 0 104 -4q36 -3 62 -3h106v-50l-68 -13v-433l75 -9v-50h-261v50l83 9v166h-131 q-19 -13 -32 -40.5zM333 509q-68 0 -106.5 -23.5t-38.5 -81.5t34.5 -92.5t108.5 -34.5q83 0 96 2v224q-45 6 -94 6z" />
<glyph unicode="&#x450;" horiz-adv-x="544" d="M106.5 68q-63.5 79 -63.5 211q0 87 33 153t92.5 102t135.5 36q93 0 144.5 -51.5t54.5 -147.5q0 -61 -7 -93h-344q2 -99 46 -159.5t125 -60.5q40 0 83.5 14.5t67.5 34.5l19 -44q-29 -30 -86 -52t-116 -22q-121 0 -184.5 79zM393 331q3 21 3 43q-1 65 -27.5 102.5 t-83.5 37.5q-58 0 -92.5 -42t-39.5 -141h240zM259 693q-42 32 -81 69t-52 59l72 63l161 -198l-37 -33h-1q-20 8 -62 40z" />
<glyph unicode="&#x451;" horiz-adv-x="544" d="M106.5 68q-63.5 79 -63.5 211q0 87 33 153t92.5 102t135.5 36q93 0 144.5 -51.5t54.5 -147.5q0 -61 -7 -93h-344q2 -99 46 -159.5t125 -60.5q40 0 83.5 14.5t67.5 34.5l19 -44q-29 -30 -86 -52t-116 -22q-121 0 -184.5 79zM393 331q3 21 3 43q-1 65 -27.5 102.5 t-83.5 37.5q-58 0 -92.5 -42t-39.5 -141h240zM131.5 675q-15.5 18 -15.5 45q0 31 17 52.5t49 21.5q28 0 44 -19t16 -45q0 -32 -17 -52.5t-51 -20.5q-27 0 -42.5 18zM358.5 675.5q-15.5 18.5 -15.5 44.5q0 31 17 52.5t49 21.5q28 0 43.5 -19t15.5 -45q0 -32 -17 -52.5 t-52 -20.5q-25 0 -40.5 18.5z" />
<glyph unicode="&#x452;" horiz-adv-x="650" d="M288 504q57 25 112 25q61 0 96 -23t50 -72.5t15 -132.5v-290q0 -123 -46.5 -189t-130.5 -71q-11 -1 -30.5 0t-23.5 3l-4 50q7 -1 24 1.5t28 6.5q77 23 77 210v280q0 58 -8 91t-30.5 48.5t-64.5 15.5q-37 0 -77 -17.5t-73 -41.5v-340l70 -9v-49h-233v49l60 9v554h-94v51 h94v87l-83 10v44l163 18h2l22 -15v-144h125v-51h-125v-64l-4 -98q32 29 89 54z" />
<glyph unicode="&#x453;" horiz-adv-x="505" d="M477 555l5 -208h-63l-25 148l-169 5v-442l136 -9v-49h-319v49l79 9v434l-77 14v49h433zM175 686l160 199l76 -64q-21 -34 -90 -93t-107 -75z" />
<glyph unicode="&#x454;" horiz-adv-x="526" d="M407 4.5q-49 -15.5 -112 -15.5q-130 0 -196 79.5t-66 218.5q0 83 38.5 148t103.5 101t143 36q48 0 97 -7.5t71 -18.5l-2 -129h-60l-20 76q-31 28 -93 28q-69 0 -114 -51.5t-51 -155.5l230 5v-72l-229 6q6 -104 50.5 -156t115.5 -52q58 0 98 20l21 80h56l-1 -100 q-31 -25 -80 -40.5z" />
<glyph unicode="&#x455;" horiz-adv-x="505" d="M138 80q10 -15 42.5 -27t68.5 -12q57 0 84 22t27 61q0 27 -17 47t-47.5 35.5t-87.5 37.5q-77 29 -112.5 69.5t-35.5 106.5q0 44 26.5 77t73 51.5t103.5 18.5q46 0 80.5 -7t55.5 -14t28 -9v-124h-61l-20 74q-6 12 -32 20.5t-58 8.5q-45 0 -72.5 -20t-27.5 -54 q0 -30 14.5 -49.5t36.5 -31.5t60 -28l20 -8q56 -22 91 -42t58.5 -52.5t23.5 -79.5q0 -74 -57.5 -118t-157.5 -44q-49 0 -102.5 13.5t-87.5 27.5v128h65z" />
<glyph unicode="&#x456;" horiz-adv-x="333" d="M115 673q-16 18 -16 46q0 32 19.5 53t53.5 21t50 -18t16 -46q0 -34 -19.5 -54t-54.5 -20h-1q-32 0 -48 18zM123 478l-76 18v53l155 19h2l23 -18v-493l80 -8v-49h-265v49l81 9v420z" />
<glyph unicode="&#x457;" horiz-adv-x="333" d="M123 478l-76 18v53l155 19h2l23 -18v-493l80 -8v-49h-265v49l81 9v420zM6.5 675q-15.5 18 -15.5 45q0 31 17 52.5t49 21.5q28 0 44 -19t16 -45q0 -32 -17 -52.5t-51 -20.5q-27 0 -42.5 18zM233.5 675.5q-15.5 18.5 -15.5 44.5q0 31 17 52.5t49 21.5q28 0 43.5 -19 t15.5 -45q0 -32 -17 -52.5t-52 -20.5q-25 0 -40.5 18.5z" />
<glyph unicode="&#x458;" horiz-adv-x="317" d="M115 673q-16 18 -16 46q0 32 19.5 53t53.5 21t50 -18t16 -46q0 -34 -19.5 -54t-55.5 -20h-1q-31 0 -47 18zM42 549l155 19h2l22 -18v-543q0 -83 -24 -139.5t-65 -83.5t-92 -27q-39 0 -46 4l-5 47q8 -1 23.5 2t31.5 9q41 14 57.5 67.5t16.5 143.5v445l-76 18v56z" />
<glyph unicode="&#x459;" horiz-adv-x="844" d="M550.5 331q32.5 4 65.5 4q108 0 160.5 -41.5t52.5 -124.5q0 -179 -209 -179q-22 0 -46 2t-42 3q-15 1 -41.5 3t-39.5 2h-130v49l78 9v437h-172v-52q0 -137 -16.5 -235.5t-39.5 -145.5q-15 -34 -39 -51t-71 -17q-17 0 -47 6l-6 84q23 -5 68 -5q42 0 67.5 111t26.5 302 l-92 14v49h510v-50l-87 -15v-167q17 4 49.5 8zM593 45q127 0 127 116q0 64 -33 90t-102 26q-39 0 -84 -10v-214q51 -8 92 -8z" />
<glyph unicode="&#x45a;" horiz-adv-x="947" d="M653 330q32 5 65 5q111 0 162 -42.5t51 -125.5q0 -89 -56.5 -133t-163.5 -44q-28 0 -85 5q-19 1 -48.5 3t-41.5 2h-121v49l87 7v203h-278v-201l87 -9v-49h-265v49l76 9v434l-75 14v49h260v-49l-83 -14v-177h278v177l-84 14v49h259v-49l-72 -14v-172q16 5 48 10zM641.5 47 q22.5 -3 54.5 -3q63 0 95 28t32 86q0 64 -33.5 91t-101.5 27q-42 0 -83 -11v-212q14 -3 36.5 -6z" />
<glyph unicode="&#x45b;" horiz-adv-x="668" d="M285.5 507q55.5 26 112.5 26q63 0 97.5 -24t48.5 -73.5t14 -133.5v-244l71 -9v-49h-239v49l65 9v244q0 59 -8 92.5t-30.5 50t-65.5 16.5q-37 0 -77.5 -17.5t-71.5 -42.5v-343l69 -9v-49h-233v49l59 8v548h-85v53h85v88l-84 11v43l163 19h3l22 -15v-146h131v-53h-131v-68 l-5 -85q34 29 89.5 55z" />
<glyph unicode="&#x45c;" horiz-adv-x="641" d="M455 248q31 -38 71 -100q26 -41 43 -62.5t31 -25.5l39 -10v-50h-105q-27 0 -53 33t-62 97q-38 67 -65 101t-57 34h-73v-207l87 -9v-49h-265v49l76 9v434l-75 14v49h256v-49l-79 -14v-179h101l133 179l-76 14v49h233v-49l-74 -14l-154 -189q37 -17 68 -55zM242 686 l160 199l76 -64q-21 -34 -90 -93t-107 -75z" />
<glyph unicode="&#x45d;" horiz-adv-x="734" d="M306 555v-49l-82 -14v-335l60 79l226 239v17l-74 14v49h250v-49l-72 -14v-434l75 -9v-49h-259v49l80 9v340l-66 -92l-220 -229v-20l66 -8v-49h-244v49l75 9v434l-74 14v49h259zM334 693q-42 32 -81 69t-52 59l72 63l161 -198l-37 -33h-1q-20 8 -62 40z" />
<glyph unicode="&#x45e;" horiz-adv-x="572" d="M92.5 -247q-16.5 2 -23.5 6v87q6 -4 23.5 -6t33.5 -2q48 0 84.5 33.5t70.5 128.5h-48l-190 495l-46 13v47h241v-47l-77 -12l98 -295l46 -146l43 147l89 294l-67 12v47h201v-47l-50 -12q-147 -450 -173 -511q-34 -86 -62 -134.5t-66 -74t-94 -25.5q-17 0 -33.5 2zM199 809 q0 -45 24.5 -77t77.5 -32q52 0 75.5 32t23.5 77q0 37 16 37h73q1 -6 1 -19q0 -81 -49.5 -130t-140.5 -49q-89 0 -140 49.5t-51 129.5l1 19h73q16 0 16 -37z" />
<glyph unicode="&#x45f;" horiz-adv-x="695" d="M396 -83.5q-7 -81.5 -7 -95.5h-64q0 13 -10.5 94.5t-12.5 84.5h-250v49l70 10v433l-71 14v49h248v-49l-75 -14v-437h246v437l-74 14v49h244v-49l-67 -14v-433l71 -10v-49h-240q-1 -2 -8 -83.5z" />
<glyph unicode="&#x462;" horiz-adv-x="751" d="M474 408q127 0 188.5 -55t61.5 -143q0 -67 -33.5 -116.5t-94 -75.5t-139.5 -26q-12 0 -28 1t-35 2q-57 5 -94 5h-153v49l95 10v536l-157 -11l-24 -80h-65l12 142h234v97l-88 14v45h285v-45l-91 -14v-97h242l12 -142h-67l-23 80l-164 11v-198q60 11 126 11zM439 45 q82 0 128 42t46 115q0 69 -45 110t-124 41q-72 0 -96 -5v-294q36 -9 91 -9z" />
<glyph unicode="&#x463;" horiz-adv-x="697" d="M407.5 339.5q35.5 3.5 68.5 3.5q205 0 205 -168q0 -90 -52 -137.5t-155 -47.5q-28 0 -83 5q-17 1 -47 3t-43 2h-131v43l82 14v455l-130 -1l-26 -112h-63l5 162h214v186l-77 9v44l156 19h2l22 -15v-243h230l5 -162h-63l-26 112l-146 1v-181q17 5 52.5 8.5zM446 44 q61 0 93.5 32.5t32.5 92.5q0 61 -30.5 90t-94.5 29q-24 0 -50 -4t-41 -8l-1 -224q48 -8 91 -8z" />
<glyph unicode="&#x46a;" horiz-adv-x="1049" d="M345.5 298.5q-33.5 -46.5 -85.5 -137.5q-45 -80 -74 -120.5t-52 -40.5h-124v49l39 11q13 4 32.5 29.5t56.5 82.5q43 68 75.5 112.5t70.5 77t74 32.5h89l-249 301l5 48h644l5 -48l-250 -301h88q38 0 77 -33t72 -79t75 -113q34 -54 53 -79.5t32 -29.5l40 -11v-49h-125 q-23 0 -50.5 39t-74.5 121q-52 91 -86 138t-65 47h-63v-285l89 -12v-48h-275v49l84 10v286h-63q-31 0 -64.5 -46.5zM525 393l218 283h-437z" />
<glyph unicode="&#x46b;" horiz-adv-x="946" d="M298.5 229q-27.5 -33 -67.5 -99q-39 -65 -65.5 -97.5t-54.5 -32.5h-106v50l38 10q12 4 29 24.5t43 57.5q55 78 99.5 122.5t94.5 44.5h84l-207 204l5 42h564l5 -42l-207 -204h84q35 0 69 -25t61 -58t65 -86q26 -37 42.5 -57.5t28.5 -23.5l38 -9v-50h-106q-27 0 -54 32.5 t-65 96.5q-40 66 -68 99.5t-57 34.5h-67v-204l88 -10v-49h-268v49l78 10v204h-67q-29 -1 -56.5 -34zM471 309h4l171 183h-346z" />
<glyph unicode="&#x472;" horiz-adv-x="722" d="M176.5 36q-70.5 47 -106.5 132.5t-36 198.5q0 115 43.5 202t119.5 134.5t171 47.5q156 0 238.5 -98.5t82.5 -272.5q0 -117 -44.5 -205.5t-122 -137t-173.5 -48.5q-102 0 -172.5 47zM271 446q27 0 51.5 -9t59.5 -26q28 -14 47 -21.5t37 -7.5q29 0 51 13.5t50 37.5 q-10 127 -63 196.5t-141 69.5q-95 0 -151.5 -79t-58.5 -232q52 58 118 58zM513 128q55 86 56 243q-54 -58 -120 -58q-28 0 -52.5 9t-62.5 27q-26 14 -44 21t-35 7q-30 0 -51.5 -13.5t-50.5 -38.5q8 -133 62 -208t145 -75q98 0 153 86z" />
<glyph unicode="&#x473;" horiz-adv-x="600" d="M494.5 490q63.5 -80 63.5 -210q0 -91 -37 -157t-97.5 -100t-129.5 -34q-126 0 -189.5 80t-63.5 210q0 90 37 156t97.5 100.5t129.5 34.5q126 0 189.5 -80zM197 463.5q-37 -49.5 -40 -149.5q31 18 69 18q28 0 48.5 -7.5t46.5 -22.5q21 -13 37 -19t36 -6q27 0 49 11 q-2 105 -36 165t-107 60q-66 0 -103 -49.5zM157 257q6 -98 40.5 -154.5t103.5 -56.5q60 0 96 46t44 134q-23 -14 -55 -14q-30 0 -50.5 7.5t-48.5 23.5q-22 13 -38.5 19t-37.5 6q-30 0 -54 -11z" />
<glyph unicode="&#x474;" horiz-adv-x="668" d="M564 716.5q38 29.5 82 29.5q30 0 54 -7v-64h-9q-40 0 -70.5 -25t-48.5 -94l-193 -564h-85l-251 689l-61 12v50h262v-50l-86 -12l158 -463l36 -126l32 125l127 404q15 66 53 95.5z" />
<glyph unicode="&#x475;" horiz-adv-x="562" d="M468 530.5q27 26.5 68 26.5q36 0 52 -7v-54h-7q-16 0 -29 -6q-35 -16 -68 -107l-150 -391h-91l-198 501l-46 14v48h231v-48l-70 -14l144 -419l44 142l73 226q20 62 47 88.5z" />
<glyph unicode="&#x48a;" horiz-adv-x="844" d="M335 743v-50l-98 -12v-502l82 123l288 352v27l-89 12v50h275v-50l-80 -12v-622l85 -10v-49h-279v49l88 10v509l-74 -116l-296 -357v-36l94 -10v-49h-282v49l83 10v622l-80 12v50h283zM330 944q0 -42 22.5 -65t78.5 -23t78.5 23t22.5 65q0 39 15 39h75l1 -22 q0 -75 -49.5 -113.5t-142.5 -38.5q-92 0 -142 39t-50 113l1 22h74q16 0 16 -39zM799 -77q-37 -104 -42 -110h-67q5 11 21.5 78.5t19.5 80.5l7 28h-35l11 58h114v-58q-2 -5 -29 -77z" />
<glyph unicode="&#x48b;" horiz-adv-x="734" d="M306 555v-49l-82 -14v-335l60 79l226 239v17l-74 14v49h250v-49l-72 -14v-434l75 -9v-49h-259v49l80 9v340l-66 -92l-220 -229v-20l66 -8v-49h-244v49l75 9v434l-74 14v49h259zM266 809q0 -45 24.5 -77t77.5 -32q52 0 75.5 32t23.5 77q0 37 16 37h73q1 -6 1 -19 q0 -81 -49.5 -130t-140.5 -49q-89 0 -140 49.5t-51 129.5l1 19h73q16 0 16 -37zM631 -186h-64q34 122 50 186h-23l3 58h108v-58z" />
<glyph unicode="&#x48c;" horiz-adv-x="649" d="M370 451q122 0 186.5 -57.5t64.5 -160.5q0 -115 -73 -178t-193 -63q-16 0 -33.5 1t-35.5 2q-58 5 -103 5h-135v49l83 10v479h-99v52h99v92l-81 13v48h285v-48l-98 -13v-92h128v-52h-128v-88zM282.5 48q20.5 -2 54.5 -2q84 0 128 47t44 134q0 83 -44 124.5t-125 41.5 l-103 -1v-337q25 -5 45.5 -7z" />
<glyph unicode="&#x48d;" horiz-adv-x="548" d="M249 332.5q31 3.5 64 3.5q109 0 162.5 -42.5t53.5 -123.5q0 -88 -54 -134t-159 -46q-28 0 -81 5q-17 1 -46 3t-42 2h-117v47l67 10v443h-93v56h93v191l-83 10v43l162 19h2l22 -15v-248h122v-56h-122v-176q18 5 49 8.5zM290 45q62 0 96 29t34 88q0 60 -34 88t-101 28 q-42 0 -85 -8v-218q42 -7 90 -7z" />
<glyph unicode="&#x48e;" horiz-adv-x="649" d="M257 746q54 4 102 4q145 -1 205 -54t60 -160q0 -76 -33 -133t-93 -89l85 -102l-41 -30l-93 110q-56 -16 -115 -16q-29 0 -59 1.5t-37 2.5v-220l137 -11v-49h-327v49l83 10v622l-78 12v50h133q36 0 71 3zM512 535q0 86 -43 123.5t-134 37.5q-32 0 -68 -4q-22 -2 -29 -2 v-355q28 -5 96 -5q39 0 71 13l-71 85l42 30l71 -85q65 48 65 162z" />
<glyph unicode="&#x48f;" horiz-adv-x="629" d="M268.5 546.5q44.5 23.5 99.5 23.5q59 0 109 -29t80 -90t30 -154q0 -66 -22 -125t-63 -101l76 -83l-39 -36l-77 86q-67 -49 -162 -49q-25 0 -52.5 4t-44.5 10l2 -84v-101l104 -11v-49h-279v49l72 11v660l-72 18v54l142 18h2l20 -18v-59q30 32 74.5 55.5zM475 286 q0 108 -41.5 161t-106.5 53q-38 0 -70.5 -15.5t-51.5 -35.5v-377q8 -12 36 -21.5t63 -9.5q65 0 110 46l-80 85l38 35l70 -74q33 61 33 153z" />
<glyph unicode="&#x490;" horiz-adv-x="552" d="M541 918l-10 -234l-288 6v-630l172 -11v-49h-391v49l111 11v620l-109 14v49h419l30 175h66z" />
<glyph unicode="&#x491;" horiz-adv-x="488" d="M459 714l4 -218l-236 2v-439l137 -10v-49h-318v49l78 10v433l-76 12v51h333l16 159h62z" />
<glyph unicode="&#x492;" horiz-adv-x="581" d="M555 743l7 -263h-67l-29 203l-220 8v-308h180v-55h-180v-268l174 -11v-49h-392v49l110 11v268h-95v55h95v297l-107 14v49h524z" />
<glyph unicode="&#x493;" horiz-adv-x="504" d="M480 555l5 -208h-63l-25 148l-169 5v-237h121v-56h-121v-149l136 -9v-49h-318v49l78 9v149h-96v56h96v229l-76 14v49h432z" />
<glyph unicode="&#x494;" horiz-adv-x="692" d="M322.5 415.5q52.5 11.5 88.5 11.5q127 0 177 -64t50 -190q0 -108 -28 -192.5t-81.5 -132.5t-127.5 -48q-18 0 -37.5 3t-27.5 7l-3 55q4 0 18.5 -2t33.5 -2q75 0 110 75.5t35 224.5q0 106 -32.5 154.5t-111.5 48.5q-75 0 -143 -30v-275l123 -10v-49h-342v49l111 11v620 l-107 14v49h524l6 -200h-67l-27 138l-221 10v-304q27 17 79.5 28.5z" />
<glyph unicode="&#x495;" horiz-adv-x="611" d="M282 275.5q38 10.5 74 10.5q84 0 132.5 -23.5t68.5 -70t20 -119.5q0 -152 -60 -235t-174 -83q-18 0 -37.5 3t-27.5 7l-2 54q18 -4 52 -4q76 0 110.5 60t34.5 188q0 60 -13 94.5t-43.5 50.5t-83.5 16q-27 0 -58 -8t-48 -17v-141l110 -9v-49h-291v49l78 9v434l-76 12v51 h431l5 -200h-60l-26 140l-171 5v-246q17 11 55 21.5z" />
<glyph unicode="&#x496;" horiz-adv-x="1047" d="M807.5 320q40.5 -52 94.5 -140q38 -61 57.5 -88t34.5 -32h63q0 -14 -12 -127.5t-14 -118.5h-65q0 25 -5 100.5t-9 85.5h-41q-23 0 -50.5 39t-74.5 121q-52 91 -86 138t-65 47h-63v-285l88 -12v-48h-274v49l84 10v286h-63q-31 0 -66 -48t-84 -137q-47 -82 -75 -121 t-51 -39h-124v49l39 11q15 4 35.5 32t59.5 90q55 90 94.5 141t79.5 66l-215 292l-79 12v50h242v-50l-78 -12l198 -288h87v288l-83 12v50h271v-50l-86 -12v-288h87l197 287l-78 13v50h244v-50l-80 -12l-215 -293q40 -16 80.5 -68z" />
<glyph unicode="&#x497;" horiz-adv-x="938" d="M751.5 248.5q30.5 -37.5 73.5 -102.5q27 -42 43 -62t29 -25h49q0 -10 -10.5 -108.5t-15.5 -137.5h-65q0 6 -2.5 88.5t-10.5 98.5h-12q-27 0 -52 32.5t-62 97.5q-40 69 -66 102t-56 33h-75v-206l88 -10v-49h-267v49l78 10v206h-75q-29 0 -55 -33t-66 -101 q-37 -65 -62.5 -98t-53.5 -33h-106v50l39 10q15 5 30.5 24.5t44.5 64.5q39 61 70.5 99t68.5 55l-154 189l-73 14v49h232v-49l-76 -14l134 -179h102v179l-74 14v49h258v-49l-83 -14v-179h102l134 179l-77 14v49h233v-49l-73 -14l-155 -189q38 -17 68.5 -54.5z" />
<glyph unicode="&#x498;" horiz-adv-x="605" d="M138 731q45 10 77 15t62 5q125 0 192 -42t67 -127q0 -80 -50.5 -128t-121.5 -62q93 -2 143.5 -50.5t50.5 -123.5q0 -204 -229 -222q22 -23 41 -58.5t19 -74.5q0 -56 -32.5 -80t-97.5 -24q-17 0 -37 4t-34 9l1 69q10 -3 22.5 -5.5t21.5 -2.5q40 0 57.5 14t17.5 57 q0 23 -9 48t-21 42q-59 0 -104 9.5t-72 18.5l-33 11l18 173h50l28 -130q48 -26 134 -26q67 0 101.5 40t34.5 120q0 62 -37 104t-127 42h-70v56h58q42 0 79.5 17t60.5 52.5t23 86.5q0 67 -37.5 98t-103.5 31q-44 0 -74.5 -11t-40.5 -28l-19 -93h-63l-10 154q16 1 64 12z" />
<glyph unicode="&#x499;" horiz-adv-x="543" d="M60 148h62l16 -72q14 -14 46.5 -22t68.5 -8q71 0 105.5 29t34.5 80q0 109 -129 105q-10 -1 -33 -4t-26 -4l1 63l42 5q58 7 90 35.5t32 72.5q0 42 -26.5 63.5t-87.5 21.5q-43 0 -74.5 -11t-43.5 -23l-15 -87h-65v148q31 0 82 11q68 16 131 16q103 0 156 -35t53 -99 q0 -43 -32 -79t-85 -54q70 -6 109.5 -42t39.5 -91q0 -75 -52 -120.5t-154 -53.5q21 -22 38.5 -57.5t17.5 -71.5q0 -57 -32 -81t-97 -24q-17 0 -37 4t-34 9l1 69q10 -4 23 -6t22 -2q39 0 56 14t17 57q0 22 -8.5 46t-18.5 42q-113 2 -204 37z" />
<glyph unicode="&#x49a;" horiz-adv-x="710" d="M468 323.5q39 -50.5 96 -140.5q35 -57 57 -87.5t38 -35.5h59l-6 -55q-8 -88 -20 -191h-66q0 20 -5.5 99.5t-8.5 86.5h-38q-23 0 -51.5 39.5t-73.5 120.5q-51 91 -85 138t-65 47h-64v-285l89 -12v-48h-274v50l81 10v621l-81 12v50h268v-50l-83 -12v-288h86l202 288l-84 12 v50h246v-50l-79 -12l-217 -292q40 -15 79 -65.5z" />
<glyph unicode="&#x49b;" horiz-adv-x="642" d="M455 248q31 -38 71 -100q26 -41 43 -62.5t31 -25.5l58 -1q-12 -136 -26 -245h-65q0 18 -6 99t-8 87h-15q-25 0 -51 32t-63 95q-40 68 -68.5 103t-58.5 35h-73v-207l87 -9v-49h-265v49l76 9v434l-75 14v49h256v-49l-79 -14v-179h101l133 179l-76 14v49h233v-49l-74 -14 l-154 -189q37 -17 68 -55z" />
<glyph unicode="&#x49c;" horiz-adv-x="752" d="M541.5 324q34.5 -49 87.5 -138q35 -61 55.5 -91t35.5 -35l38 -11v-50l-118 1q-26 0 -54.5 43t-70.5 127q-46 88 -73.5 130t-54.5 45h-22v-164h-54v166h-76v-288l89 -11v-48h-274v50l81 10v621l-81 12v50h268v-50l-83 -12v-279h76v152h54v-152h38l165 278l-85 13v50h245 v-50l-76 -11l-181 -290q36 -19 70.5 -68z" />
<glyph unicode="&#x49d;" horiz-adv-x="679" d="M487 249.5q29 -35.5 67 -94.5q31 -48 49.5 -71t35.5 -26l42 -11v-47h-114q-27 0 -51 32t-60 97q-35 65 -61 99t-55 35v-130h-59v133h-57v-210l89 -7v-49h-267v49l76 7v439l-75 13v47h266v-47l-89 -13v-182h57v117h59v-117h25l135 183l-77 12v47h234v-47l-73 -12 l-159 -194q33 -17 62 -52.5z" />
<glyph unicode="&#x49e;" horiz-adv-x="705" d="M474 321q41 -53 92 -139q37 -60 58 -89t36 -33l38 -11v-49h-124q-23 0 -51 39.5t-72 120.5q-50 91 -83.5 138t-64.5 47h-68v-285l89 -12v-48h-274v50l81 10v463h-81v53h81v105l-81 12v50h268v-50l-83 -12v-105h87v-53h-87v-130h90l198 288l-84 12v50h246v-50l-79 -12 l-213 -292q40 -15 81 -68z" />
<glyph unicode="&#x49f;" horiz-adv-x="632" d="M180 819l22 -15v-122h125v-53h-125v-314l-2 -59l231 239l-75 14v46h243v-46l-79 -14l-147 -143l190 -295l62 -8v-49h-243v49l62 9l-140 232l-104 -102l2 -51v-79l72 -9v-49h-238v49l62 9v571h-88v53h88v64l-78 11v43l159 19h1z" />
<glyph unicode="&#x4a0;" horiz-adv-x="855" d="M628 322.5q37 -49.5 94 -137.5q37 -59 59.5 -89.5t37.5 -35.5l41 -11v-49h-123q-23 0 -51 38.5t-77 122.5q-52 91 -87 138.5t-66 47.5h-61v-288l90 -11v-48h-282v49l87 10v632l-155 -9l-29 -191h-70l11 252h436v-50l-88 -12v-279h90l194 279l-80 12v50h245v-50l-78 -12 l-213 -289q38 -20 75 -69.5z" />
<glyph unicode="&#x4a1;" horiz-adv-x="786" d="M596 245.5q32 -39.5 69 -99.5q27 -43 43 -63.5t29 -23.5l45 -10v-49h-112q-28 0 -51.5 31t-60.5 99q-36 68 -61.5 101.5t-55.5 33.5h-75v-207l89 -9v-49h-267v49l77 8v443l-143 -6l-25 -147h-63l4 208h410v-49l-82 -14v-179h100l131 179l-73 14v49h233v-49l-77 -14 l-152 -190q36 -17 68 -56.5z" />
<glyph unicode="&#x4a2;" horiz-adv-x="829" d="M787 -68q-12 -115 -14 -118h-64q-2 37 -7 107.5t-8 78.5h-186v49l82 10v291h-352v-291l87 -10v-49h-275v49l81 10v622l-79 12v50h272v-50l-86 -12v-269h352v269l-81 12v50h268v-50l-79 -12v-621h101q0 -13 -12 -128z" />
<glyph unicode="&#x4a3;" horiz-adv-x="726" d="M697 -67.5q-12 -114.5 -14 -118.5h-62l-2 30q-1 15 -6 80.5t-9 75.5h-189v49l86 9v201h-276v-201l86 -9v-49h-265v49l76 9v434l-75 14v49h261v-49l-83 -14v-175h276v175l-84 14v49h260v-49l-72 -14v-433h104q0 -12 -12 -126.5z" />
<glyph unicode="&#x4a4;" horiz-adv-x="998" d="M329 743v-50l-91 -12v-269h353v269l-87 12v50h448l12 -252h-70l-30 188l-166 12v-632l84 -10v-49h-277v49l86 10v291h-353v-291l91 -10v-49h-283v49l85 10v622l-82 12v50h280z" />
<glyph unicode="&#x4a5;" horiz-adv-x="851" d="M308 555v-49l-83 -14v-175h276v174l-84 15v49h410l6 -212h-67l-26 155l-135 1v-441l76 -9v-49h-266v49l86 9v201h-276v-201l86 -9v-49h-265v49l76 9v434l-75 14v49h261z" />
<glyph unicode="&#x4a6;" horiz-adv-x="1086" d="M734 416.5q45 10.5 87 10.5q126 0 176 -64.5t50 -191.5q0 -108 -27.5 -192t-81 -131.5t-128.5 -47.5q-17 0 -36.5 3t-27.5 7l-3 58q13 -4 52 -4q75 0 109 73.5t34 223.5q0 106 -32 153.5t-111 47.5q-72 0 -131 -25v-277l93 -11v-49h-282v49l83 11v624h-320v-625l93 -10 v-49h-280v49l81 10v622l-85 12v50h702v-50l-85 -13v-287q25 13 70 23.5z" />
<glyph unicode="&#x4a7;" horiz-adv-x="944" d="M631 314q34 10 65 10q118 0 166.5 -53.5t48.5 -159.5q0 -177 -57.5 -266.5t-172.5 -89.5q-18 0 -37.5 3t-27.5 7l-2 57q23 -5 51 -5q53 0 83.5 27.5t44.5 89t14 167.5q0 84 -30.5 122t-100.5 38q-25 0 -52 -7t-47 -18v-177l72 -10v-49h-250v49l75 10v439h-249v-439 l74 -10v-49h-249v49l72 10v433l-72 14v49h596v-49l-69 -14v-202q20 14 54 24z" />
<glyph unicode="&#x4a8;" horiz-adv-x="843" d="M376 698q-98 0 -162 -80t-64 -252q0 -107 32.5 -180t86.5 -108.5t119 -35.5q21 0 39.5 2.5t45.5 12.5q-39 20 -73 62.5t-54.5 99t-20.5 115.5q0 142 61.5 207t153.5 65q94 0 155.5 -59.5t61.5 -200.5q0 -68 -25.5 -124.5t-61.5 -95.5t-71 -60q47 -24 114 -24q63 0 98 24 l21 -37q-56 -40 -138 -40q-91 0 -169 38q-65 -38 -151 -38q-111 0 -187.5 48.5t-114.5 133t-38 193.5q0 122 47 210t124.5 132.5t168.5 44.5q43 0 68 -4l-9 -55q-27 6 -57 6zM460 503q-28 -56 -28 -164q0 -77 33 -144t84 -101q43 27 70 91.5t27 159.5q0 107 -25.5 160.5 t-80.5 53.5q-52 0 -80 -56z" />
<glyph unicode="&#x4a9;" horiz-adv-x="679" d="M375.5 510q-17.5 4 -49.5 4q-82 0 -130 -59.5t-48 -165.5q0 -67 25 -123.5t68 -89t96 -32.5q38 0 53 2q-49 33 -74.5 86t-25.5 118q0 89 49.5 140.5t133.5 51.5q49 0 88 -24t61.5 -66t22.5 -96q0 -69 -24 -123t-72 -88q6 0 25.5 -2t37.5 -1q35 0 48 3l-2 -49 q-9 -2 -31 -4t-40 -2q-62 0 -118 16q-56 -17 -128 -17q-92 0 -160.5 39t-105 105.5t-36.5 148.5q0 84 36 149.5t99 102t143 36.5q73 0 107 -26l-19 -46q-12 8 -29.5 12zM405.5 354q-19.5 -40 -19.5 -104q0 -63 18.5 -110t65.5 -73q42 20 60.5 64t18.5 130q0 58 -22.5 95.5 t-58.5 37.5q-43 0 -62.5 -40z" />
<glyph unicode="&#x4aa;" horiz-adv-x="653" d="M557 20.5q-19 -5.5 -23 -6.5q-27 -9 -50.5 -14.5t-55.5 -7.5q-14 -118 -18 -179h-70q0 11 -7 76t-12 104q-138 17 -213 118t-75 261q0 112 47 198t129 133.5t184 47.5q77 0 185 -24l33 -6l-10 -180h-67l-25 127q-14 12 -48.5 20.5t-84.5 8.5q-64 0 -114 -36.5 t-78.5 -107.5t-28.5 -170q0 -94 25 -171t76 -122.5t126 -45.5q53 0 81.5 9t48.5 26l42 98l63 -8l-24 -142q-17 -1 -36 -6.5z" />
<glyph unicode="&#x4ab;" horiz-adv-x="513" d="M295 516q-70 0 -110.5 -56.5t-40.5 -160.5q0 -118 45.5 -179.5t118.5 -61.5q42 0 79.5 13t64.5 31l19 -40q-21 -21 -57 -40t-76 -27q-10 -97 -14 -174h-64q-5 57 -16 130l-5 41q-100 15 -153 92t-53 190q0 83 32.5 150t96 106.5t152.5 39.5q43 0 74 -8t74 -22l-4 -154 h-65l-22 102q-6 28 -76 28z" />
<glyph unicode="&#x4ac;" horiz-adv-x="720" d="M555 -186h-65q-4 96 -10 186h-305v49l130 10v631l-171 -6l-35 -209h-66l17 268h623l11 -268h-63l-32 209l-173 6v-630h166q-16 -160 -27 -246z" />
<glyph unicode="&#x4ad;" horiz-adv-x="626" d="M508 -186h-65q-3 76 -15 186h-301v49l135 10v441l-135 -5l-27 -151h-66l6 211h546l6 -211h-66l-27 151l-133 5v-441h168q-12 -136 -26 -245z" />
<glyph unicode="&#x4ae;" horiz-adv-x="644" d="M273 289l-225 391l-60 13v50h261v-50l-79 -12l141 -268l32 -76l36 76l133 268l-82 12v50h228v-50l-65 -12l-209 -391v-230l112 -11v-49h-332v49l109 10v230z" />
<glyph unicode="&#x4af;" horiz-adv-x="622" d="M267 555v-49l-84 -14l136 -362l12 -38l13 38l136 362l-83 14v49h226v-49l-68 -14l-184 -450v-223l111 -13v-48h-316v48l100 13v215l-201 458l-62 14v49h264z" />
<glyph unicode="&#x4b0;" horiz-adv-x="644" d="M658 743v-50l-65 -12l-198 -368h140v-73h-151v-180l112 -11v-49h-332v49l109 10v181h-144v73h131l-212 367l-60 13v50h261v-50l-79 -12l141 -268l32 -76l36 76l133 268l-82 12v50h228z" />
<glyph unicode="&#x4b1;" horiz-adv-x="622" d="M267 555v-49l-84 -14l136 -362l12 -38l13 38l136 362l-83 14v49h226v-49l-68 -14l-180 -439h174v-53h-178v-181l111 -13v-48h-316v48l100 13v181h-187v53h179l-193 439l-62 14v49h264z" />
<glyph unicode="&#x4b2;" horiz-adv-x="716" d="M720.5 -66q-12.5 -113 -14.5 -117h-64q-2 37 -6.5 107t-7.5 76h-215v49l93 10l-170 273l-163 -273l100 -10v-49h-266v49l85 10l211 312l-208 309l-74 13v50h298v-50l-95 -13l156 -253l156 254l-88 12v50h246v-50l-80 -13l-203 -290l223 -330h99q0 -13 -12.5 -126z" />
<glyph unicode="&#x4b3;" horiz-adv-x="595" d="M599.5 -83q-10.5 -99 -11.5 -103h-63l-2 25q-1 14 -6.5 82.5t-8.5 78.5h-174v48l66 10l-91 135l-30 45l-27 -44l-96 -136l83 -10v-48h-233v48l67 10l171 219l-169 219l-56 12v47h254v-47l-70 -12l91 -129l28 -43l27 43l95 129l-73 12v47h211v-47l-60 -12l-166 -207 l176 -230l81 -1q-3 -42 -13.5 -141z" />
<glyph unicode="&#x4b4;" horiz-adv-x="987" d="M947 -183h-65q0 19 -6 97t-8 86h-702v49l86 10v629l-128 -7l-28 -191h-64l11 253h521l12 -253h-63l-30 191l-125 7v-631h381v624l-77 12v50h264v-50l-80 -12v-621h127q-12 -128 -26 -243z" />
<glyph unicode="&#x4b5;" horiz-adv-x="918" d="M903 -52q-10 -97 -15 -134h-66q0 18 -6 99t-8 87h-674v49l106 10v441l-119 -6l-27 -161h-64l10 222h500l9 -222h-65l-27 161l-111 6v-444h334v436l-80 14v49h265v-49l-80 -14v-433h128q0 -14 -10 -111z" />
<glyph unicode="&#x4b6;" horiz-adv-x="698" d="M649 -186h-66q0 19 -5.5 98.5t-8.5 87.5h-218v49l105 10v268q-35 -20 -90 -31t-104 -11q-70 0 -112.5 21t-62.5 70.5t-20 135.5v168l-61 12v51h252v-51l-85 -12v-138q0 -89 11.5 -128t38.5 -50.5t87 -11.5q38 0 81.5 10t64.5 22v297l-89 12v50h282v-50l-87 -12v-621h112 q-14 -158 -25 -246z" />
<glyph unicode="&#x4b7;" horiz-adv-x="656" d="M628.5 -68.5q-12.5 -114.5 -14.5 -117.5h-65q-1 37 -5.5 109t-7.5 77h-194v49l91 11v162q-33 -16 -80.5 -24.5t-94.5 -8.5q-99 0 -143 48t-44 163v92l-60 14v49h233v-49l-67 -14v-61q0 -75 9.5 -112t34.5 -52t77 -15q37 0 77.5 6.5t57.5 16.5v217l-81 14v49h252v-49 l-69 -14v-433h106q0 -13 -12.5 -127.5z" />
<glyph unicode="&#x4b8;" horiz-adv-x="706" d="M350 290v-114h-55v110q-10 -1 -28 -1q-71 0 -114 21t-63.5 70.5t-20.5 135.5v169l-63 12v50h256v-50l-88 -13v-138q0 -85 10.5 -124.5t35 -52t75.5 -13.5v154h55v-152q34 4 67.5 12.5t48.5 17.5v297l-90 12v50h286v-50l-89 -12v-622l89 -11v-48h-301v50l105 10v265 q-37 -22 -116 -35z" />
<glyph unicode="&#x4b9;" horiz-adv-x="689" d="M351 197v-105h-58v101h-7q-75 0 -122 19.5t-70 66t-23 127.5v86l-60 14v49h237v-49l-71 -14v-58q0 -70 10.5 -107t35 -53t70.5 -18v141h58v-140q35 2 67.5 8t48.5 14v213l-77 14v49h248v-49l-68 -14v-434l72 -9v-49h-259v49l84 9v168q-47 -21 -116 -29z" />
<glyph unicode="&#x4ba;" horiz-adv-x="693" d="M328 447q55 11 104 11q70 0 112.5 -21t62.5 -70.5t20 -135.5v-168l61 -12v-51h-252v51l85 12v138q0 89 -11.5 128t-38.5 50.5t-87 11.5q-38 0 -81.5 -10t-64.5 -22v-297l89 -12v-50h-283v50l88 12v622l-88 11v48h299v-49l-105 -10v-268q35 20 90 31z" />
<glyph unicode="&#x4bb;" horiz-adv-x="659" d="M99 746l-84 11v43l163 19h2l22 -15v-232l-4 -85q32 29 88 55t113 26q63 0 98 -24t49 -73.5t14 -133.5v-279l70 -9v-49h-239v49l65 9v280q0 59 -8 92.5t-30 50t-66 16.5q-36 0 -77 -18t-72 -42v-379l69 -9v-49h-233v49l60 8v689z" />
<glyph unicode="&#x4bc;" horiz-adv-x="783" d="M654 14q-48 -12 -90.5 -18.5t-100.5 -6.5q-90 0 -158.5 45t-106.5 127.5t-39 192.5q-73 1 -121 28.5t-48 80.5q0 26 11.5 53t21.5 33l74 -12q-6 -8 -14 -31.5t-8 -36.5q0 -25 20 -41.5t66 -17.5q8 102 53 179.5t115.5 119.5t155.5 42q76 0 135 -34t92.5 -100t34.5 -160 q0 -70 -7 -102h-475q1 -85 26.5 -156.5t73.5 -113.5t114 -42q62 0 98 15t60 40l19 80l71 -2l-4 -149q-23 -1 -69 -13zM638 461q-1 58 -19 110.5t-57 86.5t-98 34q-84 0 -139.5 -69.5t-59.5 -212.5h370q5 24 3 51z" />
<glyph unicode="&#x4bd;" horiz-adv-x="655" d="M519 11.5q-57 -22.5 -115 -22.5q-119 0 -183.5 77.5t-65.5 213.5q-71 2 -113.5 26.5t-42.5 75.5q0 21 9 48.5t17 32.5l73 -13q-7 -7 -13.5 -29t-6.5 -35q0 -50 81 -53q15 108 84.5 172.5t171.5 64.5q93 0 144 -50.5t55 -147.5q2 -64 -5 -94h-343q3 -108 46.5 -164 t121.5 -56q44 0 85 14t66 34l20 -43q-29 -29 -86 -51.5zM506 371q0 64 -25.5 105.5t-84.5 41.5q-119 0 -131 -187h240z" />
<glyph unicode="&#x4be;" horiz-adv-x="783" d="M655 14q-39 -10 -71.5 -15.5t-74.5 -8.5q21 -24 37.5 -57.5t16.5 -68.5q0 -56 -32.5 -80.5t-97.5 -24.5q-17 0 -37 4t-34 9l1 69q10 -3 23 -5.5t22 -2.5q40 0 57 13.5t17 57.5q0 22 -8 44.5t-18 40.5q-88 1 -155 46.5t-104 127.5t-38 191q-73 1 -121 28.5t-48 80.5 q0 26 11.5 53t21.5 33l74 -12q-6 -8 -14 -31.5t-8 -36.5q0 -25 20 -41.5t66 -17.5q8 102 53 179.5t115.5 119.5t155.5 42q76 0 135 -34t92.5 -100t34.5 -160q0 -70 -7 -102h-475q1 -85 26.5 -156.5t73.5 -113.5t114 -42q62 0 98 15t60 40l19 80l71 -2l-4 -149 q-24 -1 -68 -13zM638 461q-1 58 -19 110.5t-57 86.5t-98 34q-84 0 -139.5 -69.5t-59.5 -212.5h370q5 24 3 51z" />
<glyph unicode="&#x4bf;" horiz-adv-x="655" d="M531 16q-49 -21 -102 -26q21 -23 38 -57t17 -69q0 -57 -32.5 -81t-97.5 -24q-17 0 -37 4t-34 9l1 69q10 -4 23 -6t22 -2q40 0 57 13.5t17 57.5q0 38 -27 87q-106 9 -163 85t-58 204q-71 2 -113.5 26.5t-42.5 75.5q0 21 9 48.5t17 32.5l73 -13q-7 -7 -13.5 -29t-6.5 -35 q0 -50 81 -53q15 108 84.5 172.5t171.5 64.5q93 0 144 -50.5t55 -147.5q2 -64 -5 -94h-343q3 -108 46.5 -164t121.5 -56q44 0 85 14t66 34l20 -43q-25 -26 -74 -47zM506 371q0 64 -25.5 105.5t-84.5 41.5q-119 0 -131 -187h240z" />
<glyph unicode="&#x4c0;" horiz-adv-x="403" d="M147 681l-93 12v50h294v-50l-93 -12v-622l93 -11v-48h-293v49l92 10v622z" />
<glyph unicode="&#x4c1;" horiz-adv-x="1042" d="M807 321q40 -52 94 -139q38 -60 59.5 -89t36.5 -33l39 -11v-49h-125q-23 0 -50.5 39t-74.5 121q-52 91 -86 138t-65 47h-63v-285l88 -12v-48h-274v49l84 10v286h-63q-31 0 -66 -47.5t-85 -137.5q-47 -82 -75 -121t-51 -39h-123v49l37 11q15 4 36.5 33t59.5 89 q54 88 94.5 140t80.5 67l-215 292l-79 12v50h242v-50l-78 -12l198 -288h87v288l-83 12v50h271v-50l-86 -12v-288h87l197 287l-78 13v50h244v-50l-80 -12l-215 -293q40 -15 80 -67zM420 944q0 -42 22.5 -65t78.5 -23t78.5 23t22.5 65q0 39 15 39h75l1 -22q0 -75 -49.5 -113.5 t-142.5 -38.5q-92 0 -142 39t-50 113l1 22h74q16 0 16 -39z" />
<glyph unicode="&#x4c2;" horiz-adv-x="937" d="M753 246.5q32 -39.5 72 -100.5q28 -43 44 -63t29 -24l38 -9v-50h-106q-27 0 -52 32.5t-62 97.5q-40 69 -66 102t-56 33h-75v-206l88 -10v-49h-267v49l78 10v206h-75q-29 0 -55 -33t-66 -101q-37 -65 -62.5 -98t-53.5 -33h-106v50l39 10q15 5 30.5 24.5t44.5 64.5 q39 61 70.5 99t68.5 55l-154 189l-73 14v49h232v-49l-76 -14l134 -179h102v179l-74 14v49h258v-49l-83 -14v-179h102l134 179l-77 14v49h233v-49l-73 -14l-155 -189q38 -17 70 -56.5zM368 809q0 -45 24.5 -77t77.5 -32q52 0 75.5 32t23.5 77q0 37 16 37h73q1 -6 1 -19 q0 -81 -49.5 -130t-140.5 -49q-89 0 -140 49.5t-51 129.5l1 19h73q16 0 16 -37z" />
<glyph unicode="&#x4c3;" horiz-adv-x="709" d="M343 419l181 262l-84 12v50h246v-50l-78 -12l-185 -255q117 -4 163.5 -68t46.5 -184q0 -111 -27 -195t-80 -131t-128 -47q-19 0 -38 2.5t-28 6.5l-1 60q18 -4 47 -4q79 0 113.5 69.5t34.5 225.5q0 106 -33 153.5t-113 47.5q-41 0 -69 -6.5t-76 -21.5v-275l89 -11v-48 h-274v50l81 10v621l-81 12v50h268v-50l-83 -12v-291q49 20 108 29z" />
<glyph unicode="&#x4c4;" horiz-adv-x="630" d="M269 311.5q33 6.5 64 9.5l124 170l-76 15v49h235v-49l-76 -14l-138 -172q96 -11 138.5 -62.5t42.5 -142.5q0 -170 -61.5 -265t-174.5 -95q-17 0 -35 3t-27 7l-2 57q18 -4 49 -4q79 0 113 69t34 219q0 82 -37.5 118.5t-112.5 36.5q-23 0 -56.5 -5.5t-49.5 -13.5v-184 l89 -9v-49h-266v49l76 9v434l-75 14v49h259v-49l-83 -14v-195q13 8 46 14.5z" />
<glyph unicode="&#x4c5;" horiz-adv-x="738" d="M684 -91q-34 -92 -37 -96h-67q5 10 40 157l7 30h-232v49l104 11v621h-203v-90q0 -179 -21 -317t-62 -209q-21 -36 -47.5 -53t-63.5 -17q-48 0 -71 5l-7 81q30 -4 75 -4q19 0 33 9t26 30q76 118 76 486v79l-115 12v50h578v-50l-93 -12v-623h114v-58q-6 -10 -34 -91z" />
<glyph unicode="&#x4c6;" horiz-adv-x="631" d="M537 -186h-65q11 34 27 94t23 92h-201v49l78 9v437h-172v-52q0 -137 -16.5 -235.5t-39.5 -145.5q-16 -34 -40 -51t-70 -17q-17 0 -47 6l-6 84q23 -5 68 -5q42 0 67.5 111t26.5 302l-92 14v49h510v-50l-87 -15v-432h108v-58z" />
<glyph unicode="&#x4c7;" horiz-adv-x="823" d="M696 86q-2 -57 -11 -99q-18 -66 -80 -110.5t-141 -58.5l-25 44q44 11 78.5 37.5t52.5 65.5q12 32 15.5 79.5t4.5 177.5v128h-352v-291l87 -10v-49h-275v49l81 10v622l-79 12v50h272v-50l-86 -12v-269h352v269l-81 12v50h272v-50l-83 -12v-421q0 -117 -2 -174z" />
<glyph unicode="&#x4c8;" horiz-adv-x="723" d="M551 -127.5q-54 -69.5 -161 -69.5q-15 0 -34 2t-27 5v59q16 -2 40 -2q55 0 83 22.5t39 76.5t11 157v136h-278v-203l88 -8v-48h-266v49l76 9v434l-75 14v49h260v-49l-83 -14v-175h278v175l-84 14v49h259v-49l-72 -14v-402q0 -148 -54 -217.5z" />
<glyph unicode="&#x4c9;" horiz-adv-x="827" d="M766 -73q-42 -110 -45 -113h-67l51 186h-197v49l82 11v290h-352v-291l87 -10v-49h-276v49l82 10v622l-80 12v50h273v-50l-86 -12v-269h352v269l-81 12v50h269v-50l-80 -12v-623h97v-58q-3 -6 -29 -73z" />
<glyph unicode="&#x4ca;" horiz-adv-x="726" d="M689 -28q-7 -18 -15 -39q-42 -115 -46 -119h-66q3 5 21.5 78.5t26.5 107.5h-195v49l86 9v201h-276v-201l86 -9v-49h-265v49l76 9v436l-75 12v49h261v-49l-83 -12v-177h276v177l-83 12v49h259v-49l-72 -12v-438h95v-56q-4 -10 -11 -28z" />
<glyph unicode="&#x4cb;" horiz-adv-x="694" d="M426.5 -77.5q-16.5 -71.5 -23.5 -108.5h-66q1 39 5 119t7 128h107v266q-35 -20 -90 -31t-104 -11q-70 0 -112.5 21t-62.5 70.5t-20 135.5v168l-61 12v51h252v-51l-85 -12v-138q0 -89 11.5 -128t38.5 -50.5t87 -11.5q38 0 81.5 10t64.5 22v297l-89 12v50h282v-50l-87 -12 v-622l88 -11v-48h-204q-3 -6 -19.5 -77.5z" />
<glyph unicode="&#x4cc;" horiz-adv-x="656" d="M383 -157q-3 -12 -7 -30h-66q1 39 5 118.5t7 127.5h112v163q-34 -16 -82 -24.5t-96 -8.5q-66 0 -106.5 20.5t-59.5 66.5t-19 124v92l-59 14v49h234v-49l-68 -14v-61q0 -75 9.5 -112t34.5 -52t77 -15q37 0 77.5 6.5t57.5 16.5v217l-82 14v49h253v-49l-69 -14v-433l72 -10 v-49h-189q-4 -8 -36 -157z" />
<glyph unicode="&#x4cd;" horiz-adv-x="1005" d="M984 -94q-32 -91 -34 -93h-67q2 6 29 115q6 23 10.5 43t7.5 29h-212v49l88 11l-52 448l-25 192l-34 -133l-171 -575h-65l-174 521l-57 189l-17 -194l-44 -449l96 -10v-49h-261v49l85 10l81 622l-106 12v50h258l156 -490l30 -126l28 126l145 490h251v-50l-102 -12l90 -625 h101v-56q-7 -16 -35 -94z" />
<glyph unicode="&#x4ce;" horiz-adv-x="879" d="M10 49l78 9l67 434l-96 14v49h231l110 -293l41 -120l37 120l108 293h236v-49l-99 -14l70 -434h94v-58l-74 -186h-64l50 186h-189v49l78 9l-36 288l-21 159l-51 -157l-120 -314h-67l-123 315l-55 153l-17 -154l-39 -291l86 -8v-49h-235v49z" />
<glyph unicode="&#x4cf;" horiz-adv-x="333" d="M118 746l-81 11v43l161 19h2l22 -15v-747l85 -8v-49h-270v49l81 9v688z" />
<glyph unicode="&#x4d0;" horiz-adv-x="692" d="M290 749h110l243 -690l62 -10v-49h-264v49l83 10l-47 148h-292l-47 -148l86 -10v-49h-237v49l62 10zM353 589l-25 88l-24 -90l-101 -321h255zM245 944q0 -42 22.5 -65t78.5 -23t78.5 23t22.5 65q0 39 15 39h75l1 -22q0 -75 -49.5 -113.5t-142.5 -38.5q-92 0 -142 39 t-50 113l1 22h74q16 0 16 -39z" />
<glyph unicode="&#x4d1;" horiz-adv-x="561" d="M139 288.5q94 44.5 238 47.5v28q0 47 -10 74t-34.5 39.5t-69.5 12.5q-51 0 -91.5 -14.5t-80.5 -35.5l-25 52q13 11 48 29t81 32t92 14q71 0 112.5 -19.5t59.5 -62.5t18 -115v-321h59v-44q-20 -5 -50.5 -10t-53.5 -5q-28 0 -38 8.5t-10 37.5v33q-30 -30 -73.5 -55 t-98.5 -25q-72 0 -119.5 41.5t-47.5 119.5q0 94 94 138.5zM315 73q34 16 62 38v172q-109 0 -164.5 -33.5t-55.5 -87.5t26.5 -79.5t71.5 -25.5q26 0 60 16zM180 809q0 -45 24.5 -77t77.5 -32q52 0 75.5 32t23.5 77q0 37 16 37h73q1 -6 1 -19q0 -81 -49.5 -130t-140.5 -49 q-89 0 -140 49.5t-51 129.5l1 19h73q16 0 16 -37z" />
<glyph unicode="&#x4d2;" horiz-adv-x="692" d="M290 749h110l243 -690l62 -10v-49h-264v49l83 10l-47 148h-292l-47 -148l86 -10v-49h-237v49l62 10zM353 589l-25 88l-24 -90l-101 -321h255zM176 837.5q-15 18.5 -15 44.5q0 32 16.5 53t48.5 21h1q28 0 44 -19t16 -45q0 -32 -18 -52.5t-52 -20.5h-1q-25 0 -40 18.5z M420.5 837.5q-15.5 18.5 -15.5 44.5q0 31 17 52.5t48 21.5h1q28 0 43.5 -19t15.5 -45q0 -32 -17.5 -52.5t-51.5 -20.5q-25 0 -40.5 18.5z" />
<glyph unicode="&#x4d3;" horiz-adv-x="561" d="M139 288.5q94 44.5 238 47.5v28q0 47 -10 74t-34.5 39.5t-69.5 12.5q-51 0 -91.5 -14.5t-80.5 -35.5l-25 52q13 11 48 29t81 32t92 14q71 0 112.5 -19.5t59.5 -62.5t18 -115v-321h59v-44q-20 -5 -50.5 -10t-53.5 -5q-28 0 -38 8.5t-10 37.5v33q-30 -30 -73.5 -55 t-98.5 -25q-72 0 -119.5 41.5t-47.5 119.5q0 94 94 138.5zM315 73q34 16 62 38v172q-109 0 -164.5 -33.5t-55.5 -87.5t26.5 -79.5t71.5 -25.5q26 0 60 16zM120.5 675q-15.5 18 -15.5 45q0 31 17 52.5t49 21.5q28 0 44 -19t16 -45q0 -32 -17 -52.5t-51 -20.5q-27 0 -42.5 18z M347.5 675.5q-15.5 18.5 -15.5 44.5q0 31 17 52.5t49 21.5q28 0 43.5 -19t15.5 -45q0 -32 -17 -52.5t-52 -20.5q-25 0 -40.5 18.5z" />
<glyph unicode="&#x4d4;" horiz-adv-x="921" d="M401 216h-259l-63 -157l77 -11v-48h-244v48l73 11l275 623l-133 12v49h699l16 -158h-57l-31 102l-246 5v-283l164 3l13 83h56v-230h-56l-13 87l-164 2v-299l281 11l60 126l61 -17l-37 -175h-558v48l86 11v157zM401 688h-66l-55 -131l-114 -282h235v413z" />
<glyph unicode="&#x4d5;" horiz-adv-x="869" d="M89.5 29.5q-48.5 40.5 -48.5 118.5q0 94 93 139.5t236 48.5q0 67 -8 99t-31 44.5t-72 12.5q-50 0 -91.5 -14.5t-87.5 -38.5l-25 51q14 13 51.5 31.5t85 32t93.5 13.5q66 0 105 -17.5t57 -56.5q35 37 81.5 57t100.5 20q94 0 145.5 -51.5t54.5 -147.5q0 -61 -7 -93h-345 q2 -99 46 -159.5t125 -60.5q40 0 83.5 14.5t67.5 33.5l19 -43q-29 -30 -85.5 -52t-114.5 -22q-71 0 -122.5 28t-82.5 79q-29 -42 -82 -74.5t-121 -32.5q-72 0 -120.5 40.5zM719 331q1 13 1 43q0 65 -26.5 102.5t-82.5 37.5q-58 0 -93 -42t-40 -141h241zM335 82q39 25 57 57 q-23 65 -23 148q-105 -1 -159.5 -36t-54.5 -90q0 -54 26.5 -79t71.5 -25q43 0 82 25z" />
<glyph unicode="&#x4d6;" horiz-adv-x="651" d="M129 681l-82 12v50h509l14 -155h-57l-29 97l-248 6v-282l167 3l14 83h55v-230h-55l-14 86l-167 3v-298l282 10l53 126l59 -18l-29 -174h-555v49l83 10v622zM225 944q0 -42 22.5 -65t78.5 -23t78.5 23t22.5 65q0 39 15 39h75l1 -22q0 -75 -49.5 -113.5t-142.5 -38.5 q-92 0 -142 39t-50 113l1 22h74q16 0 16 -39z" />
<glyph unicode="&#x4d7;" horiz-adv-x="544" d="M106.5 68q-63.5 79 -63.5 211q0 87 33 153t92.5 102t135.5 36q93 0 144.5 -51.5t54.5 -147.5q0 -61 -7 -93h-344q2 -99 46 -159.5t125 -60.5q40 0 83.5 14.5t67.5 34.5l19 -44q-29 -30 -86 -52t-116 -22q-121 0 -184.5 79zM393 331q3 21 3 43q-1 65 -27.5 102.5 t-83.5 37.5q-58 0 -92.5 -42t-39.5 -141h240zM191 809q0 -45 24.5 -77t77.5 -32q52 0 75.5 32t23.5 77q0 37 16 37h73q1 -6 1 -19q0 -81 -49.5 -130t-140.5 -49q-89 0 -140 49.5t-51 129.5l1 19h73q16 0 16 -37z" />
<glyph unicode="&#x4d8;" horiz-adv-x="665" d="M171 23q-58 34 -91.5 100t-35.5 160q0 77 7 105h472q-4 95 -31 164.5t-73.5 107t-106.5 37.5q-62 0 -97 -16t-61 -42l-18 -77l-71 1l5 149q23 1 67 13q49 12 91 19t100 7q91 0 160 -46t107 -131t38 -197q0 -115 -42.5 -203.5t-117.5 -136.5t-168 -48q-76 0 -134 34z M467 119.5q53 68.5 56 210.5h-366q-3 -18 -3 -54q0 -56 18 -107.5t57 -84.5t97 -33q88 0 141 68.5z" />
<glyph unicode="&#x4d9;" horiz-adv-x="544" d="M437.5 487q63.5 -79 63.5 -211q0 -87 -33 -153t-92.5 -102t-135.5 -36q-93 0 -144.5 51.5t-54.5 147.5q0 61 7 93h344q-2 99 -46 159.5t-125 60.5q-40 0 -83.5 -14.5t-67.5 -34.5l-19 44q29 30 86 52t116 22q121 0 184.5 -79zM151 224q-3 -21 -3 -43q1 -65 27.5 -102.5 t83.5 -37.5q58 0 92.5 42t39.5 141h-240z" />
<glyph unicode="&#x4da;" horiz-adv-x="665" d="M171 23q-58 34 -91.5 100t-35.5 160q0 77 7 105h472q-4 95 -31 164.5t-73.5 107t-106.5 37.5q-62 0 -97 -16t-61 -42l-18 -77l-71 1l5 149q23 1 67 13q49 12 91 19t100 7q91 0 160 -46t107 -131t38 -197q0 -115 -42.5 -203.5t-117.5 -136.5t-168 -48q-76 0 -134 34z M467 119.5q53 68.5 56 210.5h-366q-3 -18 -3 -54q0 -56 18 -107.5t57 -84.5t97 -33q88 0 141 68.5zM158 837.5q-15 18.5 -15 44.5q0 32 16.5 53t48.5 21h1q28 0 44 -19t16 -45q0 -32 -18 -52.5t-52 -20.5h-1q-25 0 -40 18.5zM402.5 837.5q-15.5 18.5 -15.5 44.5 q0 31 17 52.5t48 21.5h1q28 0 43.5 -19t15.5 -45q0 -32 -17.5 -52.5t-51.5 -20.5q-25 0 -40.5 18.5z" />
<glyph unicode="&#x4db;" horiz-adv-x="544" d="M437.5 487q63.5 -79 63.5 -211q0 -87 -33 -153t-92.5 -102t-135.5 -36q-93 0 -144.5 51.5t-54.5 147.5q0 61 7 93h344q-2 99 -46 159.5t-125 60.5q-40 0 -83.5 -14.5t-67.5 -34.5l-19 44q29 30 86 52t116 22q121 0 184.5 -79zM151 224q-3 -21 -3 -43q1 -65 27.5 -102.5 t83.5 -37.5q58 0 92.5 42t39.5 141h-240zM111.5 675q-15.5 18 -15.5 45q0 31 17 52.5t49 21.5q28 0 44 -19t16 -45q0 -32 -17 -52.5t-51 -20.5q-27 0 -42.5 18zM338.5 675.5q-15.5 18.5 -15.5 44.5q0 31 17 52.5t49 21.5q28 0 43.5 -19t15.5 -45q0 -32 -17 -52.5t-52 -20.5 q-25 0 -40.5 18.5z" />
<glyph unicode="&#x4dc;" horiz-adv-x="1042" d="M807 321q40 -52 94 -139q38 -60 59.5 -89t36.5 -33l39 -11v-49h-125q-23 0 -50.5 39t-74.5 121q-52 91 -86 138t-65 47h-63v-285l88 -12v-48h-274v49l84 10v286h-63q-31 0 -66 -47.5t-85 -137.5q-47 -82 -75 -121t-51 -39h-123v49l37 11q15 4 36.5 33t59.5 89 q54 88 94.5 140t80.5 67l-215 292l-79 12v50h242v-50l-78 -12l198 -288h87v288l-83 12v50h271v-50l-86 -12v-288h87l197 287l-78 13v50h244v-50l-80 -12l-215 -293q40 -15 80 -67zM351 837.5q-15 18.5 -15 44.5q0 32 16.5 53t48.5 21h1q28 0 44 -19t16 -45q0 -32 -18 -52.5 t-52 -20.5h-1q-25 0 -40 18.5zM595.5 837.5q-15.5 18.5 -15.5 44.5q0 31 17 52.5t48 21.5h1q28 0 43.5 -19t15.5 -45q0 -32 -17.5 -52.5t-51.5 -20.5q-25 0 -40.5 18.5z" />
<glyph unicode="&#x4dd;" horiz-adv-x="937" d="M753 246.5q32 -39.5 72 -100.5q28 -43 44 -63t29 -24l38 -9v-50h-106q-27 0 -52 32.5t-62 97.5q-40 69 -66 102t-56 33h-75v-206l88 -10v-49h-267v49l78 10v206h-75q-29 0 -55 -33t-66 -101q-37 -65 -62.5 -98t-53.5 -33h-106v50l39 10q15 5 30.5 24.5t44.5 64.5 q39 61 70.5 99t68.5 55l-154 189l-73 14v49h232v-49l-76 -14l134 -179h102v179l-74 14v49h258v-49l-83 -14v-179h102l134 179l-77 14v49h233v-49l-73 -14l-155 -189q38 -17 70 -56.5zM308.5 675q-15.5 18 -15.5 45q0 31 17 52.5t49 21.5q28 0 44 -19t16 -45q0 -32 -17 -52.5 t-51 -20.5q-27 0 -42.5 18zM535.5 675.5q-15.5 18.5 -15.5 44.5q0 31 17 52.5t49 21.5q28 0 43.5 -19t15.5 -45q0 -32 -17 -52.5t-52 -20.5q-25 0 -40.5 18.5z" />
<glyph unicode="&#x4de;" horiz-adv-x="608" d="M138 731q45 10 77 15t62 5q125 0 192 -42t67 -127q0 -80 -50.5 -128t-121.5 -62q93 -2 143.5 -50.5t50.5 -123.5q0 -108 -66.5 -166t-211.5 -58q-60 0 -106 10t-72.5 18.5t-32.5 10.5l18 173h50l28 -130q48 -26 134 -26q67 0 101.5 40t34.5 120q0 62 -37 104t-127 42h-70 v56h58q42 0 79.5 17t60.5 52.5t23 86.5q0 67 -37.5 98t-103.5 31q-44 0 -74.5 -11t-40.5 -28l-19 -93h-63l-10 154q16 1 64 12zM134 837.5q-15 18.5 -15 44.5q0 32 16.5 53t48.5 21h1q28 0 44 -19t16 -45q0 -32 -18 -52.5t-52 -20.5h-1q-25 0 -40 18.5zM378.5 837.5 q-15.5 18.5 -15.5 44.5q0 31 17 52.5t48 21.5h1q28 0 43.5 -19t15.5 -45q0 -32 -17.5 -52.5t-51.5 -20.5q-25 0 -40.5 18.5z" />
<glyph unicode="&#x4df;" horiz-adv-x="543" d="M140 551q68 16 131 16q103 0 156 -35t53 -99q0 -43 -32 -79t-85 -54q70 -6 109.5 -42t39.5 -91q0 -82 -62.5 -128.5t-183.5 -46.5q-70 0 -125 11.5t-91 25.5l10 119h62l16 -72q14 -14 46.5 -22t68.5 -8q71 0 105.5 29t34.5 80q0 109 -129 105q-10 -1 -33 -4t-26 -4l1 63 l42 5q58 7 90 35.5t32 72.5q0 42 -26.5 63.5t-87.5 21.5q-43 0 -74.5 -11t-43.5 -23l-15 -87h-65v148q31 0 82 11zM111.5 675q-15.5 18 -15.5 45q0 31 17 52.5t49 21.5q28 0 44 -19t16 -45q0 -32 -17 -52.5t-51 -20.5q-27 0 -42.5 18zM338.5 675.5q-15.5 18.5 -15.5 44.5 q0 31 17 52.5t49 21.5q28 0 43.5 -19t15.5 -45q0 -32 -17 -52.5t-52 -20.5q-25 0 -40.5 18.5z" />
<glyph unicode="&#x4e0;" horiz-adv-x="575" d="M347 428q103 0 157.5 -49t54.5 -142q0 -72 -38 -127.5t-109.5 -86t-169.5 -30.5q-61 0 -106 9.5t-70 17.5t-32 10l21 167h60l24 -123q16 -9 39.5 -16t70.5 -7q60 0 103 22.5t64.5 61t21.5 85.5q0 77 -41.5 116t-145.5 43h-42l-15 38q5 8 122 146q84 98 94 112l-265 -3 l-18 -107h-65l-11 178h479v-51l-239 -267q30 3 56 3z" />
<glyph unicode="&#x4e1;" horiz-adv-x="542" d="M419.5 183q51.5 -28 77 -76t25.5 -107q0 -77 -37.5 -134.5t-102.5 -88t-146 -30.5q-102 0 -180 39l-5 175h54l33 -137q37 -17 74 -17q90 0 142 48.5t52 142.5q0 36 -17.5 71t-57 58.5t-101.5 23.5q-16 0 -24 -1l-22 36l198 314l-235 -1l-22 -122h-70l1 177h446l17 -46 l-224 -297q73 0 124.5 -28z" />
<glyph unicode="&#x4e2;" horiz-adv-x="844" d="M335 743v-50l-98 -12v-502l82 123l288 352v27l-89 12v50h275v-50l-80 -12v-622l85 -10v-49h-279v49l88 10v509l-74 -116l-296 -357v-36l94 -10v-49h-282v49l83 10v622l-80 12v50h283zM579 853h-296v72h296v-72z" />
<glyph unicode="&#x4e3;" horiz-adv-x="734" d="M306 555v-49l-82 -14v-335l60 79l226 239v17l-74 14v49h250v-49l-72 -14v-434l75 -9v-49h-259v49l80 9v340l-66 -92l-220 -229v-20l66 -8v-49h-244v49l75 9v434l-74 14v49h259zM505 672h-275v71h275v-71z" />
<glyph unicode="&#x4e4;" horiz-adv-x="844" d="M335 743v-50l-98 -12v-502l82 123l288 352v27l-89 12v50h275v-50l-80 -12v-622l85 -10v-49h-279v49l88 10v509l-74 -116l-296 -357v-36l94 -10v-49h-282v49l83 10v622l-80 12v50h283zM261 837.5q-15 18.5 -15 44.5q0 32 16.5 53t48.5 21h1q28 0 44 -19t16 -45 q0 -32 -18 -52.5t-52 -20.5h-1q-25 0 -40 18.5zM505.5 837.5q-15.5 18.5 -15.5 44.5q0 31 17 52.5t48 21.5h1q28 0 43.5 -19t15.5 -45q0 -32 -17.5 -52.5t-51.5 -20.5q-25 0 -40.5 18.5z" />
<glyph unicode="&#x4e5;" horiz-adv-x="734" d="M306 555v-49l-82 -14v-335l60 79l226 239v17l-74 14v49h250v-49l-72 -14v-434l75 -9v-49h-259v49l80 9v340l-66 -92l-220 -229v-20l66 -8v-49h-244v49l75 9v434l-74 14v49h259zM206.5 675q-15.5 18 -15.5 45q0 31 17 52.5t49 21.5q28 0 44 -19t16 -45q0 -32 -17 -52.5 t-51 -20.5q-27 0 -42.5 18zM433.5 675.5q-15.5 18.5 -15.5 44.5q0 31 17 52.5t49 21.5q28 0 43.5 -19t15.5 -45q0 -32 -17 -52.5t-52 -20.5q-25 0 -40.5 18.5z" />
<glyph unicode="&#x4e6;" horiz-adv-x="722" d="M176.5 36q-70.5 47 -106.5 132.5t-36 198.5q0 115 43.5 202t119.5 134.5t171 47.5q156 0 238.5 -98.5t82.5 -272.5q0 -117 -44.5 -205.5t-122 -137t-173.5 -48.5q-102 0 -172.5 47zM209 614.5q-56 -84.5 -56 -247.5q0 -150 54.5 -237.5t152.5 -87.5q96 0 152.5 87 t56.5 250q0 151 -54 235.5t-153 84.5q-97 0 -153 -84.5zM192 837.5q-15 18.5 -15 44.5q0 32 16.5 53t48.5 21h1q28 0 44 -19t16 -45q0 -32 -18 -52.5t-52 -20.5h-1q-25 0 -40 18.5zM436.5 837.5q-15.5 18.5 -15.5 44.5q0 31 17 52.5t48 21.5h1q28 0 43.5 -19t15.5 -45 q0 -32 -17.5 -52.5t-51.5 -20.5q-25 0 -40.5 18.5z" />
<glyph unicode="&#x4e7;" horiz-adv-x="608" d="M82 435q37 66 97.5 100.5t129.5 34.5q126 0 189.5 -80t63.5 -210q0 -91 -37 -157t-97.5 -100t-129.5 -34q-126 0 -189.5 80t-63.5 210q0 90 37 156zM410 103q37 57 37 169q0 111 -34 176t-109 65q-69 0 -106.5 -57t-37.5 -169q0 -111 35 -176t109 -65q69 0 106 57z M139.5 675q-15.5 18 -15.5 45q0 31 17 52.5t49 21.5q28 0 44 -19t16 -45q0 -32 -17 -52.5t-51 -20.5q-27 0 -42.5 18zM366.5 675.5q-15.5 18.5 -15.5 44.5q0 31 17 52.5t49 21.5q28 0 43.5 -19t15.5 -45q0 -32 -17 -52.5t-52 -20.5q-25 0 -40.5 18.5z" />
<glyph unicode="&#x4e8;" horiz-adv-x="722" d="M606.5 652.5q82.5 -98.5 82.5 -272.5q0 -117 -44.5 -205.5t-122 -137t-173.5 -48.5q-102 0 -172.5 47t-106.5 132.5t-36 198.5q0 115 43.5 202t119.5 134.5t171 47.5q156 0 238.5 -98.5zM511.5 620q-53.5 79 -148.5 79q-93 0 -148.5 -76t-61.5 -224h416q-4 142 -57.5 221 zM210.5 124q54.5 -82 149.5 -82q91 0 147 79t62 227h-416q3 -142 57.5 -224z" />
<glyph unicode="&#x4e9;" horiz-adv-x="600" d="M494.5 490q63.5 -80 63.5 -210q0 -91 -37 -157t-97.5 -100t-129.5 -34q-126 0 -189.5 80t-63.5 210q0 90 37 156t97.5 100.5t129.5 34.5q126 0 189.5 -80zM401.5 459.5q-34.5 53.5 -101.5 53.5q-65 0 -102 -50.5t-41 -149.5h285q-6 93 -40.5 146.5zM195 105.5 q35 -59.5 106 -59.5q68 0 104.5 55.5t37.5 165.5h-287q4 -102 39 -161.5z" />
<glyph unicode="&#x4ea;" horiz-adv-x="722" d="M606.5 652.5q82.5 -98.5 82.5 -272.5q0 -117 -44.5 -205.5t-122 -137t-173.5 -48.5q-102 0 -172.5 47t-106.5 132.5t-36 198.5q0 115 43.5 202t119.5 134.5t171 47.5q156 0 238.5 -98.5zM511.5 620q-53.5 79 -148.5 79q-93 0 -148.5 -76t-61.5 -224h416q-4 142 -57.5 221 zM210.5 124q54.5 -82 149.5 -82q91 0 147 79t62 227h-416q3 -142 57.5 -224zM202 837.5q-15 18.5 -15 44.5q0 32 16.5 53t48.5 21h1q28 0 44 -19t16 -45q0 -32 -18 -52.5t-52 -20.5h-1q-25 0 -40 18.5zM446.5 837.5q-15.5 18.5 -15.5 44.5q0 31 17 52.5t48 21.5h1 q28 0 43.5 -19t15.5 -45q0 -32 -17.5 -52.5t-51.5 -20.5q-25 0 -40.5 18.5z" />
<glyph unicode="&#x4eb;" horiz-adv-x="600" d="M494.5 490q63.5 -80 63.5 -210q0 -91 -37 -157t-97.5 -100t-129.5 -34q-126 0 -189.5 80t-63.5 210q0 90 37 156t97.5 100.5t129.5 34.5q126 0 189.5 -80zM401.5 459.5q-34.5 53.5 -101.5 53.5q-65 0 -102 -50.5t-41 -149.5h285q-6 93 -40.5 146.5zM195 105.5 q35 -59.5 106 -59.5q68 0 104.5 55.5t37.5 165.5h-287q4 -102 39 -161.5zM139.5 675q-15.5 18 -15.5 45q0 31 17 52.5t49 21.5q28 0 44 -19t16 -45q0 -32 -17 -52.5t-51 -20.5q-27 0 -42.5 18zM366.5 675.5q-15.5 18.5 -15.5 44.5q0 31 17 52.5t49 21.5q28 0 43.5 -19 t15.5 -45q0 -32 -17 -52.5t-52 -20.5q-25 0 -40.5 18.5z" />
<glyph unicode="&#x4ec;" horiz-adv-x="662" d="M122 726q44 12 80.5 18.5t89.5 6.5q106 0 182 -48.5t115.5 -135.5t39.5 -201q0 -112 -44 -197.5t-124 -132.5t-185 -47q-42 0 -73 6t-71 17q-45 14 -69 14l-18 148l69 11l40 -99q22 -17 52.5 -29t83.5 -12q63 0 111.5 35.5t76.5 104t29 164.5l-327 -9v81l324 -9 q-10 126 -65.5 205t-153.5 79q-51 0 -79 -12.5t-52 -33.5l-27 -96h-71l2 159q25 1 64 13zM162 837.5q-15 18.5 -15 44.5q0 32 16.5 53t48.5 21h1q28 0 44 -19t16 -45q0 -32 -18 -52.5t-52 -20.5h-1q-25 0 -40 18.5zM406.5 837.5q-15.5 18.5 -15.5 44.5q0 31 17 52.5t48 21.5 h1q28 0 43.5 -19t15.5 -45q0 -32 -17.5 -52.5t-51.5 -20.5q-25 0 -40.5 18.5z" />
<glyph unicode="&#x4ed;" horiz-adv-x="528" d="M121 564q53 8 101 8q79 0 141 -34t97.5 -100.5t35.5 -160.5q0 -87 -34.5 -153t-94.5 -101t-134 -35q-62 0 -111 16t-80 41l-1 100h55l20 -78q50 -23 102 -23q69 0 113.5 49.5t50.5 157.5l-224 -4v72l223 -7q-6 100 -49.5 153t-111.5 53q-64 0 -96 -27l-19 -74h-59v129 q22 10 75 18zM104.5 675q-15.5 18 -15.5 45q0 31 17 52.5t49 21.5q28 0 44 -19t16 -45q0 -32 -17 -52.5t-51 -20.5q-27 0 -42.5 18zM331.5 675.5q-15.5 18.5 -15.5 44.5q0 31 17 52.5t49 21.5q28 0 43.5 -19t15.5 -45q0 -32 -17 -52.5t-52 -20.5q-25 0 -40.5 18.5z" />
<glyph unicode="&#x4ee;" horiz-adv-x="630" d="M359 97.5q-20 -48.5 -57 -78.5t-86 -30q-26 0 -51.5 4.5t-41.5 11.5v71l71 -1q46 0 68 18.5t38 66.5l-252 521l-54 12v50h270v-50l-98 -12l161 -348l30 -91l33 92l127 347l-85 12v50h214v-50l-52 -12l-211 -527q-4 -8 -24 -56.5zM469 853h-296v72h296v-72z" />
<glyph unicode="&#x4ef;" horiz-adv-x="572" d="M92.5 -247q-16.5 2 -23.5 6v87q6 -4 23.5 -6t33.5 -2q48 0 84.5 33.5t70.5 128.5h-48l-190 495l-46 13v47h241v-47l-77 -12l98 -295l46 -146l43 147l89 294l-67 12v47h201v-47l-50 -12q-147 -450 -173 -511q-34 -86 -62 -134.5t-66 -74t-94 -25.5q-17 0 -33.5 2zM438 672 h-275v71h275v-71z" />
<glyph unicode="&#x4f0;" horiz-adv-x="630" d="M359 97.5q-20 -48.5 -57 -78.5t-86 -30q-26 0 -51.5 4.5t-41.5 11.5v71l71 -1q46 0 68 18.5t38 66.5l-252 521l-54 12v50h270v-50l-98 -12l161 -348l30 -91l33 92l127 347l-85 12v50h214v-50l-52 -12l-211 -527q-4 -8 -24 -56.5zM151 837.5q-15 18.5 -15 44.5 q0 32 16.5 53t48.5 21h1q28 0 44 -19t16 -45q0 -32 -18 -52.5t-52 -20.5h-1q-25 0 -40 18.5zM395.5 837.5q-15.5 18.5 -15.5 44.5q0 31 17 52.5t48 21.5h1q28 0 43.5 -19t15.5 -45q0 -32 -17.5 -52.5t-51.5 -20.5q-25 0 -40.5 18.5z" />
<glyph unicode="&#x4f1;" horiz-adv-x="572" d="M92.5 -247q-16.5 2 -23.5 6v87q6 -4 23.5 -6t33.5 -2q48 0 84.5 33.5t70.5 128.5h-48l-190 495l-46 13v47h241v-47l-77 -12l98 -295l46 -146l43 147l89 294l-67 12v47h201v-47l-50 -12q-147 -450 -173 -511q-34 -86 -62 -134.5t-66 -74t-94 -25.5q-17 0 -33.5 2z M139.5 675q-15.5 18 -15.5 45q0 31 17 52.5t49 21.5q28 0 44 -19t16 -45q0 -32 -17 -52.5t-51 -20.5q-27 0 -42.5 18zM366.5 675.5q-15.5 18.5 -15.5 44.5q0 31 17 52.5t49 21.5q28 0 43.5 -19t15.5 -45q0 -32 -17 -52.5t-52 -20.5q-25 0 -40.5 18.5z" />
<glyph unicode="&#x4f2;" horiz-adv-x="630" d="M359 97.5q-20 -48.5 -57 -78.5t-86 -30q-26 0 -51.5 4.5t-41.5 11.5v71l71 -1q46 0 68 18.5t38 66.5l-252 521l-54 12v50h270v-50l-98 -12l161 -348l30 -91l33 92l127 347l-85 12v50h214v-50l-52 -12l-211 -527q-4 -8 -24 -56.5zM351 931q-29 -34 -72.5 -68t-84.5 -59 l-42 36l134 142zM581 928q-27 -33 -72.5 -67t-87.5 -57l-42 37l143 140z" />
<glyph unicode="&#x4f3;" horiz-adv-x="572" d="M92.5 -247q-16.5 2 -23.5 6v87q6 -4 23.5 -6t33.5 -2q48 0 84.5 33.5t70.5 128.5h-48l-190 495l-46 13v47h241v-47l-77 -12l98 -295l46 -146l43 147l89 294l-67 12v47h201v-47l-50 -12q-147 -450 -173 -511q-34 -86 -62 -134.5t-66 -74t-94 -25.5q-17 0 -33.5 2zM141 689 l157 196l66 -55q-22 -35 -84 -91t-100 -81zM372 690l164 192l62 -54q-19 -32 -83.5 -88.5t-103.5 -81.5z" />
<glyph unicode="&#x4f4;" horiz-adv-x="693" d="M365 296q-55 -11 -104 -11q-70 0 -112.5 21t-62.5 70.5t-20 135.5v168l-61 12v51h252v-51l-85 -12v-138q0 -89 11.5 -128t38.5 -50.5t87 -11.5q38 0 81.5 10t64.5 22v297l-89 12v50h283v-50l-88 -12v-622l88 -11v-48h-299v49l105 10v268q-35 -20 -90 -31zM150 837.5 q-15 18.5 -15 44.5q0 32 16.5 53t48.5 21h1q28 0 44 -19t16 -45q0 -32 -18 -52.5t-52 -20.5h-1q-25 0 -40 18.5zM394.5 837.5q-15.5 18.5 -15.5 44.5q0 31 17 52.5t48 21.5h1q28 0 43.5 -19t15.5 -45q0 -32 -17.5 -52.5t-51.5 -20.5q-25 0 -40.5 18.5z" />
<glyph unicode="&#x4f5;" horiz-adv-x="653" d="M347 199q-34 -11 -89 -11q-68 0 -109.5 20.5t-61 67t-19.5 125.5v91l-60 14v49h234v-49l-68 -14v-60q0 -76 9.5 -113.5t35.5 -52.5t80 -15q67 0 131 36v205l-81 14v49h252v-49l-67 -14v-433l71 -10v-49h-265v49l90 10v175q-49 -24 -83 -35zM133.5 675q-15.5 18 -15.5 45 q0 31 17 52.5t49 21.5q28 0 44 -19t16 -45q0 -32 -17 -52.5t-51 -20.5q-27 0 -42.5 18zM360.5 675.5q-15.5 18.5 -15.5 44.5q0 31 17 52.5t49 21.5q28 0 43.5 -19t15.5 -45q0 -32 -17 -52.5t-52 -20.5q-25 0 -40.5 18.5z" />
<glyph unicode="&#x4f6;" horiz-adv-x="572" d="M432.5 -68q-12.5 -114 -14.5 -118h-64q0 22 -5.5 99t-8.5 87h-312v49l110 11v620l-107 14v49h524l7 -263h-66l-30 203l-220 8v-631h199q0 -14 -12.5 -128z" />
<glyph unicode="&#x4f7;" horiz-adv-x="504" d="M364.5 -52q-10.5 -97 -15.5 -134h-65q0 23 -5 99.5t-8 86.5h-225v49l78 9v434l-76 14v49h432l5 -208h-63l-25 148l-169 5v-442h147q0 -13 -10.5 -110z" />
<glyph unicode="&#x4f8;" horiz-adv-x="1051" d="M369 451q122 0 187 -57.5t65 -160.5q0 -115 -73 -178t-193 -63q-16 0 -33.5 1t-35.5 2q-58 5 -103 5h-136v49l84 10v623l-81 13v48h285v-48l-98 -13v-232zM997 743v-50l-93 -12v-622l93 -11v-48h-294v49l93 10v622l-93 12v50h294zM282.5 48q19.5 -2 53.5 -2 q84 0 128.5 47t44.5 134q0 83 -44 124.5t-126 41.5l-102 -1v-337q26 -5 45.5 -7zM356 837.5q-15 18.5 -15 44.5q0 32 16.5 53t48.5 21h1q28 0 44 -19t16 -45q0 -32 -18 -52.5t-52 -20.5h-1q-25 0 -40 18.5zM600.5 837.5q-15.5 18.5 -15.5 44.5q0 31 17 52.5t48 21.5h1 q28 0 43.5 -19t15.5 -45q0 -32 -17.5 -52.5t-51.5 -20.5q-25 0 -40.5 18.5z" />
<glyph unicode="&#x4f9;" horiz-adv-x="872" d="M332 336q213 0 213 -167q0 -88 -58 -133.5t-164 -45.5q-13 0 -42 2t-47 3q-55 5 -82 5h-118v47l88 11v434l-83 13v50h282v-52l-97 -11v-157q35 1 108 1zM821 555v-50l-70 -13v-433l76 -10v-49h-249v49l71 10v433l-75 13v50h247zM308 45q64 0 96 28.5t32 87.5 q0 61 -32.5 89t-100.5 28h-79v-227q48 -6 84 -6zM291.5 675q-15.5 18 -15.5 45q0 31 17 52.5t49 21.5q28 0 44 -19t16 -45q0 -32 -17 -52.5t-51 -20.5q-27 0 -42.5 18zM518.5 675.5q-15.5 18.5 -15.5 44.5q0 31 17 52.5t49 21.5q28 0 43.5 -19t15.5 -45q0 -32 -17 -52.5 t-52 -20.5q-25 0 -40.5 18.5z" />
<glyph unicode="&#x4fa;" horiz-adv-x="581" d="M478 -124q0 -58 -34.5 -87.5t-95.5 -29.5q-17 0 -37 4t-34 9l1 69q10 -3 23 -5.5t22 -2.5q38 0 56 18.5t18 62.5q0 35 -16 86h-353v49l110 11v268h-95v55h95v297l-107 14v49h524l7 -263h-67l-29 203l-220 8v-308h180v-55h-180v-268l172 -11q60 -110 60 -173z" />
<glyph unicode="&#x4fb;" horiz-adv-x="504" d="M421 -125q0 -58 -34 -87t-95 -29q-17 0 -37.5 4t-33.5 9v69q10 -3 23 -5.5t22 -2.5q38 0 56 18t18 62q0 32 -19 87h-275v49l78 9v149h-96v56h96v229l-76 14v49h432l5 -208h-63l-25 148l-169 5v-237h121v-56h-121v-149l131 -9q62 -112 62 -174z" />
<glyph unicode="&#x4fc;" horiz-adv-x="712" d="M447 354q70 -95 106 -148.5t58 -102.5t22 -92q0 -68 -42 -123.5t-137 -86.5l-29 51q58 22 82 52t24 74q0 35 -17 78t-57.5 109t-116.5 175l-167 -281l100 -10v-49h-266v49l85 10l214 320l-211 301l-74 13v50h298v-50l-95 -13l159 -245l153 246l-88 12v50h246v-50l-80 -13 l-199 -282z" />
<glyph unicode="&#x4fd;" horiz-adv-x="597" d="M503.5 84q48.5 -86 48.5 -158q0 -61 -42 -107.5t-111 -63.5l-22 51q76 19 76 96q0 58 -46.5 149t-122.5 188l-26 -43l-100 -138l84 -10v-48h-234v48l67 10l175 220l-172 218l-57 12v47h254v-47l-70 -12l94 -127l29 -44l27 43l92 128l-74 12v47h211v-47l-60 -12l-162 -205 q93 -121 141.5 -207z" />
<glyph unicode="&#x4fe;" horiz-adv-x="712" d="M319 743v-50l-95 -13l156 -253l156 254l-88 12v50h246v-50l-80 -13l-190 -272l140 3v-61l-128 2l198 -293l76 -10v-49h-297v49l93 10l-170 273l-163 -273l100 -10v-49h-266v49l85 10l199 293l-141 -2v61l128 -3l-183 272l-74 13v50h298z" />
<glyph unicode="&#x4ff;" horiz-adv-x="600" d="M275 555v-47l-70 -12l91 -129l29 -43l26 43l96 129l-74 12v47h211v-47l-60 -12l-149 -185l123 2v-58l-115 3l152 -201l59 -9v-48h-258v48l67 10l-91 135l-31 45l-27 -44l-96 -136l84 -10v-48h-234v48l67 10l156 200l-124 -3v58l113 -2l-142 185l-57 12v47h254z" />
<glyph unicode="&#x2000;" horiz-adv-x="491" />
<glyph unicode="&#x2001;" horiz-adv-x="983" />
<glyph unicode="&#x2002;" horiz-adv-x="491" />
<glyph unicode="&#x2003;" horiz-adv-x="983" />
<glyph unicode="&#x2004;" horiz-adv-x="327" />
<glyph unicode="&#x2005;" horiz-adv-x="245" />
<glyph unicode="&#x2006;" horiz-adv-x="163" />
<glyph unicode="&#x2007;" horiz-adv-x="163" />
<glyph unicode="&#x2008;" horiz-adv-x="122" />
<glyph unicode="&#x2009;" horiz-adv-x="196" />
<glyph unicode="&#x200a;" horiz-adv-x="54" />
<glyph unicode="&#x2010;" horiz-adv-x="628" d="M516 284h-404v73h404v-73z" />
<glyph unicode="&#x2011;" horiz-adv-x="628" d="M516 284h-404v73h404v-73z" />
<glyph unicode="&#x2012;" horiz-adv-x="628" d="M516 284h-404v73h404v-73z" />
<glyph unicode="&#x2013;" horiz-adv-x="814" d="M701 283h-589v74h589v-74z" />
<glyph unicode="&#x2014;" horiz-adv-x="1185" d="M1073 283h-961v74h961v-74z" />
<glyph unicode="&#x2018;" horiz-adv-x="381" d="M160 453q-23 23 -36.5 61.5t-13.5 80.5q0 61 21 114t51 89t56 49l27 -27v-11q-13 -10 -29 -38t-28 -68.5t-12 -83.5q0 -21 8.5 -36t25.5 -35q16 -18 24 -31.5t8 -31.5q0 -26 -15 -40.5t-39 -14.5q-25 0 -48 23z" />
<glyph unicode="&#x2019;" horiz-adv-x="381" d="M115 448v11q12 10 29 44.5t29 80t12 89.5q0 11 -6.5 20t-21.5 24q-18 17 -28 31.5t-10 34.5q0 26 14.5 41t38.5 15q26 0 49 -19t36.5 -52.5t13.5 -75.5q0 -61 -21.5 -118.5t-51.5 -98.5t-55 -54z" />
<glyph unicode="&#x201a;" horiz-adv-x="381" d="M115 -234v11q12 9 28.5 43.5t29 80t12.5 89.5q0 11 -6.5 20t-21.5 24q-18 17 -28 31.5t-10 34.5q0 26 14.5 41t38.5 15q26 0 49 -19t36.5 -52.5t13.5 -75.5q0 -61 -21.5 -118.5t-51.5 -98.5t-55 -53z" />
<glyph unicode="&#x201c;" horiz-adv-x="644" d="M160 453q-23 23 -36.5 61.5t-13.5 80.5q0 61 21 113.5t51 88.5t55 50h1l27 -27v-11q-24 -19 -46.5 -62t-22.5 -105q0 -34 10 -54.5t29 -45.5q14 -17 20.5 -28.5t6.5 -28.5q0 -26 -15 -40.5t-39 -14.5q-25 0 -48 23zM422 453q-23 23 -36.5 61.5t-13.5 80.5q0 61 21 113.5 t51 88.5t55 50h1l28 -27v-11q-24 -19 -47 -62t-23 -105q0 -34 10 -55t30 -45q14 -17 20.5 -28.5t6.5 -28.5q0 -26 -15 -40.5t-39 -14.5q-26 0 -49 23z" />
<glyph unicode="&#x201d;" horiz-adv-x="644" d="M115 456v11q13 10 29.5 36.5t28.5 65t12 81.5q0 27 -9.5 44.5t-27.5 37.5q-15 17 -22 29.5t-7 29.5q0 26 14.5 40.5t38.5 14.5q26 0 49 -23t36.5 -61.5t13.5 -80.5q0 -61 -21 -113.5t-51 -88.5t-55 -50h-1zM378 456v11q13 10 29 36.5t28 65t12 81.5q0 27 -9.5 44.5 t-27.5 37.5q-15 17 -22 29.5t-7 29.5q0 26 14.5 40.5t38.5 14.5q26 0 49 -23t36.5 -61.5t13.5 -80.5q0 -61 -21 -113.5t-51 -88.5t-55 -50h-1z" />
<glyph unicode="&#x201e;" horiz-adv-x="644" d="M115 -224v11q24 19 47 62t23 105q0 34 -10 54.5t-29 45.5q-14 17 -20.5 28.5t-6.5 28.5q0 26 14.5 40.5t38.5 14.5q26 0 49 -23t36.5 -61.5t13.5 -80.5q0 -61 -21 -113.5t-51 -88.5t-55 -50h-1zM378 -224v11q24 19 46.5 62t22.5 105q0 34 -10 54.5t-29 45.5 q-14 17 -20.5 28.5t-6.5 28.5q0 26 14.5 40.5t38.5 14.5q26 0 49 -23t36.5 -61.5t13.5 -80.5q0 -61 -21 -113.5t-51 -88.5t-55 -50h-1z" />
<glyph unicode="&#x2020;" horiz-adv-x="525" d="M79 545v77l149 -5l-10 110v79h89v-79l-9 -110l148 5v-77l-148 4l10 -113l-17 -385h-56l-18 385l11 113z" />
<glyph unicode="&#x2021;" horiz-adv-x="525" d="M218 450l11 99l-151 -4v77l151 -5l-11 109v80h89v-80l-10 -109l150 5v-77l-149 4l10 -99l-11 -140l150 4v-76l-150 4l11 -106l-16 -352h-57l-17 352l12 106l-152 -4v76l152 -4z" />
<glyph unicode="&#x2022;" horiz-adv-x="415" d="M139 267q-26 29 -27 70q0 42 30 70t70 28q39 0 65 -27.5t26 -70.5q0 -41 -30 -70t-70 -29q-38 0 -64 29z" />
<glyph unicode="&#x2026;" horiz-adv-x="792" d="M81.5 8q-18.5 18 -18.5 46q0 31 22.5 52t52.5 21q31 0 47.5 -18.5t16.5 -45.5q0 -33 -22 -53t-54 -20q-26 0 -44.5 18zM345.5 8q-18.5 18 -18.5 46q0 31 22.5 52t51.5 21q31 0 47.5 -18.5t16.5 -45.5q0 -33 -21.5 -53t-53.5 -20q-26 0 -44.5 18zM608.5 8 q-18.5 18 -18.5 46q0 31 22.5 52t52.5 21q31 0 47.5 -18.5t16.5 -45.5q0 -33 -22 -53t-54 -20q-26 0 -44.5 18z" />
<glyph unicode="&#x202f;" horiz-adv-x="196" />
<glyph unicode="&#x2030;" horiz-adv-x="1478" d="M639 751h76l-320 -751h-76zM137 348.5q-41 27.5 -62.5 73.5t-21.5 102q0 66 26.5 114t71.5 73t98 25q91 0 135 -57t44 -149q0 -65 -27 -112.5t-71.5 -72t-97.5 -24.5q-54 0 -95 27.5zM311 414q25 41 25 112q0 70 -23.5 113.5t-69.5 43.5q-47 0 -72 -41t-25 -113 q0 -65 24 -110.5t69 -45.5q47 0 72 41zM690.5 47.5q-40.5 27.5 -62 74t-21.5 102.5q0 65 26.5 113t71.5 73.5t98 25.5q89 0 133.5 -57.5t44.5 -148.5q0 -65 -27 -112.5t-71.5 -72.5t-97.5 -25q-54 0 -94.5 27.5zM1131 47.5q-41 27.5 -62.5 74t-21.5 102.5q0 65 27 113 t71.5 73.5t97.5 25.5q90 0 134.5 -57.5t44.5 -148.5q0 -65 -27 -112.5t-71.5 -72.5t-97.5 -25q-54 0 -95 27.5zM864 114q26 41 26 112q0 70 -23.5 113.5t-69.5 43.5q-47 0 -72.5 -41.5t-25.5 -112.5q0 -66 24 -111t68 -45q47 0 73 41zM1304.5 114q25.5 41 25.5 112t-23 114 t-69 43q-47 0 -72.5 -41.5t-25.5 -112.5q0 -66 24 -111t68 -45q47 0 72.5 41z" />
<glyph unicode="&#x2039;" horiz-adv-x="404" d="M338 520l-171 -221l171 -213l-50 -34l-232 212v69l232 218z" />
<glyph unicode="&#x203a;" horiz-adv-x="404" d="M348 333v-69l-232 -212l-50 34l171 213l-171 221l50 31z" />
<glyph unicode="&#x2044;" horiz-adv-x="188" d="M310 807l-361 -884l-71 4l363 886z" />
<glyph unicode="&#x205f;" horiz-adv-x="245" />
<glyph unicode="&#x20ac;" horiz-adv-x="698" d="M122 349q0 43 3 71h-103l20 55h92q32 140 118.5 214t212.5 74q45 0 81 -7.5t74 -19.5q30 -9 43 -11l-10 -165h-58l-19 114q-14 14 -49.5 23.5t-78.5 9.5q-168 0 -205 -232h270l-20 -55h-255q-2 -44 -2 -53q0 -34 1 -51h221l-20 -55h-195q28 -224 204 -224q40 0 70 11.5 t56 33.5l32 88l55 -10l-11 -128q-19 -1 -51 -14q-42 -15 -80 -23.5t-92 -8.5q-126 0 -202.5 74t-95.5 201h-105l20 55h79v33z" />
<glyph unicode="&#x2122;" horiz-adv-x="1112" d="M211 717l-87 -3l-19 -70l-38 -1l9 117h355v-116l-36 -2l-12 72l-89 4v-296l67 -7v-40h-214v40l64 7v295zM551 713l-55 4v43h174l72 -204l27 -89l100 293h161v-43l-55 -4l26 -291l51 -7v-40h-179v40l47 7l-12 190l-5 108l-18 -57l-102 -292h-54l-98 267l-33 85l-2 -88 l-13 -213l47 -7v-40h-155v40l55 7z" />
<glyph unicode="&#x2202;" horiz-adv-x="636" d="M98 363.5q40 66.5 107.5 102t148.5 35.5q39 0 71 -11t62 -29q-3 131 -52 209.5t-174 78.5q-86 0 -145 -43l-23 50q37 28 90 46t107 18q156 0 224.5 -96.5t68.5 -259.5q0 -118 -30 -226t-99.5 -179t-181.5 -71q-63 0 -112 28.5t-75.5 78.5t-26.5 112q0 90 40 156.5z M486 383q-30 26 -66.5 41t-77.5 15q-48 0 -89 -24t-66 -71.5t-25 -115.5q0 -73 38 -120t101 -47q81 0 123 71t55 169q6 54 7 82z" />
<glyph unicode="&#x2206;" horiz-adv-x="864" d="M425 740l367 -726l-8 -14h-705l-8 13l338 727h16zM172 71h477l-250 509z" />
<glyph unicode="&#x220f;" horiz-adv-x="722" d="M19 697v46h685v-46l-85 -11v-713l87 -12v-47h-277v47l83 12v713h-300v-713l83 -12v-47h-278v47l86 12v712z" />
<glyph unicode="&#x2211;" horiz-adv-x="777" d="M112 743h527l16 -166h-56l-29 104l-334 6l259 -346l-276 -366l360 10l49 105l50 -8l-22 -171h-546l-11 30l289 376l-289 394z" />
<glyph unicode="&#x221a;" horiz-adv-x="719" d="M229 349l155 -412h4l291 976h103l-350 -1086h-87l-193 440l-57 -31l-34 60l90 53h78z" />
<glyph unicode="&#x221e;" horiz-adv-x="921" d="M137 124.5q-48 27.5 -74 74t-26 99.5q0 59 28.5 105t79 72t113.5 26q69 0 120 -39t100 -106q42 62 94.5 103t111.5 41q62 0 107 -27.5t69 -73t24 -98.5q0 -60 -28.5 -106t-79.5 -72t-114 -26q-67 0 -115.5 38t-97.5 105q-39 -60 -90.5 -100.5t-111.5 -41.5 q-62 -1 -110 26.5zM352 202.5q40 29.5 72 75.5q-46 68 -90.5 111.5t-97.5 43.5q-57 0 -88 -33t-31 -85q0 -41 21 -73.5t56.5 -50.5t76.5 -18t81 29.5zM503 320q46 -70 88.5 -113t95.5 -43q56 0 87 33t31 85q0 42 -20.5 75t-55.5 51.5t-76 18.5q-74 0 -150 -107z" />
<glyph unicode="&#x222b;" horiz-adv-x="529" d="M147 -173q31 -16 64 -16q50 0 83.5 36.5t33.5 89.5q0 80 -27.5 153t-81.5 178q-37 73 -58 119.5t-36 101.5t-15 111q0 60 30 111.5t79 81.5t104 30q47 0 86 -12t65 -49l-48 -49q-11 22 -40.5 36t-61.5 14q-50 0 -84 -36t-34 -87q0 -56 15 -110.5t36.5 -101.5t57.5 -117 q37 -70 58.5 -117.5t36.5 -102.5t15 -111q0 -62 -26 -115.5t-72 -85t-104 -31.5q-42 0 -89.5 13t-78.5 45l45 58q16 -21 47 -37z" />
<glyph unicode="&#x2248;" horiz-adv-x="679" d="M164 496q42 28 92 28q32 0 56 -12.5t53 -35.5q23 -18 39 -27t35 -9q59 0 103 58l38 -43q-21 -38 -62 -65t-90 -27q-31 0 -54 12t-51 35q-24 19 -40.5 28t-36.5 9q-59 0 -105 -58l-38 43q19 36 61 64zM164 208q42 28 92 28q32 0 56 -12.5t53 -35.5q23 -18 39 -27t35 -9 q59 0 103 58l38 -43q-21 -38 -62 -65t-90 -27q-31 0 -54 12t-51 35q-24 19 -40.5 28t-36.5 9q-59 0 -105 -58l-38 43q19 36 61 64z" />
<glyph unicode="&#x2260;" horiz-adv-x="653" d="M399 583h77l-41 -109h117v-72h-145l-75 -203h220v-72h-247l-40 -107h-79l42 107h-126v72h155l73 203h-228v72h256z" />
<glyph unicode="&#x2264;" horiz-adv-x="669" d="M558 617l-352 -148l352 -151v-82l-478 216v34l478 215v-84zM557 71h-474v72h474v-72z" />
<glyph unicode="&#x2265;" horiz-adv-x="669" d="M111 236v82l352 151l-352 148v84l478 -215v-34zM112 71v72h474v-72h-474z" />
<glyph unicode="&#x25ca;" horiz-adv-x="574" d="M20 375l267 369l265 -368l-265 -380zM301 148l154 228l-14 20l-153 216l-15 -18l-154 -217l14 -22l154 -226z" />
<glyph unicode="&#x25fc;" horiz-adv-x="555" d="M0 555h555v-555h-555v555z" />
<glyph d="M-170 837.5q-15 18.5 -15 44.5q0 32 16.5 53t48.5 21h1q28 0 44 -19t16 -45q0 -32 -18 -52.5t-52 -20.5h-1q-25 0 -40 18.5zM74.5 837.5q-15.5 18.5 -15.5 44.5q0 31 17 52.5t48 21.5h1q28 0 43.5 -19t15.5 -45q0 -32 -17.5 -52.5t-51.5 -20.5q-25 0 -40.5 18.5z" />
<glyph d="M-64.5 856.5q-51.5 39.5 -77.5 73.5l80 51l135 -152l-48 -30q-38 18 -89.5 57.5z" />
<glyph d="M-75 829l134 152l81 -51q-28 -35 -77.5 -74t-87.5 -57z" />
<glyph d="M30 931q-29 -34 -72.5 -68t-84.5 -59l-42 36l134 142zM260 928q-27 -33 -72.5 -67t-87.5 -57l-42 37l143 140z" />
<glyph d="M41 982l135 -144l-41 -29l-134 103l-136 -103l-39 28l135 145h80z" />
<glyph d="M28 825.5q-19 10.5 -44 30.5q-17 15 -29.5 22.5t-27.5 7.5q-25 0 -37.5 -15.5t-22.5 -43.5l-47 27q14 45 42 73t71 28q31 0 50.5 -11t43.5 -33q17 -15 28 -22t24 -7q22 0 35.5 17t23.5 44l47 -27q-15 -47 -40 -74t-69 -27q-29 0 -48 10.5z" />
<glyph d="M148 853h-296v72h296v-72z" />
<glyph d="M-349 809q0 -45 24.5 -77t77.5 -32q52 0 75.5 32t23.5 77q0 37 16 37h73q1 -6 1 -19q0 -81 -49.5 -130t-140.5 -49q-89 0 -140 49.5t-51 129.5l1 19h73q16 0 16 -37z" />
<glyph d="M-347 944q0 -42 22.5 -65t78.5 -23t78.5 23t22.5 65q0 39 15 39h75l1 -22q0 -75 -49.5 -113.5t-142.5 -38.5q-92 0 -142 39t-50 113l1 22h74q16 0 16 -39z" />
<glyph horiz-adv-x="158" d="M34 -186h-64q34 122 50 186h-23l3 58h108v-58z" />
<glyph horiz-adv-x="164" d="M85 -77q-37 -104 -42 -110h-67q5 11 21.5 78.5t19.5 80.5l7 28h-35l11 58h114v-58q-2 -5 -29 -77z" />
</font>
</defs>
</svg>
